<svg width="1512" height="10433" viewBox="0 0 1512 10433" fill="none" xmlns="http://www.w3.org/2000/svg">
<g clip-path="url(#clip0_76_176)">
<rect width="1512" height="10433" fill="black"/>
<ellipse cx="1.5" cy="696" rx="1.5" ry="2" fill="#6F6F6F"/>
<ellipse cx="1.40951" cy="1.52546" rx="1.40951" ry="1.52546" transform="matrix(0.935558 -0.353173 0.295257 0.955418 520.658 1026.34)" fill="#6F6F6F"/>
<ellipse cx="1.40951" cy="1.52546" rx="1.40951" ry="1.52546" transform="matrix(0.935558 -0.353173 0.295257 0.955418 516.658 2504.8)" fill="#6F6F6F"/>
<ellipse cx="1.40951" cy="1.52546" rx="1.40951" ry="1.52546" transform="matrix(0.935558 -0.353173 0.295257 0.955418 516.658 3969.8)" fill="#6F6F6F"/>
<ellipse cx="94" cy="745" rx="1" ry="2" fill="#6F6F6F"/>
<ellipse cx="90" cy="2223.45" rx="1" ry="2" fill="#6F6F6F"/>
<ellipse cx="90" cy="3688.45" rx="1" ry="2" fill="#6F6F6F"/>
<circle cx="433.5" cy="1219.5" r="1.5" fill="#6F6F6F"/>
<circle cx="429.5" cy="2697.95" r="1.5" fill="#6F6F6F"/>
<circle cx="429.5" cy="4162.95" r="1.5" fill="#6F6F6F"/>
<ellipse cx="2.11427" cy="3.05093" rx="2.11427" ry="3.05093" transform="matrix(0.935558 -0.353173 0.295257 0.955418 484.025 621.908)" fill="#6F6F6F"/>
<ellipse cx="2.11427" cy="3.05093" rx="2.11427" ry="3.05093" transform="matrix(0.935558 -0.353173 0.295257 0.955418 480.025 2100.36)" fill="#6F6F6F"/>
<ellipse cx="2.11427" cy="3.05093" rx="2.11427" ry="3.05093" transform="matrix(0.935558 -0.353173 0.295257 0.955418 480.025 3565.36)" fill="#6F6F6F"/>
<ellipse cx="1196.5" cy="1528" rx="2.5" ry="3" fill="#6F6F6F"/>
<ellipse cx="1192.5" cy="3006.45" rx="2.5" ry="3" fill="#6F6F6F"/>
<ellipse cx="1192.5" cy="4471.45" rx="2.5" ry="3" fill="#6F6F6F"/>
<ellipse cx="873" cy="1043" rx="2" ry="3" fill="#6F6F6F"/>
<ellipse cx="869" cy="2521.45" rx="2" ry="3" fill="#6F6F6F"/>
<ellipse cx="869" cy="3986.45" rx="2" ry="3" fill="#6F6F6F"/>
<ellipse cx="1.399" cy="1.53511" rx="1.399" ry="1.53511" transform="matrix(0.978037 0.208432 -0.171866 0.98512 77.916 30.2454)" fill="#6F6F6F"/>
<ellipse cx="1.399" cy="1.53511" rx="1.399" ry="1.53511" transform="matrix(0.978037 0.208432 -0.171866 0.98512 74.1777 1627.56)" fill="#6F6F6F"/>
<ellipse cx="1.399" cy="1.53511" rx="1.399" ry="1.53511" transform="matrix(0.978037 0.208432 -0.171866 0.98512 70.1777 3106.02)" fill="#6F6F6F"/>
<ellipse cx="1.399" cy="1.53511" rx="1.399" ry="1.53511" transform="matrix(0.978037 0.208432 -0.171866 0.98512 70.1777 4571.02)" fill="#6F6F6F"/>
<ellipse cx="1217" cy="915" rx="2" ry="1" fill="#6F6F6F"/>
<ellipse cx="1213" cy="2393.45" rx="2" ry="1" fill="#6F6F6F"/>
<ellipse cx="1213" cy="3858.45" rx="2" ry="1" fill="#6F6F6F"/>
<circle cx="65.5" cy="856.5" r="1.5" fill="#6F6F6F"/>
<circle cx="61.5" cy="2334.95" r="1.5" fill="#6F6F6F"/>
<circle cx="61.5" cy="3799.95" r="1.5" fill="#6F6F6F"/>
<ellipse cx="355.5" cy="463.5" rx="1.5" ry="2.5" fill="#6F6F6F"/>
<ellipse cx="351.5" cy="1941.95" rx="1.5" ry="2.5" fill="#6F6F6F"/>
<ellipse cx="351.5" cy="3406.95" rx="1.5" ry="2.5" fill="#6F6F6F"/>
<ellipse cx="1.40951" cy="2.28819" rx="1.40951" ry="2.28819" transform="matrix(0.935558 -0.353173 0.295257 0.955418 746.859 914.912)" fill="#6F6F6F"/>
<ellipse cx="1.40951" cy="2.28819" rx="1.40951" ry="2.28819" transform="matrix(0.935558 -0.353173 0.295257 0.955418 742.859 2393.37)" fill="#6F6F6F"/>
<ellipse cx="1.40951" cy="2.28819" rx="1.40951" ry="2.28819" transform="matrix(0.935558 -0.353173 0.295257 0.955418 742.859 3858.37)" fill="#6F6F6F"/>
<ellipse cx="1.43155" cy="2.2572" rx="1.43155" ry="2.2572" transform="matrix(0.842995 0.537922 -0.463011 0.886353 1451.11 524.66)" fill="#6F6F6F"/>
<ellipse cx="1.43155" cy="2.2572" rx="1.43155" ry="2.2572" transform="matrix(0.842995 0.537922 -0.463011 0.886353 1447.11 2003.11)" fill="#6F6F6F"/>
<ellipse cx="1.43155" cy="2.2572" rx="1.43155" ry="2.2572" transform="matrix(0.842995 0.537922 -0.463011 0.886353 1447.11 3468.11)" fill="#6F6F6F"/>
<ellipse cx="1.399" cy="1.53511" rx="1.399" ry="1.53511" transform="matrix(0.978037 0.208432 -0.171866 0.98512 499.297 112.204)" fill="#6F6F6F"/>
<ellipse cx="1.399" cy="1.53511" rx="1.399" ry="1.53511" transform="matrix(0.978037 0.208432 -0.171866 0.98512 495.559 1709.52)" fill="#6F6F6F"/>
<ellipse cx="1.399" cy="1.53511" rx="1.399" ry="1.53511" transform="matrix(0.978037 0.208432 -0.171866 0.98512 491.559 3187.98)" fill="#6F6F6F"/>
<ellipse cx="1.399" cy="1.53511" rx="1.399" ry="1.53511" transform="matrix(0.978037 0.208432 -0.171866 0.98512 491.559 4652.98)" fill="#6F6F6F"/>
<circle cx="1153.5" cy="1097.5" r="1.5" fill="#6F6F6F"/>
<circle cx="1149.5" cy="2575.95" r="1.5" fill="#6F6F6F"/>
<circle cx="1149.5" cy="4040.95" r="1.5" fill="#6F6F6F"/>
<ellipse cx="1.399" cy="1.53511" rx="1.399" ry="1.53511" transform="matrix(0.978037 0.208432 -0.171866 0.98512 83.1953 0)" fill="#6F6F6F"/>
<ellipse cx="1.399" cy="1.53511" rx="1.399" ry="1.53511" transform="matrix(0.978037 0.208432 -0.171866 0.98512 79.457 1597.32)" fill="#6F6F6F"/>
<ellipse cx="1.399" cy="1.53511" rx="1.399" ry="1.53511" transform="matrix(0.978037 0.208432 -0.171866 0.98512 75.457 3075.77)" fill="#6F6F6F"/>
<ellipse cx="1.399" cy="1.53511" rx="1.399" ry="1.53511" transform="matrix(0.978037 0.208432 -0.171866 0.98512 75.457 4540.77)" fill="#6F6F6F"/>
<ellipse cx="1217" cy="881" rx="2" ry="1" fill="#6F6F6F"/>
<ellipse cx="1213" cy="2359.45" rx="2" ry="1" fill="#6F6F6F"/>
<ellipse cx="1213" cy="3824.45" rx="2" ry="1" fill="#6F6F6F"/>
<circle cx="65.5" cy="822.5" r="1.5" fill="#6F6F6F"/>
<circle cx="61.5" cy="2300.95" r="1.5" fill="#6F6F6F"/>
<circle cx="61.5" cy="3765.95" r="1.5" fill="#6F6F6F"/>
<ellipse cx="1.399" cy="1.53511" rx="1.399" ry="1.53511" transform="matrix(0.978037 0.208432 -0.171866 0.98512 316.447 371.25)" fill="#6F6F6F"/>
<ellipse cx="1.399" cy="1.53511" rx="1.399" ry="1.53511" transform="matrix(0.978037 0.208432 -0.171866 0.98512 312.447 1849.71)" fill="#6F6F6F"/>
<ellipse cx="1.399" cy="1.53511" rx="1.399" ry="1.53511" transform="matrix(0.978037 0.208432 -0.171866 0.98512 312.447 3314.71)" fill="#6F6F6F"/>
<ellipse cx="1.40951" cy="1.52546" rx="1.40951" ry="1.52546" transform="matrix(0.935558 -0.353173 0.295257 0.955418 737.402 884.305)" fill="#6F6F6F"/>
<ellipse cx="1.40951" cy="1.52546" rx="1.40951" ry="1.52546" transform="matrix(0.935558 -0.353173 0.295257 0.955418 733.402 2362.76)" fill="#6F6F6F"/>
<ellipse cx="1.40951" cy="1.52546" rx="1.40951" ry="1.52546" transform="matrix(0.935558 -0.353173 0.295257 0.955418 733.402 3827.76)" fill="#6F6F6F"/>
<ellipse cx="1.399" cy="1.53511" rx="1.399" ry="1.53511" transform="matrix(0.978037 0.208432 -0.171866 0.98512 81.1816 27.804)" fill="#6F6F6F"/>
<ellipse cx="1.399" cy="1.53511" rx="1.399" ry="1.53511" transform="matrix(0.978037 0.208432 -0.171866 0.98512 77.4434 1625.12)" fill="#6F6F6F"/>
<ellipse cx="1.399" cy="1.53511" rx="1.399" ry="1.53511" transform="matrix(0.978037 0.208432 -0.171866 0.98512 73.4434 3103.58)" fill="#6F6F6F"/>
<ellipse cx="1.399" cy="1.53511" rx="1.399" ry="1.53511" transform="matrix(0.978037 0.208432 -0.171866 0.98512 73.4434 4568.58)" fill="#6F6F6F"/>
<ellipse cx="1220" cy="911.5" rx="1" ry="2.5" fill="#6F6F6F"/>
<ellipse cx="1216" cy="2389.95" rx="1" ry="2.5" fill="#6F6F6F"/>
<ellipse cx="1216" cy="3854.95" rx="1" ry="2.5" fill="#6F6F6F"/>
<ellipse cx="68" cy="853.5" rx="1" ry="1.5" fill="#6F6F6F"/>
<ellipse cx="64" cy="2331.95" rx="1" ry="1.5" fill="#6F6F6F"/>
<ellipse cx="64" cy="3796.95" rx="1" ry="1.5" fill="#6F6F6F"/>
<ellipse cx="358" cy="459.5" rx="1" ry="1.5" fill="#6F6F6F"/>
<ellipse cx="354" cy="1937.95" rx="1" ry="1.5" fill="#6F6F6F"/>
<ellipse cx="354" cy="3402.95" rx="1" ry="1.5" fill="#6F6F6F"/>
<ellipse cx="1.40951" cy="1.52546" rx="1.40951" ry="1.52546" transform="matrix(0.935558 -0.353173 0.295257 0.955418 748.596 911.001)" fill="#6F6F6F"/>
<ellipse cx="1.40951" cy="1.52546" rx="1.40951" ry="1.52546" transform="matrix(0.935558 -0.353173 0.295257 0.955418 744.596 2389.46)" fill="#6F6F6F"/>
<ellipse cx="1.40951" cy="1.52546" rx="1.40951" ry="1.52546" transform="matrix(0.935558 -0.353173 0.295257 0.955418 744.596 3854.46)" fill="#6F6F6F"/>
<ellipse cx="1.40951" cy="1.52546" rx="1.40951" ry="1.52546" transform="matrix(0.935558 -0.353173 0.295257 0.955418 356.996 868.414)" fill="#6F6F6F"/>
<ellipse cx="1.40951" cy="1.52546" rx="1.40951" ry="1.52546" transform="matrix(0.935558 -0.353173 0.295257 0.955418 352.996 2346.87)" fill="#6F6F6F"/>
<ellipse cx="1.40951" cy="1.52546" rx="1.40951" ry="1.52546" transform="matrix(0.935558 -0.353173 0.295257 0.955418 352.996 3811.87)" fill="#6F6F6F"/>
<circle cx="680" cy="1229" r="1" fill="#6F6F6F"/>
<circle cx="676" cy="2707.45" r="1" fill="#6F6F6F"/>
<circle cx="676" cy="4172.45" r="1" fill="#6F6F6F"/>
<ellipse cx="53.5" cy="545" rx="1.5" ry="1" fill="#6F6F6F"/>
<ellipse cx="49.5" cy="2023.45" rx="1.5" ry="1" fill="#6F6F6F"/>
<ellipse cx="49.5" cy="3488.45" rx="1.5" ry="1" fill="#6F6F6F"/>
<ellipse cx="1.40951" cy="1.52546" rx="1.40951" ry="1.52546" transform="matrix(0.935558 -0.353173 0.295257 0.955418 525.309 865.093)" fill="#6F6F6F"/>
<ellipse cx="1.40951" cy="1.52546" rx="1.40951" ry="1.52546" transform="matrix(0.935558 -0.353173 0.295257 0.955418 521.309 2343.55)" fill="#6F6F6F"/>
<ellipse cx="1.40951" cy="1.52546" rx="1.40951" ry="1.52546" transform="matrix(0.935558 -0.353173 0.295257 0.955418 521.309 3808.55)" fill="#6F6F6F"/>
<ellipse cx="1484.5" cy="1101" rx="1.5" ry="2" fill="#6F6F6F"/>
<ellipse cx="1480.5" cy="2579.45" rx="1.5" ry="2" fill="#6F6F6F"/>
<ellipse cx="1480.5" cy="4044.45" rx="1.5" ry="2" fill="#6F6F6F"/>
<ellipse cx="178.5" cy="774" rx="0.5" ry="2" fill="#6F6F6F"/>
<ellipse cx="174.5" cy="2252.45" rx="0.5" ry="2" fill="#6F6F6F"/>
<ellipse cx="174.5" cy="3717.45" rx="0.5" ry="2" fill="#6F6F6F"/>
<ellipse cx="518" cy="1249" rx="2" ry="1" fill="#6F6F6F"/>
<ellipse cx="514" cy="2727.45" rx="2" ry="1" fill="#6F6F6F"/>
<ellipse cx="514" cy="4192.45" rx="2" ry="1" fill="#6F6F6F"/>
<circle cx="324.5" cy="1011.5" r="1.5" fill="#6F6F6F"/>
<circle cx="320.5" cy="2489.95" r="1.5" fill="#6F6F6F"/>
<circle cx="320.5" cy="3954.95" r="1.5" fill="#6F6F6F"/>
<circle cx="665" cy="1486" r="2" fill="#6F6F6F"/>
<circle cx="661" cy="2964.45" r="2" fill="#6F6F6F"/>
<circle cx="661" cy="4429.45" r="2" fill="#6F6F6F"/>
<ellipse cx="2.11427" cy="3.05093" rx="2.11427" ry="3.05093" transform="matrix(0.935558 -0.353173 0.295257 0.955418 780.848 791.413)" fill="#6F6F6F"/>
<ellipse cx="2.11427" cy="3.05093" rx="2.11427" ry="3.05093" transform="matrix(0.935558 -0.353173 0.295257 0.955418 776.848 2269.87)" fill="#6F6F6F"/>
<ellipse cx="2.11427" cy="3.05093" rx="2.11427" ry="3.05093" transform="matrix(0.935558 -0.353173 0.295257 0.955418 776.848 3734.87)" fill="#6F6F6F"/>
<circle cx="1104.5" cy="1308.5" r="2.5" fill="#6F6F6F"/>
<circle cx="1100.5" cy="2786.95" r="2.5" fill="#6F6F6F"/>
<circle cx="1100.5" cy="4251.95" r="2.5" fill="#6F6F6F"/>
<ellipse cx="1310" cy="944.5" rx="1" ry="1.5" fill="#6F6F6F"/>
<ellipse cx="1306" cy="2422.95" rx="1" ry="1.5" fill="#6F6F6F"/>
<ellipse cx="1306" cy="3887.95" rx="1" ry="1.5" fill="#6F6F6F"/>
<ellipse cx="2.0985" cy="3.07022" rx="2.0985" ry="3.07022" transform="matrix(0.978037 0.208432 -0.171866 0.98512 292.859 270.545)" fill="#6F6F6F"/>
<ellipse cx="2.0985" cy="3.07022" rx="2.0985" ry="3.07022" transform="matrix(0.978037 0.208432 -0.171866 0.98512 288.859 1749)" fill="#6F6F6F"/>
<ellipse cx="2.0985" cy="3.07022" rx="2.0985" ry="3.07022" transform="matrix(0.978037 0.208432 -0.171866 0.98512 288.859 3214)" fill="#6F6F6F"/>
<ellipse cx="2.11427" cy="3.05093" rx="2.11427" ry="3.05093" transform="matrix(0.935558 -0.353173 0.295257 0.955418 671.686 809.837)" fill="#6F6F6F"/>
<ellipse cx="2.11427" cy="3.05093" rx="2.11427" ry="3.05093" transform="matrix(0.935558 -0.353173 0.295257 0.955418 667.686 2288.29)" fill="#6F6F6F"/>
<ellipse cx="2.11427" cy="3.05093" rx="2.11427" ry="3.05093" transform="matrix(0.935558 -0.353173 0.295257 0.955418 667.686 3753.29)" fill="#6F6F6F"/>
<ellipse cx="1.40951" cy="1.52546" rx="1.40951" ry="1.52546" transform="matrix(0.935558 -0.353173 0.295257 0.955418 1073.47 728.145)" fill="#6F6F6F"/>
<ellipse cx="1.40951" cy="1.52546" rx="1.40951" ry="1.52546" transform="matrix(0.935558 -0.353173 0.295257 0.955418 1069.47 2206.6)" fill="#6F6F6F"/>
<ellipse cx="1.40951" cy="1.52546" rx="1.40951" ry="1.52546" transform="matrix(0.935558 -0.353173 0.295257 0.955418 1069.47 3671.6)" fill="#6F6F6F"/>
<ellipse cx="1.399" cy="1.53511" rx="1.399" ry="1.53511" transform="matrix(0.978037 0.208432 -0.171866 0.98512 259.406 340.273)" fill="#6F6F6F"/>
<ellipse cx="1.399" cy="1.53511" rx="1.399" ry="1.53511" transform="matrix(0.978037 0.208432 -0.171866 0.98512 255.406 1818.73)" fill="#6F6F6F"/>
<ellipse cx="1.399" cy="1.53511" rx="1.399" ry="1.53511" transform="matrix(0.978037 0.208432 -0.171866 0.98512 255.406 3283.73)" fill="#6F6F6F"/>
<ellipse cx="1.40951" cy="1.52546" rx="1.40951" ry="1.52546" transform="matrix(0.935558 -0.353173 0.295257 0.955418 673.973 888.719)" fill="#6F6F6F"/>
<ellipse cx="1.40951" cy="1.52546" rx="1.40951" ry="1.52546" transform="matrix(0.935558 -0.353173 0.295257 0.955418 669.973 2367.17)" fill="#6F6F6F"/>
<ellipse cx="1.40951" cy="1.52546" rx="1.40951" ry="1.52546" transform="matrix(0.935558 -0.353173 0.295257 0.955418 669.973 3832.17)" fill="#6F6F6F"/>
<ellipse cx="1.43155" cy="1.5048" rx="1.43155" ry="1.5048" transform="matrix(0.842995 0.537922 -0.463011 0.886353 1421 446.762)" fill="#6F6F6F"/>
<ellipse cx="1.43155" cy="1.5048" rx="1.43155" ry="1.5048" transform="matrix(0.842995 0.537922 -0.463011 0.886353 1417 1925.22)" fill="#6F6F6F"/>
<ellipse cx="1.43155" cy="1.5048" rx="1.43155" ry="1.5048" transform="matrix(0.842995 0.537922 -0.463011 0.886353 1417 3390.22)" fill="#6F6F6F"/>
<ellipse cx="73" cy="1059" rx="1" ry="2" fill="#6F6F6F"/>
<ellipse cx="69" cy="2537.45" rx="1" ry="2" fill="#6F6F6F"/>
<ellipse cx="69" cy="4002.45" rx="1" ry="2" fill="#6F6F6F"/>
<ellipse cx="412" cy="1533.5" rx="1" ry="1.5" fill="#6F6F6F"/>
<ellipse cx="408" cy="3011.95" rx="1" ry="1.5" fill="#6F6F6F"/>
<ellipse cx="408" cy="4476.95" rx="1" ry="1.5" fill="#6F6F6F"/>
<ellipse cx="1.399" cy="1.53511" rx="1.399" ry="1.53511" transform="matrix(0.978037 0.208432 -0.171866 0.98512 773.758 255.394)" fill="#6F6F6F"/>
<ellipse cx="1447.5" cy="1181" rx="1.5" ry="2" fill="#6F6F6F"/>
<ellipse cx="1443.5" cy="2659.45" rx="1.5" ry="2" fill="#6F6F6F"/>
<ellipse cx="1443.5" cy="4124.45" rx="1.5" ry="2" fill="#6F6F6F"/>
<ellipse cx="1.40951" cy="1.52546" rx="1.40951" ry="1.52546" transform="matrix(0.935558 -0.353173 0.295257 0.955418 1082.3 532.768)" fill="#6F6F6F"/>
<ellipse cx="1.40951" cy="1.52546" rx="1.40951" ry="1.52546" transform="matrix(0.935558 -0.353173 0.295257 0.955418 1078.3 2011.22)" fill="#6F6F6F"/>
<ellipse cx="1.40951" cy="1.52546" rx="1.40951" ry="1.52546" transform="matrix(0.935558 -0.353173 0.295257 0.955418 1078.3 3476.22)" fill="#6F6F6F"/>
<ellipse cx="78.5" cy="557" rx="2.5" ry="2" fill="#6F6F6F"/>
<ellipse cx="74.5" cy="2035.45" rx="2.5" ry="2" fill="#6F6F6F"/>
<ellipse cx="74.5" cy="3500.45" rx="2.5" ry="2" fill="#6F6F6F"/>
<ellipse cx="2.11427" cy="1.52546" rx="2.11427" ry="1.52546" transform="matrix(0.935558 -0.353173 0.295257 0.955418 552.65 867.792)" fill="#6F6F6F"/>
<ellipse cx="2.11427" cy="1.52546" rx="2.11427" ry="1.52546" transform="matrix(0.935558 -0.353173 0.295257 0.955418 548.65 2346.25)" fill="#6F6F6F"/>
<ellipse cx="2.11427" cy="1.52546" rx="2.11427" ry="1.52546" transform="matrix(0.935558 -0.353173 0.295257 0.955418 548.65 3811.25)" fill="#6F6F6F"/>
<ellipse cx="1510" cy="1113" rx="2" ry="1" fill="#6F6F6F"/>
<ellipse cx="1506" cy="2591.45" rx="2" ry="1" fill="#6F6F6F"/>
<ellipse cx="1506" cy="4056.45" rx="2" ry="1" fill="#6F6F6F"/>
<ellipse cx="2.11427" cy="1.52546" rx="2.11427" ry="1.52546" transform="matrix(0.935558 -0.353173 0.295257 0.955418 237.225 947.805)" fill="#6F6F6F"/>
<ellipse cx="2.11427" cy="1.52546" rx="2.11427" ry="1.52546" transform="matrix(0.935558 -0.353173 0.295257 0.955418 233.225 2426.26)" fill="#6F6F6F"/>
<ellipse cx="2.11427" cy="1.52546" rx="2.11427" ry="1.52546" transform="matrix(0.935558 -0.353173 0.295257 0.955418 233.225 3891.26)" fill="#6F6F6F"/>
<ellipse cx="544" cy="1261.5" rx="2" ry="1.5" fill="#6F6F6F"/>
<ellipse cx="540" cy="2739.95" rx="2" ry="1.5" fill="#6F6F6F"/>
<ellipse cx="540" cy="4204.95" rx="2" ry="1.5" fill="#6F6F6F"/>
<ellipse cx="1.40951" cy="2.28819" rx="1.40951" ry="2.28819" transform="matrix(0.935558 -0.353173 0.295257 0.955418 583.197 756.984)" fill="#6F6F6F"/>
<ellipse cx="1.40951" cy="2.28819" rx="1.40951" ry="2.28819" transform="matrix(0.935558 -0.353173 0.295257 0.955418 579.197 2235.44)" fill="#6F6F6F"/>
<ellipse cx="1.40951" cy="2.28819" rx="1.40951" ry="2.28819" transform="matrix(0.935558 -0.353173 0.295257 0.955418 579.197 3700.44)" fill="#6F6F6F"/>
<ellipse cx="926.5" cy="1204.5" rx="1.5" ry="2.5" fill="#6F6F6F"/>
<ellipse cx="922.5" cy="2682.95" rx="1.5" ry="2.5" fill="#6F6F6F"/>
<ellipse cx="922.5" cy="4147.95" rx="1.5" ry="2.5" fill="#6F6F6F"/>
<ellipse cx="1.399" cy="1.53511" rx="1.399" ry="1.53511" transform="matrix(0.978037 0.208432 -0.171866 0.98512 264.684 310.027)" fill="#6F6F6F"/>
<ellipse cx="1.399" cy="1.53511" rx="1.399" ry="1.53511" transform="matrix(0.978037 0.208432 -0.171866 0.98512 260.684 1788.48)" fill="#6F6F6F"/>
<ellipse cx="1.399" cy="1.53511" rx="1.399" ry="1.53511" transform="matrix(0.978037 0.208432 -0.171866 0.98512 260.684 3253.48)" fill="#6F6F6F"/>
<ellipse cx="1.40951" cy="1.52546" rx="1.40951" ry="1.52546" transform="matrix(0.935558 -0.353173 0.295257 0.955418 664.965 859.57)" fill="#6F6F6F"/>
<ellipse cx="1.40951" cy="1.52546" rx="1.40951" ry="1.52546" transform="matrix(0.935558 -0.353173 0.295257 0.955418 660.965 2338.02)" fill="#6F6F6F"/>
<ellipse cx="1.40951" cy="1.52546" rx="1.40951" ry="1.52546" transform="matrix(0.935558 -0.353173 0.295257 0.955418 660.965 3803.02)" fill="#6F6F6F"/>
<ellipse cx="1.43155" cy="1.5048" rx="1.43155" ry="1.5048" transform="matrix(0.842995 0.537922 -0.463011 0.886353 1434.94 420.087)" fill="#6F6F6F"/>
<ellipse cx="1.43155" cy="1.5048" rx="1.43155" ry="1.5048" transform="matrix(0.842995 0.537922 -0.463011 0.886353 1430.94 1898.54)" fill="#6F6F6F"/>
<ellipse cx="1.43155" cy="1.5048" rx="1.43155" ry="1.5048" transform="matrix(0.842995 0.537922 -0.463011 0.886353 1430.94 3363.54)" fill="#6F6F6F"/>
<ellipse cx="1.399" cy="1.53511" rx="1.399" ry="1.53511" transform="matrix(0.978037 0.208432 -0.171866 0.98512 779.561 222.124)" fill="#6F6F6F"/>
<circle cx="1447.5" cy="1147.5" r="1.5" fill="#6F6F6F"/>
<circle cx="1443.5" cy="2625.95" r="1.5" fill="#6F6F6F"/>
<circle cx="1443.5" cy="4090.95" r="1.5" fill="#6F6F6F"/>
<ellipse cx="1.40951" cy="1.52546" rx="1.40951" ry="1.52546" transform="matrix(0.935558 -0.353173 0.295257 0.955418 1072.39 500.704)" fill="#6F6F6F"/>
<ellipse cx="1.40951" cy="1.52546" rx="1.40951" ry="1.52546" transform="matrix(0.935558 -0.353173 0.295257 0.955418 1068.39 1979.16)" fill="#6F6F6F"/>
<ellipse cx="1.40951" cy="1.52546" rx="1.40951" ry="1.52546" transform="matrix(0.935558 -0.353173 0.295257 0.955418 1068.39 3444.16)" fill="#6F6F6F"/>
<ellipse cx="1.40951" cy="1.52546" rx="1.40951" ry="1.52546" transform="matrix(0.935558 -0.353173 0.295257 0.955418 573.738 726.377)" fill="#6F6F6F"/>
<ellipse cx="1.40951" cy="1.52546" rx="1.40951" ry="1.52546" transform="matrix(0.935558 -0.353173 0.295257 0.955418 569.738 2204.83)" fill="#6F6F6F"/>
<ellipse cx="1.40951" cy="1.52546" rx="1.40951" ry="1.52546" transform="matrix(0.935558 -0.353173 0.295257 0.955418 569.738 3669.83)" fill="#6F6F6F"/>
<circle cx="926.5" cy="1171.5" r="1.5" fill="#6F6F6F"/>
<circle cx="922.5" cy="2649.95" r="1.5" fill="#6F6F6F"/>
<circle cx="922.5" cy="4114.95" r="1.5" fill="#6F6F6F"/>
<ellipse cx="2.0985" cy="3.07022" rx="2.0985" ry="3.07022" transform="matrix(0.978037 0.208432 -0.171866 0.98512 329.424 305.002)" fill="#6F6F6F"/>
<ellipse cx="2.0985" cy="3.07022" rx="2.0985" ry="3.07022" transform="matrix(0.978037 0.208432 -0.171866 0.98512 325.424 1783.46)" fill="#6F6F6F"/>
<ellipse cx="2.0985" cy="3.07022" rx="2.0985" ry="3.07022" transform="matrix(0.978037 0.208432 -0.171866 0.98512 325.424 3248.46)" fill="#6F6F6F"/>
<ellipse cx="2.11427" cy="3.05093" rx="2.11427" ry="3.05093" transform="matrix(0.935558 -0.353173 0.295257 0.955418 718.9 819.679)" fill="#6F6F6F"/>
<ellipse cx="2.11427" cy="3.05093" rx="2.11427" ry="3.05093" transform="matrix(0.935558 -0.353173 0.295257 0.955418 714.9 2298.13)" fill="#6F6F6F"/>
<ellipse cx="2.11427" cy="3.05093" rx="2.11427" ry="3.05093" transform="matrix(0.935558 -0.353173 0.295257 0.955418 714.9 3763.13)" fill="#6F6F6F"/>
<ellipse cx="1.399" cy="1.53511" rx="1.399" ry="1.53511" transform="matrix(0.978037 0.208432 -0.171866 0.98512 262.672 337.831)" fill="#6F6F6F"/>
<ellipse cx="1.399" cy="1.53511" rx="1.399" ry="1.53511" transform="matrix(0.978037 0.208432 -0.171866 0.98512 258.672 1816.29)" fill="#6F6F6F"/>
<ellipse cx="1.399" cy="1.53511" rx="1.399" ry="1.53511" transform="matrix(0.978037 0.208432 -0.171866 0.98512 258.672 3281.29)" fill="#6F6F6F"/>
<ellipse cx="1.40951" cy="1.52546" rx="1.40951" ry="1.52546" transform="matrix(0.935558 -0.353173 0.295257 0.955418 675.711 884.809)" fill="#6F6F6F"/>
<ellipse cx="1.40951" cy="1.52546" rx="1.40951" ry="1.52546" transform="matrix(0.935558 -0.353173 0.295257 0.955418 671.711 2363.26)" fill="#6F6F6F"/>
<ellipse cx="1.40951" cy="1.52546" rx="1.40951" ry="1.52546" transform="matrix(0.935558 -0.353173 0.295257 0.955418 671.711 3828.26)" fill="#6F6F6F"/>
<ellipse cx="1.43155" cy="1.5048" rx="1.43155" ry="1.5048" transform="matrix(0.842995 0.537922 -0.463011 0.886353 1424.81 445.635)" fill="#6F6F6F"/>
<ellipse cx="1.43155" cy="1.5048" rx="1.43155" ry="1.5048" transform="matrix(0.842995 0.537922 -0.463011 0.886353 1420.81 1924.09)" fill="#6F6F6F"/>
<ellipse cx="1.43155" cy="1.5048" rx="1.43155" ry="1.5048" transform="matrix(0.842995 0.537922 -0.463011 0.886353 1420.81 3389.09)" fill="#6F6F6F"/>
<ellipse cx="1.40951" cy="1.52546" rx="1.40951" ry="1.52546" transform="matrix(0.935558 -0.353173 0.295257 0.955418 1099.04 729.884)" fill="#6F6F6F"/>
<ellipse cx="1.40951" cy="1.52546" rx="1.40951" ry="1.52546" transform="matrix(0.935558 -0.353173 0.295257 0.955418 1095.04 2208.34)" fill="#6F6F6F"/>
<ellipse cx="1.40951" cy="1.52546" rx="1.40951" ry="1.52546" transform="matrix(0.935558 -0.353173 0.295257 0.955418 1095.04 3673.34)" fill="#6F6F6F"/>
<ellipse cx="1.399" cy="1.53511" rx="1.399" ry="1.53511" transform="matrix(0.978037 0.208432 -0.171866 0.98512 777.021 252.952)" fill="#6F6F6F"/>
<circle cx="1450" cy="1178" r="1" fill="#6F6F6F"/>
<circle cx="1446" cy="2656.45" r="1" fill="#6F6F6F"/>
<circle cx="1446" cy="4121.45" r="1" fill="#6F6F6F"/>
<ellipse cx="1.40951" cy="1.52546" rx="1.40951" ry="1.52546" transform="matrix(0.935558 -0.353173 0.295257 0.955418 584.934 753.073)" fill="#6F6F6F"/>
<ellipse cx="1.40951" cy="1.52546" rx="1.40951" ry="1.52546" transform="matrix(0.935558 -0.353173 0.295257 0.955418 580.934 2231.53)" fill="#6F6F6F"/>
<ellipse cx="1.40951" cy="1.52546" rx="1.40951" ry="1.52546" transform="matrix(0.935558 -0.353173 0.295257 0.955418 580.934 3696.53)" fill="#6F6F6F"/>
<ellipse cx="929.5" cy="1201" rx="1.5" ry="1" fill="#6F6F6F"/>
<ellipse cx="925.5" cy="2679.45" rx="1.5" ry="1" fill="#6F6F6F"/>
<ellipse cx="925.5" cy="4144.45" rx="1.5" ry="1" fill="#6F6F6F"/>
<ellipse cx="1.399" cy="1.53511" rx="1.399" ry="1.53511" transform="matrix(0.978037 0.208432 -0.171866 0.98512 532.824 229.144)" fill="#6F6F6F"/>
<ellipse cx="1206.5" cy="1206" rx="1.5" ry="1" fill="#6F6F6F"/>
<ellipse cx="1202.5" cy="2684.45" rx="1.5" ry="1" fill="#6F6F6F"/>
<ellipse cx="1202.5" cy="4149.45" rx="1.5" ry="1" fill="#6F6F6F"/>
<ellipse cx="1.40951" cy="1.52546" rx="1.40951" ry="1.52546" transform="matrix(0.935558 -0.353173 0.295257 0.955418 834.35 554.76)" fill="#6F6F6F"/>
<ellipse cx="1.40951" cy="1.52546" rx="1.40951" ry="1.52546" transform="matrix(0.935558 -0.353173 0.295257 0.955418 830.35 2033.21)" fill="#6F6F6F"/>
<ellipse cx="1.40951" cy="1.52546" rx="1.40951" ry="1.52546" transform="matrix(0.935558 -0.353173 0.295257 0.955418 830.35 3498.21)" fill="#6F6F6F"/>
<ellipse cx="1.41397" cy="1.52133" rx="1.41397" ry="1.52133" transform="matrix(0.917244 -0.398326 0.334967 0.94223 845.787 392.786)" fill="#6F6F6F"/>
<ellipse cx="1.41397" cy="1.52133" rx="1.41397" ry="1.52133" transform="matrix(0.917244 -0.398326 0.334967 0.94223 841.787 1871.24)" fill="#6F6F6F"/>
<ellipse cx="1.41397" cy="1.52133" rx="1.41397" ry="1.52133" transform="matrix(0.917244 -0.398326 0.334967 0.94223 841.787 3336.24)" fill="#6F6F6F"/>
<ellipse cx="1.399" cy="1.53511" rx="1.399" ry="1.53511" transform="matrix(0.978037 0.208432 -0.171866 0.98512 102.949 187.724)" fill="#6F6F6F"/>
<ellipse cx="1.40951" cy="1.52546" rx="1.40951" ry="1.52546" transform="matrix(0.935558 -0.353173 0.295257 0.955418 469.633 842.169)" fill="#6F6F6F"/>
<ellipse cx="1.40951" cy="1.52546" rx="1.40951" ry="1.52546" transform="matrix(0.935558 -0.353173 0.295257 0.955418 465.633 2320.62)" fill="#6F6F6F"/>
<ellipse cx="1.40951" cy="1.52546" rx="1.40951" ry="1.52546" transform="matrix(0.935558 -0.353173 0.295257 0.955418 465.633 3785.62)" fill="#6F6F6F"/>
<circle cx="1438" cy="1059" r="2" fill="#6F6F6F"/>
<circle cx="1434" cy="2537.45" r="2" fill="#6F6F6F"/>
<circle cx="1434" cy="4002.45" r="2" fill="#6F6F6F"/>
<ellipse cx="1.41397" cy="1.52133" rx="1.41397" ry="1.52133" transform="matrix(0.917244 -0.398326 0.334967 0.94223 834.574 361.25)" fill="#6F6F6F"/>
<ellipse cx="1.41397" cy="1.52133" rx="1.41397" ry="1.52133" transform="matrix(0.917244 -0.398326 0.334967 0.94223 830.574 1839.71)" fill="#6F6F6F"/>
<ellipse cx="1.41397" cy="1.52133" rx="1.41397" ry="1.52133" transform="matrix(0.917244 -0.398326 0.334967 0.94223 830.574 3304.71)" fill="#6F6F6F"/>
<ellipse cx="1.5376" cy="1.39626" rx="1.5376" ry="1.39626" transform="matrix(0.12168 -0.992569 0.988972 0.148099 743.32 501.768)" fill="#6F6F6F"/>
<ellipse cx="1.5376" cy="1.39626" rx="1.5376" ry="1.39626" transform="matrix(0.12168 -0.992569 0.988972 0.148099 739.32 1980.22)" fill="#6F6F6F"/>
<ellipse cx="1.5376" cy="1.39626" rx="1.5376" ry="1.39626" transform="matrix(0.12168 -0.992569 0.988972 0.148099 739.32 3445.22)" fill="#6F6F6F"/>
<ellipse cx="1393" cy="1424.5" rx="2" ry="1.5" fill="#6F6F6F"/>
<ellipse cx="1389" cy="2902.95" rx="2" ry="1.5" fill="#6F6F6F"/>
<ellipse cx="1389" cy="4367.95" rx="2" ry="1.5" fill="#6F6F6F"/>
<ellipse cx="1286" cy="40" rx="1" ry="2" fill="#6F6F6F"/>
<ellipse cx="1282.5" cy="1638" rx="0.5" ry="2" fill="#6F6F6F"/>
<ellipse cx="1278.5" cy="3116.45" rx="0.5" ry="2" fill="#6F6F6F"/>
<ellipse cx="1278.5" cy="4581.45" rx="0.5" ry="2" fill="#6F6F6F"/>
<ellipse cx="1.52417" cy="1.41091" rx="1.52417" ry="1.41091" transform="matrix(0.308202 -0.951321 0.929834 0.36798 879.676 583.056)" fill="#6F6F6F"/>
<ellipse cx="1.52417" cy="1.41091" rx="1.52417" ry="1.41091" transform="matrix(0.308202 -0.951321 0.929834 0.36798 875.676 2061.51)" fill="#6F6F6F"/>
<ellipse cx="1.52417" cy="1.41091" rx="1.52417" ry="1.41091" transform="matrix(0.308202 -0.951321 0.929834 0.36798 875.676 3526.51)" fill="#6F6F6F"/>
<ellipse cx="1.41397" cy="2.282" rx="1.41397" ry="2.282" transform="matrix(0.917244 -0.398326 0.334967 0.94223 846.852 387.359)" fill="#6F6F6F"/>
<ellipse cx="1.41397" cy="2.282" rx="1.41397" ry="2.282" transform="matrix(0.917244 -0.398326 0.334967 0.94223 842.852 1865.81)" fill="#6F6F6F"/>
<ellipse cx="1.41397" cy="2.282" rx="1.41397" ry="2.282" transform="matrix(0.917244 -0.398326 0.334967 0.94223 842.852 3330.81)" fill="#6F6F6F"/>
<ellipse cx="1.40951" cy="1.52546" rx="1.40951" ry="1.52546" transform="matrix(0.935558 -0.353173 0.295257 0.955418 361.646 707.165)" fill="#6F6F6F"/>
<ellipse cx="1.40951" cy="1.52546" rx="1.40951" ry="1.52546" transform="matrix(0.935558 -0.353173 0.295257 0.955418 357.646 2185.62)" fill="#6F6F6F"/>
<ellipse cx="1.40951" cy="1.52546" rx="1.40951" ry="1.52546" transform="matrix(0.935558 -0.353173 0.295257 0.955418 357.646 3650.62)" fill="#6F6F6F"/>
<ellipse cx="1055" cy="1562.5" rx="1" ry="1.5" fill="#6F6F6F"/>
<ellipse cx="1051" cy="3040.95" rx="1" ry="1.5" fill="#6F6F6F"/>
<ellipse cx="1051" cy="4505.95" rx="1" ry="1.5" fill="#6F6F6F"/>
<ellipse cx="731" cy="1077.5" rx="1" ry="1.5" fill="#6F6F6F"/>
<ellipse cx="727" cy="2555.95" rx="1" ry="1.5" fill="#6F6F6F"/>
<ellipse cx="727" cy="4020.95" rx="1" ry="1.5" fill="#6F6F6F"/>
<ellipse cx="1.43155" cy="1.5048" rx="1.43155" ry="1.5048" transform="matrix(0.842995 0.537922 -0.463011 0.886353 1419.08 666.056)" fill="#6F6F6F"/>
<ellipse cx="1.43155" cy="1.5048" rx="1.43155" ry="1.5048" transform="matrix(0.842995 0.537922 -0.463011 0.886353 1415.08 2144.51)" fill="#6F6F6F"/>
<ellipse cx="1.43155" cy="1.5048" rx="1.43155" ry="1.5048" transform="matrix(0.842995 0.537922 -0.463011 0.886353 1415.08 3609.51)" fill="#6F6F6F"/>
<ellipse cx="131" cy="699" rx="2" ry="1" fill="#6F6F6F"/>
<ellipse cx="127" cy="2177.45" rx="2" ry="1" fill="#6F6F6F"/>
<ellipse cx="127" cy="3642.45" rx="2" ry="1" fill="#6F6F6F"/>
<ellipse cx="471" cy="1173.5" rx="2" ry="1.5" fill="#6F6F6F"/>
<ellipse cx="467" cy="2651.95" rx="2" ry="1.5" fill="#6F6F6F"/>
<ellipse cx="467" cy="4116.95" rx="2" ry="1.5" fill="#6F6F6F"/>
<ellipse cx="409.5" cy="1041" rx="1.5" ry="1" fill="#6F6F6F"/>
<ellipse cx="405.5" cy="2519.45" rx="1.5" ry="1" fill="#6F6F6F"/>
<ellipse cx="405.5" cy="3984.45" rx="1.5" ry="1" fill="#6F6F6F"/>
<circle cx="749.5" cy="1515.5" r="1.5" fill="#6F6F6F"/>
<circle cx="745.5" cy="2993.95" r="1.5" fill="#6F6F6F"/>
<circle cx="745.5" cy="4458.95" r="1.5" fill="#6F6F6F"/>
<ellipse cx="120.5" cy="902" rx="1.5" ry="1" fill="#6F6F6F"/>
<ellipse cx="116.5" cy="2380.45" rx="1.5" ry="1" fill="#6F6F6F"/>
<ellipse cx="116.5" cy="3845.45" rx="1.5" ry="1" fill="#6F6F6F"/>
<ellipse cx="465.5" cy="1549" rx="1.5" ry="1" fill="#6F6F6F"/>
<ellipse cx="461.5" cy="3027.45" rx="1.5" ry="1" fill="#6F6F6F"/>
<ellipse cx="461.5" cy="4492.45" rx="1.5" ry="1" fill="#6F6F6F"/>
<ellipse cx="1.399" cy="1.53511" rx="1.399" ry="1.53511" transform="matrix(0.978037 0.208432 -0.171866 0.98512 1036.2 443.076)" fill="#6F6F6F"/>
<ellipse cx="1.399" cy="1.53511" rx="1.399" ry="1.53511" transform="matrix(0.978037 0.208432 -0.171866 0.98512 1032.2 1921.53)" fill="#6F6F6F"/>
<ellipse cx="1.399" cy="1.53511" rx="1.399" ry="1.53511" transform="matrix(0.978037 0.208432 -0.171866 0.98512 1032.2 3386.53)" fill="#6F6F6F"/>
<ellipse cx="1.399" cy="1.53511" rx="1.399" ry="1.53511" transform="matrix(0.978037 0.208432 -0.171866 0.98512 386.922 16.1047)" fill="#6F6F6F"/>
<ellipse cx="1.399" cy="1.53511" rx="1.399" ry="1.53511" transform="matrix(0.978037 0.208432 -0.171866 0.98512 383.184 1613.42)" fill="#6F6F6F"/>
<ellipse cx="1.399" cy="1.53511" rx="1.399" ry="1.53511" transform="matrix(0.978037 0.208432 -0.171866 0.98512 379.184 3091.88)" fill="#6F6F6F"/>
<ellipse cx="1.399" cy="1.53511" rx="1.399" ry="1.53511" transform="matrix(0.978037 0.208432 -0.171866 0.98512 379.184 4556.88)" fill="#6F6F6F"/>
<ellipse cx="1.47356" cy="1.46369" rx="1.47356" ry="1.46369" transform="matrix(0.645759 -0.763541 0.695499 0.718527 153.307 941.474)" fill="#6F6F6F"/>
<ellipse cx="1.47356" cy="1.46369" rx="1.47356" ry="1.46369" transform="matrix(0.645759 -0.763541 0.695499 0.718527 149.307 2419.93)" fill="#6F6F6F"/>
<ellipse cx="1.47356" cy="1.46369" rx="1.47356" ry="1.46369" transform="matrix(0.645759 -0.763541 0.695499 0.718527 149.307 3884.93)" fill="#6F6F6F"/>
<ellipse cx="496.5" cy="1564" rx="0.5" ry="1" fill="#6F6F6F"/>
<ellipse cx="492.5" cy="3042.45" rx="0.5" ry="1" fill="#6F6F6F"/>
<ellipse cx="492.5" cy="4507.45" rx="0.5" ry="1" fill="#6F6F6F"/>
<ellipse cx="1.41397" cy="1.52133" rx="1.41397" ry="1.52133" transform="matrix(0.917244 -0.398326 0.334967 0.94223 842.355 311.539)" fill="#6F6F6F"/>
<ellipse cx="1.41397" cy="1.52133" rx="1.41397" ry="1.52133" transform="matrix(0.917244 -0.398326 0.334967 0.94223 838.355 1789.99)" fill="#6F6F6F"/>
<ellipse cx="1.41397" cy="1.52133" rx="1.41397" ry="1.52133" transform="matrix(0.917244 -0.398326 0.334967 0.94223 838.355 3254.99)" fill="#6F6F6F"/>
<ellipse cx="2.11427" cy="3.05093" rx="2.11427" ry="3.05093" transform="matrix(0.935558 -0.353173 0.295257 0.955418 639.668 634.762)" fill="#6F6F6F"/>
<ellipse cx="2.11427" cy="3.05093" rx="2.11427" ry="3.05093" transform="matrix(0.935558 -0.353173 0.295257 0.955418 635.668 2113.22)" fill="#6F6F6F"/>
<ellipse cx="2.11427" cy="3.05093" rx="2.11427" ry="3.05093" transform="matrix(0.935558 -0.353173 0.295257 0.955418 635.668 3578.22)" fill="#6F6F6F"/>
<ellipse cx="1017" cy="1110" rx="2" ry="3" fill="#6F6F6F"/>
<ellipse cx="1013" cy="2588.45" rx="2" ry="3" fill="#6F6F6F"/>
<ellipse cx="1013" cy="4053.45" rx="2" ry="3" fill="#6F6F6F"/>
<ellipse cx="2.11427" cy="3.05093" rx="2.11427" ry="3.05093" transform="matrix(0.935558 -0.353173 0.295257 0.955418 508.021 651.909)" fill="#6F6F6F"/>
<ellipse cx="2.11427" cy="3.05093" rx="2.11427" ry="3.05093" transform="matrix(0.935558 -0.353173 0.295257 0.955418 504.021 2130.36)" fill="#6F6F6F"/>
<ellipse cx="2.11427" cy="3.05093" rx="2.11427" ry="3.05093" transform="matrix(0.935558 -0.353173 0.295257 0.955418 504.021 3595.36)" fill="#6F6F6F"/>
<ellipse cx="1210" cy="1564.5" rx="2" ry="3.5" fill="#6F6F6F"/>
<ellipse cx="1206" cy="3042.95" rx="2" ry="3.5" fill="#6F6F6F"/>
<ellipse cx="1206" cy="4507.95" rx="2" ry="3.5" fill="#6F6F6F"/>
<ellipse cx="887.5" cy="1079.5" rx="2.5" ry="3.5" fill="#6F6F6F"/>
<ellipse cx="883.5" cy="2557.95" rx="2.5" ry="3.5" fill="#6F6F6F"/>
<ellipse cx="883.5" cy="4022.95" rx="2.5" ry="3.5" fill="#6F6F6F"/>
<ellipse cx="1.5258" cy="1.40915" rx="1.5258" ry="1.40915" transform="matrix(0.291751 -0.956494 0.937067 0.349149 716.418 473.272)" fill="#6F6F6F"/>
<ellipse cx="1.5258" cy="1.40915" rx="1.5258" ry="1.40915" transform="matrix(0.291751 -0.956494 0.937067 0.349149 712.418 1951.73)" fill="#6F6F6F"/>
<ellipse cx="1.5258" cy="1.40915" rx="1.5258" ry="1.40915" transform="matrix(0.291751 -0.956494 0.937067 0.349149 712.418 3416.73)" fill="#6F6F6F"/>
<ellipse cx="1445" cy="1439.5" rx="1" ry="1.5" fill="#6F6F6F"/>
<ellipse cx="1441" cy="2917.95" rx="1" ry="1.5" fill="#6F6F6F"/>
<ellipse cx="1441" cy="4382.95" rx="1" ry="1.5" fill="#6F6F6F"/>
<circle cx="1339" cy="55" r="2" fill="#6F6F6F"/>
<circle cx="1335" cy="1653" r="2" fill="#6F6F6F"/>
<circle cx="1331" cy="3131.45" r="2" fill="#6F6F6F"/>
<circle cx="1331" cy="4596.45" r="2" fill="#6F6F6F"/>
<ellipse cx="1.52417" cy="1.41091" rx="1.52417" ry="1.41091" transform="matrix(0.308202 -0.951321 0.929834 0.36798 910.645 533.149)" fill="#6F6F6F"/>
<ellipse cx="1.52417" cy="1.41091" rx="1.52417" ry="1.41091" transform="matrix(0.308202 -0.951321 0.929834 0.36798 906.645 2011.6)" fill="#6F6F6F"/>
<ellipse cx="1.52417" cy="1.41091" rx="1.52417" ry="1.41091" transform="matrix(0.308202 -0.951321 0.929834 0.36798 906.645 3476.6)" fill="#6F6F6F"/>
<ellipse cx="1.399" cy="1.53511" rx="1.399" ry="1.53511" transform="matrix(0.978037 0.208432 -0.171866 0.98512 898.455 223.934)" fill="#6F6F6F"/>
<ellipse cx="1.399" cy="1.53511" rx="1.399" ry="1.53511" transform="matrix(0.978037 0.208432 -0.171866 0.98512 124.365 203.267)" fill="#6F6F6F"/>
<ellipse cx="1.40951" cy="1.52546" rx="1.40951" ry="1.52546" transform="matrix(0.935558 -0.353173 0.295257 0.955418 495.203 843.909)" fill="#6F6F6F"/>
<ellipse cx="1.40951" cy="1.52546" rx="1.40951" ry="1.52546" transform="matrix(0.935558 -0.353173 0.295257 0.955418 491.203 2322.36)" fill="#6F6F6F"/>
<ellipse cx="1.40951" cy="1.52546" rx="1.40951" ry="1.52546" transform="matrix(0.935558 -0.353173 0.295257 0.955418 491.203 3787.36)" fill="#6F6F6F"/>
<circle cx="1462.5" cy="1070.5" r="1.5" fill="#6F6F6F"/>
<circle cx="1458.5" cy="2548.95" r="1.5" fill="#6F6F6F"/>
<circle cx="1458.5" cy="4013.95" r="1.5" fill="#6F6F6F"/>
<ellipse cx="1.5376" cy="1.39626" rx="1.5376" ry="1.39626" transform="matrix(0.12168 -0.992569 0.988972 0.148099 756.168 477.27)" fill="#6F6F6F"/>
<ellipse cx="1.5376" cy="1.39626" rx="1.5376" ry="1.39626" transform="matrix(0.12168 -0.992569 0.988972 0.148099 752.168 1955.72)" fill="#6F6F6F"/>
<ellipse cx="1.5376" cy="1.39626" rx="1.5376" ry="1.39626" transform="matrix(0.12168 -0.992569 0.988972 0.148099 752.168 3420.72)" fill="#6F6F6F"/>
<ellipse cx="1415.5" cy="1435" rx="0.5" ry="2" fill="#6F6F6F"/>
<ellipse cx="1411.5" cy="2913.45" rx="0.5" ry="2" fill="#6F6F6F"/>
<ellipse cx="1411.5" cy="4378.45" rx="0.5" ry="2" fill="#6F6F6F"/>
<ellipse cx="1310" cy="50.5" rx="1" ry="1.5" fill="#6F6F6F"/>
<ellipse cx="1306" cy="1648.5" rx="1" ry="1.5" fill="#6F6F6F"/>
<ellipse cx="1302" cy="3126.95" rx="1" ry="1.5" fill="#6F6F6F"/>
<ellipse cx="1302" cy="4591.95" rx="1" ry="1.5" fill="#6F6F6F"/>
<ellipse cx="1.52417" cy="1.41091" rx="1.52417" ry="1.41091" transform="matrix(0.308202 -0.951321 0.929834 0.36798 896.844 562.041)" fill="#6F6F6F"/>
<ellipse cx="1.52417" cy="1.41091" rx="1.52417" ry="1.41091" transform="matrix(0.308202 -0.951321 0.929834 0.36798 892.844 2040.5)" fill="#6F6F6F"/>
<ellipse cx="1.52417" cy="1.41091" rx="1.52417" ry="1.41091" transform="matrix(0.308202 -0.951321 0.929834 0.36798 892.844 3505.5)" fill="#6F6F6F"/>
<ellipse cx="2.11427" cy="1.52546" rx="2.11427" ry="1.52546" transform="matrix(0.935558 -0.353173 0.295257 0.955418 388.986 709.865)" fill="#6F6F6F"/>
<ellipse cx="2.11427" cy="1.52546" rx="2.11427" ry="1.52546" transform="matrix(0.935558 -0.353173 0.295257 0.955418 384.986 2188.32)" fill="#6F6F6F"/>
<ellipse cx="2.11427" cy="1.52546" rx="2.11427" ry="1.52546" transform="matrix(0.935558 -0.353173 0.295257 0.955418 384.986 3653.32)" fill="#6F6F6F"/>
<ellipse cx="758" cy="1090" rx="2" ry="1" fill="#6F6F6F"/>
<ellipse cx="754" cy="2568.45" rx="2" ry="1" fill="#6F6F6F"/>
<ellipse cx="754" cy="4033.45" rx="2" ry="1" fill="#6F6F6F"/>
<ellipse cx="2.14733" cy="1.5048" rx="2.14733" ry="1.5048" transform="matrix(0.842995 0.537922 -0.463011 0.886353 1435.23 690.588)" fill="#6F6F6F"/>
<ellipse cx="2.14733" cy="1.5048" rx="2.14733" ry="1.5048" transform="matrix(0.842995 0.537922 -0.463011 0.886353 1431.23 2169.04)" fill="#6F6F6F"/>
<ellipse cx="2.14733" cy="1.5048" rx="2.14733" ry="1.5048" transform="matrix(0.842995 0.537922 -0.463011 0.886353 1431.23 3634.04)" fill="#6F6F6F"/>
<ellipse cx="1.399" cy="1.53511" rx="1.399" ry="1.53511" transform="matrix(0.978037 0.208432 -0.171866 0.98512 903.73 193.688)" fill="#6F6F6F"/>
<circle cx="154.5" cy="709.5" r="1.5" fill="#6F6F6F"/>
<circle cx="150.5" cy="2187.95" r="1.5" fill="#6F6F6F"/>
<circle cx="150.5" cy="3652.95" r="1.5" fill="#6F6F6F"/>
<circle cx="495" cy="1184" r="1" fill="#6F6F6F"/>
<circle cx="491" cy="2662.45" r="1" fill="#6F6F6F"/>
<circle cx="491" cy="4127.45" r="1" fill="#6F6F6F"/>
<ellipse cx="1.40951" cy="1.52546" rx="1.40951" ry="1.52546" transform="matrix(0.935558 -0.353173 0.295257 0.955418 840.742 456.325)" fill="#6F6F6F"/>
<ellipse cx="1.40951" cy="1.52546" rx="1.40951" ry="1.52546" transform="matrix(0.935558 -0.353173 0.295257 0.955418 836.742 1934.78)" fill="#6F6F6F"/>
<ellipse cx="1.40951" cy="1.52546" rx="1.40951" ry="1.52546" transform="matrix(0.935558 -0.353173 0.295257 0.955418 836.742 3399.78)" fill="#6F6F6F"/>
<ellipse cx="1475.5" cy="112" rx="0.5" ry="2" fill="#6F6F6F"/>
<ellipse cx="1472" cy="1710" rx="1" ry="2" fill="#6F6F6F"/>
<ellipse cx="1468" cy="3188.45" rx="1" ry="2" fill="#6F6F6F"/>
<ellipse cx="1468" cy="4653.45" rx="1" ry="2" fill="#6F6F6F"/>
<circle cx="435.5" cy="1053.5" r="1.5" fill="#6F6F6F"/>
<circle cx="431.5" cy="2531.95" r="1.5" fill="#6F6F6F"/>
<circle cx="431.5" cy="3996.95" r="1.5" fill="#6F6F6F"/>
<ellipse cx="775" cy="1527" rx="3" ry="1" fill="#6F6F6F"/>
<ellipse cx="771" cy="3005.45" rx="3" ry="1" fill="#6F6F6F"/>
<ellipse cx="771" cy="4470.45" rx="3" ry="1" fill="#6F6F6F"/>
<ellipse cx="1.51645" cy="1.4192" rx="1.51645" ry="1.4192" transform="matrix(0.376832 -0.926282 0.895517 0.445028 271.164 1066.14)" fill="#6F6F6F"/>
<ellipse cx="1.51645" cy="1.4192" rx="1.51645" ry="1.4192" transform="matrix(0.376832 -0.926282 0.895517 0.445028 267.164 2544.59)" fill="#6F6F6F"/>
<ellipse cx="1.51645" cy="1.4192" rx="1.51645" ry="1.4192" transform="matrix(0.376832 -0.926282 0.895517 0.445028 267.164 4009.59)" fill="#6F6F6F"/>
<ellipse cx="548.5" cy="1580" rx="1.5" ry="2" fill="#6F6F6F"/>
<ellipse cx="544.5" cy="3058.45" rx="1.5" ry="2" fill="#6F6F6F"/>
<ellipse cx="544.5" cy="4523.45" rx="1.5" ry="2" fill="#6F6F6F"/>
<ellipse cx="1.399" cy="1.53511" rx="1.399" ry="1.53511" transform="matrix(0.978037 0.208432 -0.171866 0.98512 1113.02 490.817)" fill="#6F6F6F"/>
<ellipse cx="1.399" cy="1.53511" rx="1.399" ry="1.53511" transform="matrix(0.978037 0.208432 -0.171866 0.98512 1109.02 1969.27)" fill="#6F6F6F"/>
<ellipse cx="1.399" cy="1.53511" rx="1.399" ry="1.53511" transform="matrix(0.978037 0.208432 -0.171866 0.98512 1109.02 3434.27)" fill="#6F6F6F"/>
<ellipse cx="1.399" cy="1.53511" rx="1.399" ry="1.53511" transform="matrix(0.978037 0.208432 -0.171866 0.98512 408.334 31.6477)" fill="#6F6F6F"/>
<ellipse cx="1.399" cy="1.53511" rx="1.399" ry="1.53511" transform="matrix(0.978037 0.208432 -0.171866 0.98512 404.596 1628.97)" fill="#6F6F6F"/>
<ellipse cx="1.399" cy="1.53511" rx="1.399" ry="1.53511" transform="matrix(0.978037 0.208432 -0.171866 0.98512 400.596 3107.42)" fill="#6F6F6F"/>
<ellipse cx="1.399" cy="1.53511" rx="1.399" ry="1.53511" transform="matrix(0.978037 0.208432 -0.171866 0.98512 400.596 4572.42)" fill="#6F6F6F"/>
<ellipse cx="1050.5" cy="1038" rx="1.5" ry="2" fill="#6F6F6F"/>
<ellipse cx="1046.5" cy="2516.45" rx="1.5" ry="2" fill="#6F6F6F"/>
<ellipse cx="1046.5" cy="3981.45" rx="1.5" ry="2" fill="#6F6F6F"/>
<ellipse cx="1.47356" cy="1.46369" rx="1.47356" ry="1.46369" transform="matrix(0.645759 -0.763541 0.695499 0.718527 176.611 929.708)" fill="#6F6F6F"/>
<ellipse cx="1.47356" cy="1.46369" rx="1.47356" ry="1.46369" transform="matrix(0.645759 -0.763541 0.695499 0.718527 172.611 2408.16)" fill="#6F6F6F"/>
<ellipse cx="1.47356" cy="1.46369" rx="1.47356" ry="1.46369" transform="matrix(0.645759 -0.763541 0.695499 0.718527 172.611 3873.16)" fill="#6F6F6F"/>
<circle cx="519.5" cy="1575.5" r="1.5" fill="#6F6F6F"/>
<circle cx="515.5" cy="3053.95" r="1.5" fill="#6F6F6F"/>
<circle cx="515.5" cy="4518.95" r="1.5" fill="#6F6F6F"/>
<path d="M673.635 639.843C673.884 640.648 673.2 641.634 672.107 642.047C671.015 642.459 669.928 642.141 669.679 641.336C669.43 640.531 670.114 639.544 671.207 639.132C672.299 638.72 673.386 639.038 673.635 639.843Z" fill="#6F6F6F"/>
<path d="M669.635 2118.3C669.884 2119.1 669.2 2120.09 668.107 2120.5C667.015 2120.91 665.928 2120.6 665.679 2119.79C665.43 2118.99 666.114 2118 667.207 2117.59C668.299 2117.17 669.386 2117.49 669.635 2118.3Z" fill="#6F6F6F"/>
<path d="M669.635 3583.3C669.884 3584.1 669.2 3585.09 668.107 3585.5C667.015 3585.91 665.928 3585.6 665.679 3584.79C665.43 3583.99 666.114 3583 667.207 3582.59C668.299 3582.17 669.386 3582.49 669.635 3583.3Z" fill="#6F6F6F"/>
<ellipse cx="1043.5" cy="1123.5" rx="2.5" ry="1.5" fill="#6F6F6F"/>
<ellipse cx="1039.5" cy="2601.95" rx="2.5" ry="1.5" fill="#6F6F6F"/>
<ellipse cx="1039.5" cy="4066.95" rx="2.5" ry="1.5" fill="#6F6F6F"/>
<ellipse cx="1.399" cy="1.53511" rx="1.399" ry="1.53511" transform="matrix(0.978037 0.208432 -0.171866 0.98512 413.609 1.40234)" fill="#6F6F6F"/>
<ellipse cx="1.399" cy="1.53511" rx="1.399" ry="1.53511" transform="matrix(0.978037 0.208432 -0.171866 0.98512 409.873 1598.72)" fill="#6F6F6F"/>
<ellipse cx="1.399" cy="1.53511" rx="1.399" ry="1.53511" transform="matrix(0.978037 0.208432 -0.171866 0.98512 405.873 3077.18)" fill="#6F6F6F"/>
<ellipse cx="1.399" cy="1.53511" rx="1.399" ry="1.53511" transform="matrix(0.978037 0.208432 -0.171866 0.98512 405.873 4542.18)" fill="#6F6F6F"/>
<circle cx="1050.5" cy="1007.5" r="1.5" fill="#6F6F6F"/>
<circle cx="1046.5" cy="2485.95" r="1.5" fill="#6F6F6F"/>
<circle cx="1046.5" cy="3950.95" r="1.5" fill="#6F6F6F"/>
<ellipse cx="1.41397" cy="1.52133" rx="1.41397" ry="1.52133" transform="matrix(0.917244 -0.398326 0.334967 0.94223 888.121 318.141)" fill="#6F6F6F"/>
<ellipse cx="1.41397" cy="1.52133" rx="1.41397" ry="1.52133" transform="matrix(0.917244 -0.398326 0.334967 0.94223 884.121 1796.6)" fill="#6F6F6F"/>
<ellipse cx="1.41397" cy="1.52133" rx="1.41397" ry="1.52133" transform="matrix(0.917244 -0.398326 0.334967 0.94223 884.121 3261.6)" fill="#6F6F6F"/>
<ellipse cx="1.41397" cy="1.52133" rx="1.41397" ry="1.52133" transform="matrix(0.917244 -0.398326 0.334967 0.94223 877.928 289.472)" fill="#6F6F6F"/>
<ellipse cx="1.41397" cy="1.52133" rx="1.41397" ry="1.52133" transform="matrix(0.917244 -0.398326 0.334967 0.94223 873.928 1767.93)" fill="#6F6F6F"/>
<ellipse cx="1.41397" cy="1.52133" rx="1.41397" ry="1.52133" transform="matrix(0.917244 -0.398326 0.334967 0.94223 873.928 3232.93)" fill="#6F6F6F"/>
<ellipse cx="2.11427" cy="3.05093" rx="2.11427" ry="3.05093" transform="matrix(0.935558 -0.353173 0.295257 0.955418 555.238 661.752)" fill="#6F6F6F"/>
<ellipse cx="2.11427" cy="3.05093" rx="2.11427" ry="3.05093" transform="matrix(0.935558 -0.353173 0.295257 0.955418 551.238 2140.21)" fill="#6F6F6F"/>
<ellipse cx="2.11427" cy="3.05093" rx="2.11427" ry="3.05093" transform="matrix(0.935558 -0.353173 0.295257 0.955418 551.238 3605.21)" fill="#6F6F6F"/>
<ellipse cx="929" cy="1105.5" rx="2" ry="2.5" fill="#6F6F6F"/>
<ellipse cx="925" cy="2583.95" rx="2" ry="2.5" fill="#6F6F6F"/>
<ellipse cx="925" cy="4048.95" rx="2" ry="2.5" fill="#6F6F6F"/>
<ellipse cx="1.399" cy="1.53511" rx="1.399" ry="1.53511" transform="matrix(0.978037 0.208432 -0.171866 0.98512 702.814 11.2749)" fill="#6F6F6F"/>
<ellipse cx="1.399" cy="1.53511" rx="1.399" ry="1.53511" transform="matrix(0.978037 0.208432 -0.171866 0.98512 699.076 1608.59)" fill="#6F6F6F"/>
<ellipse cx="1.399" cy="1.53511" rx="1.399" ry="1.53511" transform="matrix(0.978037 0.208432 -0.171866 0.98512 695.076 3087.05)" fill="#6F6F6F"/>
<ellipse cx="1.399" cy="1.53511" rx="1.399" ry="1.53511" transform="matrix(0.978037 0.208432 -0.171866 0.98512 695.076 4552.05)" fill="#6F6F6F"/>
<ellipse cx="1336" cy="956" rx="1" ry="2" fill="#6F6F6F"/>
<ellipse cx="1332" cy="2434.45" rx="1" ry="2" fill="#6F6F6F"/>
<ellipse cx="1332" cy="3899.45" rx="1" ry="2" fill="#6F6F6F"/>
<ellipse cx="1.52417" cy="1.41091" rx="1.52417" ry="1.41091" transform="matrix(0.308202 -0.951321 0.929834 0.36798 890.656 562.864)" fill="#6F6F6F"/>
<ellipse cx="1.52417" cy="1.41091" rx="1.52417" ry="1.41091" transform="matrix(0.308202 -0.951321 0.929834 0.36798 886.656 2041.32)" fill="#6F6F6F"/>
<ellipse cx="1.52417" cy="1.41091" rx="1.52417" ry="1.41091" transform="matrix(0.308202 -0.951321 0.929834 0.36798 886.656 3506.32)" fill="#6F6F6F"/>
<ellipse cx="1.399" cy="1.53511" rx="1.399" ry="1.53511" transform="matrix(0.978037 0.208432 -0.171866 0.98512 631.059 292.428)" fill="#6F6F6F"/>
<ellipse cx="1.399" cy="1.53511" rx="1.399" ry="1.53511" transform="matrix(0.978037 0.208432 -0.171866 0.98512 627.059 1770.88)" fill="#6F6F6F"/>
<ellipse cx="1.399" cy="1.53511" rx="1.399" ry="1.53511" transform="matrix(0.978037 0.208432 -0.171866 0.98512 627.059 3235.88)" fill="#6F6F6F"/>
<circle cx="1314" cy="1247" r="2" fill="#6F6F6F"/>
<circle cx="1310" cy="2725.45" r="2" fill="#6F6F6F"/>
<circle cx="1310" cy="4190.45" r="2" fill="#6F6F6F"/>
<ellipse cx="1.40951" cy="1.52546" rx="1.40951" ry="1.52546" transform="matrix(0.935558 -0.353173 0.295257 0.955418 948.049 555.781)" fill="#6F6F6F"/>
<ellipse cx="1.40951" cy="1.52546" rx="1.40951" ry="1.52546" transform="matrix(0.935558 -0.353173 0.295257 0.955418 944.049 2034.24)" fill="#6F6F6F"/>
<ellipse cx="1.40951" cy="1.52546" rx="1.40951" ry="1.52546" transform="matrix(0.935558 -0.353173 0.295257 0.955418 944.049 3499.24)" fill="#6F6F6F"/>
<ellipse cx="232" cy="1116" rx="1" ry="2" fill="#6F6F6F"/>
<ellipse cx="228" cy="2594.45" rx="1" ry="2" fill="#6F6F6F"/>
<ellipse cx="228" cy="4059.45" rx="1" ry="2" fill="#6F6F6F"/>
<circle cx="573" cy="1591" r="1" fill="#6F6F6F"/>
<circle cx="569" cy="3069.45" r="1" fill="#6F6F6F"/>
<circle cx="569" cy="4534.45" r="1" fill="#6F6F6F"/>
<ellipse cx="1182" cy="392.5" rx="2" ry="1.5" fill="#6F6F6F"/>
<ellipse cx="1178" cy="1870.95" rx="2" ry="1.5" fill="#6F6F6F"/>
<ellipse cx="1178" cy="3335.95" rx="2" ry="1.5" fill="#6F6F6F"/>
<ellipse cx="1.4485" cy="1.48626" rx="1.4485" ry="1.48626" transform="matrix(0.943017 -0.332744 0.313911 0.949453 485.117 7248.72)" fill="#6F6F6F"/>
<ellipse cx="42" cy="6977" rx="1" ry="2" fill="#6F6F6F"/>
<ellipse cx="395" cy="7436.5" rx="2" ry="1.5" fill="#6F6F6F"/>
<ellipse cx="2.17275" cy="2.97251" rx="2.17275" ry="2.97251" transform="matrix(0.943017 -0.332744 0.313911 0.949453 447.172 6857.14)" fill="#6F6F6F"/>
<ellipse cx="1189.5" cy="6188" rx="2.5" ry="3" fill="#6F6F6F"/>
<circle cx="1185" cy="7735" r="3" fill="#6F6F6F"/>
<ellipse cx="850.5" cy="7265" rx="2.5" ry="3" fill="#6F6F6F"/>
<ellipse cx="1.44518" cy="1.48949" rx="1.44518" ry="1.48949" transform="matrix(0.980732 0.195359 -0.18348 0.983023 26.502 6284.28)" fill="#6F6F6F"/>
<ellipse cx="1206" cy="7141" rx="2" ry="1" fill="#6F6F6F"/>
<ellipse cx="13" cy="7084.5" rx="2" ry="1.5" fill="#6F6F6F"/>
<ellipse cx="314" cy="6704.5" rx="1" ry="2.5" fill="#6F6F6F"/>
<ellipse cx="1.4485" cy="2.22938" rx="1.4485" ry="2.22938" transform="matrix(0.943017 -0.332744 0.313911 0.949453 719.428 7140.83)" fill="#6F6F6F"/>
<ellipse cx="1.45552" cy="2.21907" rx="1.45552" ry="2.21907" transform="matrix(0.858838 0.512247 -0.487852 0.872927 1448.92 6762.98)" fill="#6F6F6F"/>
<ellipse cx="1.44518" cy="1.48949" rx="1.44518" ry="1.48949" transform="matrix(0.980732 0.195359 -0.18348 0.983023 462.99 6363.64)" fill="#6F6F6F"/>
<circle cx="1140.5" cy="7318.5" r="1.5" fill="#6F6F6F"/>
<ellipse cx="1.44518" cy="1.48949" rx="1.44518" ry="1.48949" transform="matrix(0.980732 0.195359 -0.18348 0.983023 31.9688 6255)" fill="#6F6F6F"/>
<ellipse cx="1206" cy="7108" rx="2" ry="1" fill="#6F6F6F"/>
<ellipse cx="13" cy="7051.5" rx="2" ry="1.5" fill="#6F6F6F"/>
<ellipse cx="1.44518" cy="1.48949" rx="1.44518" ry="1.48949" transform="matrix(0.980732 0.195359 -0.18348 0.983023 273.584 6614.45)" fill="#6F6F6F"/>
<ellipse cx="1.4485" cy="1.48626" rx="1.4485" ry="1.48626" transform="matrix(0.943017 -0.332744 0.313911 0.949453 709.631 7111.2)" fill="#6F6F6F"/>
<ellipse cx="1.44518" cy="1.48949" rx="1.44518" ry="1.48949" transform="matrix(0.980732 0.195359 -0.18348 0.983023 29.8848 6281.92)" fill="#6F6F6F"/>
<ellipse cx="1209" cy="7138" rx="1" ry="2" fill="#6F6F6F"/>
<circle cx="16.5" cy="7081.5" r="1.5" fill="#6F6F6F"/>
<ellipse cx="316" cy="6700.5" rx="1" ry="1.5" fill="#6F6F6F"/>
<ellipse cx="1.4485" cy="1.48626" rx="1.4485" ry="1.48626" transform="matrix(0.943017 -0.332744 0.313911 0.949453 721.227 7137.05)" fill="#6F6F6F"/>
<ellipse cx="1.4485" cy="1.48626" rx="1.4485" ry="1.48626" transform="matrix(0.943017 -0.332744 0.313911 0.949453 315.588 7095.81)" fill="#6F6F6F"/>
<circle cx="650" cy="7445" r="1" fill="#6F6F6F"/>
<circle cx="1" cy="6783" r="1" fill="#6F6F6F"/>
<ellipse cx="1.4485" cy="1.48626" rx="1.4485" ry="1.48626" transform="matrix(0.943017 -0.332744 0.313911 0.949453 489.936 7092.6)" fill="#6F6F6F"/>
<circle cx="1483.5" cy="7321.5" r="1.5" fill="#6F6F6F"/>
<ellipse cx="131" cy="7005" rx="1" ry="2" fill="#6F6F6F"/>
<ellipse cx="483" cy="7465" rx="2" ry="1" fill="#6F6F6F"/>
<ellipse cx="282" cy="7234.5" rx="1" ry="1.5" fill="#6F6F6F"/>
<ellipse cx="638.5" cy="6147" rx="1.5" ry="2" fill="#6F6F6F"/>
<ellipse cx="634" cy="7694" rx="1" ry="2" fill="#6F6F6F"/>
<ellipse cx="2.17275" cy="2.97251" rx="2.17275" ry="2.97251" transform="matrix(0.943017 -0.332744 0.313911 0.949453 754.635 7021.26)" fill="#6F6F6F"/>
<circle cx="1089.5" cy="7522.5" r="2.5" fill="#6F6F6F"/>
<ellipse cx="1303" cy="7169.5" rx="1" ry="1.5" fill="#6F6F6F"/>
<ellipse cx="2.16777" cy="2.97897" rx="2.16777" ry="2.97897" transform="matrix(0.980732 0.195359 -0.18348 0.983023 249.15 6516.95)" fill="#6F6F6F"/>
<ellipse cx="2.17275" cy="2.97251" rx="2.17275" ry="2.97251" transform="matrix(0.943017 -0.332744 0.313911 0.949453 641.559 7039.1)" fill="#6F6F6F"/>
<ellipse cx="1.4485" cy="1.48626" rx="1.4485" ry="1.48626" transform="matrix(0.943017 -0.332744 0.313911 0.949453 1057.75 6960)" fill="#6F6F6F"/>
<ellipse cx="1.44518" cy="1.48949" rx="1.44518" ry="1.48949" transform="matrix(0.980732 0.195359 -0.18348 0.983023 214.5 6584.46)" fill="#6F6F6F"/>
<ellipse cx="1.4485" cy="1.48626" rx="1.4485" ry="1.48626" transform="matrix(0.943017 -0.332744 0.313911 0.949453 643.928 7115.47)" fill="#6F6F6F"/>
<ellipse cx="1.45552" cy="1.47938" rx="1.45552" ry="1.47938" transform="matrix(0.858838 0.512247 -0.487852 0.872927 1417.74 6687.56)" fill="#6F6F6F"/>
<ellipse cx="22" cy="7281" rx="1" ry="2" fill="#6F6F6F"/>
<ellipse cx="377" cy="6193.5" rx="1" ry="1.5" fill="#6F6F6F"/>
<circle cx="373.5" cy="7740.5" r="1.5" fill="#6F6F6F"/>
<ellipse cx="1.44518" cy="1.48949" rx="1.44518" ry="1.48949" transform="matrix(0.980732 0.195359 -0.18348 0.983023 747.289 6502.28)" fill="#6F6F6F"/>
<ellipse cx="1445.5" cy="7399" rx="1.5" ry="2" fill="#6F6F6F"/>
<ellipse cx="1.4485" cy="1.48626" rx="1.4485" ry="1.48626" transform="matrix(0.943017 -0.332744 0.313911 0.949453 1066.89 6770.83)" fill="#6F6F6F"/>
<ellipse cx="27.5" cy="6795" rx="2.5" ry="2" fill="#6F6F6F"/>
<ellipse cx="2.17275" cy="1.48626" rx="2.17275" ry="1.48626" transform="matrix(0.943017 -0.332744 0.313911 0.949453 518.258 7095.21)" fill="#6F6F6F"/>
<ellipse cx="1510" cy="7333" rx="2" ry="1" fill="#6F6F6F"/>
<ellipse cx="2.17275" cy="1.48626" rx="2.17275" ry="1.48626" transform="matrix(0.943017 -0.332744 0.313911 0.949453 191.523 7172.68)" fill="#6F6F6F"/>
<ellipse cx="509.5" cy="7476.5" rx="2.5" ry="1.5" fill="#6F6F6F"/>
<ellipse cx="1.4485" cy="2.22938" rx="1.4485" ry="2.22938" transform="matrix(0.943017 -0.332744 0.313911 0.949453 549.898 6987.92)" fill="#6F6F6F"/>
<ellipse cx="905.5" cy="7421.5" rx="1.5" ry="2.5" fill="#6F6F6F"/>
<ellipse cx="1.44518" cy="1.48949" rx="1.44518" ry="1.48949" transform="matrix(0.980732 0.195359 -0.18348 0.983023 219.965 6555.17)" fill="#6F6F6F"/>
<ellipse cx="1.4485" cy="1.48626" rx="1.4485" ry="1.48626" transform="matrix(0.943017 -0.332744 0.313911 0.949453 634.598 7087.25)" fill="#6F6F6F"/>
<ellipse cx="1.45552" cy="1.47938" rx="1.45552" ry="1.47938" transform="matrix(0.858838 0.512247 -0.487852 0.872927 1432.17 6661.73)" fill="#6F6F6F"/>
<ellipse cx="1.44518" cy="1.48949" rx="1.44518" ry="1.48949" transform="matrix(0.980732 0.195359 -0.18348 0.983023 753.303 6470.06)" fill="#6F6F6F"/>
<circle cx="1445.5" cy="7366.5" r="1.5" fill="#6F6F6F"/>
<ellipse cx="1.4485" cy="1.48626" rx="1.4485" ry="1.48626" transform="matrix(0.943017 -0.332744 0.313911 0.949453 1056.63 6739.79)" fill="#6F6F6F"/>
<ellipse cx="1.4485" cy="1.48626" rx="1.4485" ry="1.48626" transform="matrix(0.943017 -0.332744 0.313911 0.949453 540.1 6958.29)" fill="#6F6F6F"/>
<circle cx="905.5" cy="7389.5" r="1.5" fill="#6F6F6F"/>
<ellipse cx="2.16777" cy="2.97897" rx="2.16777" ry="2.97897" transform="matrix(0.980732 0.195359 -0.18348 0.983023 287.027 6550.31)" fill="#6F6F6F"/>
<ellipse cx="2.17275" cy="2.97251" rx="2.17275" ry="2.97251" transform="matrix(0.943017 -0.332744 0.313911 0.949453 690.469 7048.63)" fill="#6F6F6F"/>
<ellipse cx="1.44518" cy="1.48949" rx="1.44518" ry="1.48949" transform="matrix(0.980732 0.195359 -0.18348 0.983023 217.881 6582.09)" fill="#6F6F6F"/>
<ellipse cx="1.4485" cy="1.48626" rx="1.4485" ry="1.48626" transform="matrix(0.943017 -0.332744 0.313911 0.949453 645.729 7111.69)" fill="#6F6F6F"/>
<ellipse cx="1.45552" cy="1.47938" rx="1.45552" ry="1.47938" transform="matrix(0.858838 0.512247 -0.487852 0.872927 1421.68 6686.47)" fill="#6F6F6F"/>
<ellipse cx="1.4485" cy="1.48626" rx="1.4485" ry="1.48626" transform="matrix(0.943017 -0.332744 0.313911 0.949453 1084.24 6961.69)" fill="#6F6F6F"/>
<ellipse cx="1.44518" cy="1.48949" rx="1.44518" ry="1.48949" transform="matrix(0.980732 0.195359 -0.18348 0.983023 750.672 6499.91)" fill="#6F6F6F"/>
<circle cx="1448" cy="7396" r="1" fill="#6F6F6F"/>
<ellipse cx="1.4485" cy="1.48626" rx="1.4485" ry="1.48626" transform="matrix(0.943017 -0.332744 0.313911 0.949453 551.697 6984.14)" fill="#6F6F6F"/>
<circle cx="908" cy="7418" r="1" fill="#6F6F6F"/>
<ellipse cx="1.44518" cy="1.48949" rx="1.44518" ry="1.48949" transform="matrix(0.980732 0.195359 -0.18348 0.983023 497.719 6476.86)" fill="#6F6F6F"/>
<circle cx="1196" cy="7423" r="1" fill="#6F6F6F"/>
<ellipse cx="1.4485" cy="1.48626" rx="1.4485" ry="1.48626" transform="matrix(0.943017 -0.332744 0.313911 0.949453 810.055 6792.13)" fill="#6F6F6F"/>
<ellipse cx="1.44991" cy="1.48488" rx="1.44991" ry="1.48488" transform="matrix(0.926577 -0.376106 0.355494 0.934679 821.902 6635.3)" fill="#6F6F6F"/>
<ellipse cx="1.44518" cy="1.48949" rx="1.44518" ry="1.48949" transform="matrix(0.980732 0.195359 -0.18348 0.983023 52.4336 6436.76)" fill="#6F6F6F"/>
<ellipse cx="1.4485" cy="1.48626" rx="1.4485" ry="1.48626" transform="matrix(0.943017 -0.332744 0.313911 0.949453 432.262 7070.4)" fill="#6F6F6F"/>
<circle cx="1436" cy="7281" r="2" fill="#6F6F6F"/>
<ellipse cx="1.44991" cy="1.48488" rx="1.44991" ry="1.48488" transform="matrix(0.926577 -0.376106 0.355494 0.934679 810.289 6604.77)" fill="#6F6F6F"/>
<ellipse cx="1.49032" cy="1.44431" rx="1.49032" ry="1.44431" transform="matrix(0.130041 -0.991509 0.990345 0.138621 715.762 6740.82)" fill="#6F6F6F"/>
<ellipse cx="1392" cy="6087.5" rx="2" ry="1.5" fill="#6F6F6F"/>
<ellipse cx="1388" cy="7634.5" rx="2" ry="1.5" fill="#6F6F6F"/>
<ellipse cx="1278" cy="6294" rx="1" ry="2" fill="#6F6F6F"/>
<ellipse cx="1.48582" cy="1.44894" rx="1.48582" ry="1.44894" transform="matrix(0.327491 -0.944854 0.93789 0.346933 857.006 6819.52)" fill="#6F6F6F"/>
<ellipse cx="1.44991" cy="2.22732" rx="1.44991" ry="2.22732" transform="matrix(0.926577 -0.376106 0.355494 0.934679 823.004 6630.05)" fill="#6F6F6F"/>
<ellipse cx="1.4485" cy="1.48626" rx="1.4485" ry="1.48626" transform="matrix(0.943017 -0.332744 0.313911 0.949453 320.406 6939.69)" fill="#6F6F6F"/>
<ellipse cx="1042" cy="6221.5" rx="1" ry="1.5" fill="#6F6F6F"/>
<ellipse cx="1038" cy="7768.5" rx="1" ry="1.5" fill="#6F6F6F"/>
<circle cx="703.5" cy="7298.5" r="1.5" fill="#6F6F6F"/>
<ellipse cx="1.45552" cy="1.47938" rx="1.45552" ry="1.47938" transform="matrix(0.858838 0.512247 -0.487852 0.872927 1415.75 6899.89)" fill="#6F6F6F"/>
<ellipse cx="81" cy="6932" rx="2" ry="1" fill="#6F6F6F"/>
<ellipse cx="434" cy="7391.5" rx="2" ry="1.5" fill="#6F6F6F"/>
<ellipse cx="370.5" cy="7263" rx="1.5" ry="1" fill="#6F6F6F"/>
<ellipse cx="726" cy="6175.5" rx="2" ry="1.5" fill="#6F6F6F"/>
<ellipse cx="722" cy="7722.5" rx="2" ry="1.5" fill="#6F6F6F"/>
<circle cx="71" cy="7129" r="1" fill="#6F6F6F"/>
<ellipse cx="431.5" cy="6208" rx="2.5" ry="1" fill="#6F6F6F"/>
<ellipse cx="427.5" cy="7755" rx="1.5" ry="1" fill="#6F6F6F"/>
<ellipse cx="1.44518" cy="1.48949" rx="1.44518" ry="1.48949" transform="matrix(0.980732 0.195359 -0.18348 0.983023 1019.14 6683.99)" fill="#6F6F6F"/>
<ellipse cx="1.44518" cy="1.48949" rx="1.44518" ry="1.48949" transform="matrix(0.980732 0.195359 -0.18348 0.983023 346.586 6270.59)" fill="#6F6F6F"/>
<ellipse cx="1.46911" cy="1.46589" rx="1.46911" ry="1.46589" transform="matrix(0.670938 -0.741514 0.719352 0.694646 104.596 7166.55)" fill="#6F6F6F"/>
<ellipse cx="463.5" cy="6223" rx="1.5" ry="1" fill="#6F6F6F"/>
<circle cx="459" cy="7770" r="1" fill="#6F6F6F"/>
<ellipse cx="1.44991" cy="1.48488" rx="1.44991" ry="1.48488" transform="matrix(0.926577 -0.376106 0.355494 0.934679 818.348 6556.64)" fill="#6F6F6F"/>
<ellipse cx="2.17275" cy="2.97251" rx="2.17275" ry="2.97251" transform="matrix(0.943017 -0.332744 0.313911 0.949453 608.393 6869.59)" fill="#6F6F6F"/>
<ellipse cx="999.5" cy="7330" rx="2.5" ry="3" fill="#6F6F6F"/>
<ellipse cx="2.17275" cy="2.97251" rx="2.17275" ry="2.97251" transform="matrix(0.943017 -0.332744 0.313911 0.949453 472.027 6886.19)" fill="#6F6F6F"/>
<ellipse cx="1202.5" cy="6223.5" rx="2.5" ry="3.5" fill="#6F6F6F"/>
<ellipse cx="1199" cy="7770.5" rx="2" ry="3.5" fill="#6F6F6F"/>
<ellipse cx="864.5" cy="7300.5" rx="2.5" ry="3.5" fill="#6F6F6F"/>
<ellipse cx="1.48637" cy="1.44838" rx="1.48637" ry="1.44838" transform="matrix(0.310229 -0.950662 0.944367 0.328894 687.895 6713.23)" fill="#6F6F6F"/>
<circle cx="1446.5" cy="6102.5" r="1.5" fill="#6F6F6F"/>
<circle cx="1442.5" cy="7649.5" r="1.5" fill="#6F6F6F"/>
<circle cx="1333" cy="6309" r="2" fill="#6F6F6F"/>
<ellipse cx="1.48582" cy="1.44894" rx="1.48582" ry="1.44894" transform="matrix(0.327491 -0.944854 0.93789 0.346933 889.086 6771.2)" fill="#6F6F6F"/>
<ellipse cx="1.44518" cy="1.48949" rx="1.44518" ry="1.48949" transform="matrix(0.980732 0.195359 -0.18348 0.983023 876.459 6471.82)" fill="#6F6F6F"/>
<ellipse cx="1.44518" cy="1.48949" rx="1.44518" ry="1.48949" transform="matrix(0.980732 0.195359 -0.18348 0.983023 74.6172 6451.81)" fill="#6F6F6F"/>
<ellipse cx="1.4485" cy="1.48626" rx="1.4485" ry="1.48626" transform="matrix(0.943017 -0.332744 0.313911 0.949453 458.75 7072.09)" fill="#6F6F6F"/>
<ellipse cx="1460" cy="7291.5" rx="2" ry="1.5" fill="#6F6F6F"/>
<ellipse cx="1.49032" cy="1.44431" rx="1.49032" ry="1.44431" transform="matrix(0.130041 -0.991509 0.990345 0.138621 729.07 6717.1)" fill="#6F6F6F"/>
<ellipse cx="1416" cy="6098" rx="1" ry="2" fill="#6F6F6F"/>
<ellipse cx="1412" cy="7645" rx="1" ry="2" fill="#6F6F6F"/>
<ellipse cx="1303" cy="6304.5" rx="1" ry="1.5" fill="#6F6F6F"/>
<ellipse cx="1.48582" cy="1.44894" rx="1.48582" ry="1.44894" transform="matrix(0.327491 -0.944854 0.93789 0.346933 874.791 6799.18)" fill="#6F6F6F"/>
<ellipse cx="2.17275" cy="1.48626" rx="2.17275" ry="1.48626" transform="matrix(0.943017 -0.332744 0.313911 0.949453 348.727 6942.3)" fill="#6F6F6F"/>
<ellipse cx="730.5" cy="7311" rx="1.5" ry="1" fill="#6F6F6F"/>
<ellipse cx="2.18328" cy="1.47938" rx="2.18328" ry="1.47938" transform="matrix(0.858838 0.512247 -0.487852 0.872927 1432.47 6923.64)" fill="#6F6F6F"/>
<ellipse cx="1.44518" cy="1.48949" rx="1.44518" ry="1.48949" transform="matrix(0.980732 0.195359 -0.18348 0.983023 881.924 6442.53)" fill="#6F6F6F"/>
<ellipse cx="106" cy="6942.5" rx="1" ry="1.5" fill="#6F6F6F"/>
<circle cx="458" cy="7402" r="1" fill="#6F6F6F"/>
<ellipse cx="1.4485" cy="1.48626" rx="1.4485" ry="1.48626" transform="matrix(0.943017 -0.332744 0.313911 0.949453 816.678 6696.82)" fill="#6F6F6F"/>
<ellipse cx="1474" cy="6364" rx="1" ry="2" fill="#6F6F6F"/>
<ellipse cx="396.5" cy="7275.5" rx="2.5" ry="1.5" fill="#6F6F6F"/>
<ellipse cx="752.5" cy="6187" rx="2.5" ry="1" fill="#6F6F6F"/>
<ellipse cx="749" cy="7734" rx="2" ry="1" fill="#6F6F6F"/>
<ellipse cx="1.48325" cy="1.45158" rx="1.48325" ry="1.45158" transform="matrix(0.39908 -0.916916 0.906934 0.421273 226.678 7287.25)" fill="#6F6F6F"/>
<ellipse cx="518.5" cy="6238" rx="1.5" ry="2" fill="#6F6F6F"/>
<ellipse cx="514.5" cy="7785" rx="1.5" ry="2" fill="#6F6F6F"/>
<ellipse cx="1.44518" cy="1.48949" rx="1.44518" ry="1.48949" transform="matrix(0.980732 0.195359 -0.18348 0.983023 1098.71 6730.22)" fill="#6F6F6F"/>
<ellipse cx="1.44518" cy="1.48949" rx="1.44518" ry="1.48949" transform="matrix(0.980732 0.195359 -0.18348 0.983023 368.766 6285.64)" fill="#6F6F6F"/>
<circle cx="1034.5" cy="7260.5" r="1.5" fill="#6F6F6F"/>
<ellipse cx="1.46911" cy="1.46589" rx="1.46911" ry="1.46589" transform="matrix(0.670938 -0.741514 0.719352 0.694646 128.734 7155.16)" fill="#6F6F6F"/>
<circle cx="488.5" cy="6233.5" r="1.5" fill="#6F6F6F"/>
<circle cx="484.5" cy="7780.5" r="1.5" fill="#6F6F6F"/>
<ellipse cx="2.17275" cy="1.48626" rx="2.17275" ry="1.48626" transform="matrix(0.943017 -0.332744 0.313911 0.949453 639.014 6874.54)" fill="#6F6F6F"/>
<ellipse cx="1026.5" cy="7343.5" rx="2.5" ry="1.5" fill="#6F6F6F"/>
<ellipse cx="1.44518" cy="1.48949" rx="1.44518" ry="1.48949" transform="matrix(0.980732 0.195359 -0.18348 0.983023 374.232 6256.36)" fill="#6F6F6F"/>
<circle cx="1034.5" cy="7230.5" r="1.5" fill="#6F6F6F"/>
<ellipse cx="1.44991" cy="1.48488" rx="1.44991" ry="1.48488" transform="matrix(0.926577 -0.376106 0.355494 0.934679 865.752 6563.03)" fill="#6F6F6F"/>
<ellipse cx="1.44991" cy="1.48488" rx="1.44991" ry="1.48488" transform="matrix(0.926577 -0.376106 0.355494 0.934679 855.195 6535.27)" fill="#6F6F6F"/>
<ellipse cx="2.17275" cy="2.97251" rx="2.17275" ry="2.97251" transform="matrix(0.943017 -0.332744 0.313911 0.949453 520.938 6895.72)" fill="#6F6F6F"/>
<ellipse cx="907.5" cy="7325.5" rx="1.5" ry="2.5" fill="#6F6F6F"/>
<ellipse cx="1.44518" cy="1.48949" rx="1.44518" ry="1.48949" transform="matrix(0.980732 0.195359 -0.18348 0.983023 673.803 6265.92)" fill="#6F6F6F"/>
<ellipse cx="1330" cy="7181" rx="1" ry="2" fill="#6F6F6F"/>
<ellipse cx="1.48582" cy="1.44894" rx="1.48582" ry="1.44894" transform="matrix(0.327491 -0.944854 0.93789 0.346933 868.381 6799.97)" fill="#6F6F6F"/>
<ellipse cx="1.44518" cy="1.48949" rx="1.44518" ry="1.48949" transform="matrix(0.980732 0.195359 -0.18348 0.983023 599.475 6538.13)" fill="#6F6F6F"/>
<circle cx="1307" cy="7463" r="2" fill="#6F6F6F"/>
<ellipse cx="1.4485" cy="1.48626" rx="1.4485" ry="1.48626" transform="matrix(0.943017 -0.332744 0.313911 0.949453 927.832 6793.12)" fill="#6F6F6F"/>
<ellipse cx="186" cy="7336" rx="1" ry="2" fill="#6F6F6F"/>
<circle cx="543" cy="6249" r="1" fill="#6F6F6F"/>
<ellipse cx="539.5" cy="7796" rx="0.5" ry="1" fill="#6F6F6F"/>
<ellipse cx="1170" cy="6635.5" rx="2" ry="1.5" fill="#6F6F6F"/>
<circle cx="475.053" cy="8777.73" r="1.49117" transform="rotate(-18.8579 475.053 8777.73)" fill="#6F6F6F"/>
<ellipse cx="16" cy="8504.63" rx="1" ry="2" fill="#6F6F6F"/>
<ellipse cx="12" cy="10051.2" rx="1" ry="2" fill="#6F6F6F"/>
<ellipse cx="380" cy="8964.13" rx="2" ry="1.5" fill="#6F6F6F"/>
<ellipse cx="437.04" cy="8387.32" rx="2.23676" ry="2.98234" transform="rotate(-18.8579 437.04 8387.32)" fill="#6F6F6F"/>
<ellipse cx="433.04" cy="9933.87" rx="2.23676" ry="2.98234" transform="rotate(-18.8579 433.04 9933.87)" fill="#6F6F6F"/>
<ellipse cx="1196.5" cy="9262.63" rx="2.5" ry="3" fill="#6F6F6F"/>
<ellipse cx="850.5" cy="8792.63" rx="2.5" ry="3" fill="#6F6F6F"/>
<circle cx="0.560778" cy="7814.11" r="1.49117" transform="rotate(10.9139 0.560778 7814.11)" fill="#6F6F6F"/>
<ellipse cx="1218" cy="8668.63" rx="2" ry="1" fill="#6F6F6F"/>
<ellipse cx="296.5" cy="8232.13" rx="1.5" ry="2.5" fill="#6F6F6F"/>
<ellipse cx="292.5" cy="9778.68" rx="1.5" ry="2.5" fill="#6F6F6F"/>
<ellipse cx="717.353" cy="8670.55" rx="1.49117" ry="2.23676" transform="rotate(-18.8579 717.353 8670.55)" fill="#6F6F6F"/>
<ellipse cx="1469.01" cy="8293.75" rx="1.49117" ry="2.23676" transform="rotate(30 1469.01 8293.75)" fill="#6F6F6F"/>
<ellipse cx="1465.01" cy="9840.3" rx="1.49117" ry="2.23676" transform="rotate(30 1465.01 9840.3)" fill="#6F6F6F"/>
<circle cx="451.483" cy="7893.47" r="1.49117" transform="rotate(10.9139 451.483 7893.47)" fill="#6F6F6F"/>
<circle cx="447.483" cy="9440.02" r="1.49117" transform="rotate(10.9139 447.483 9440.02)" fill="#6F6F6F"/>
<circle cx="1150.5" cy="8846.13" r="1.5" fill="#6F6F6F"/>
<circle cx="2.20922" cy="9331.38" r="1.49117" transform="rotate(10.9139 2.20922 9331.38)" fill="#6F6F6F"/>
<ellipse cx="1218" cy="8635.63" rx="2" ry="1" fill="#6F6F6F"/>
<circle cx="255.813" cy="8144.28" r="1.49117" transform="rotate(10.9139 255.813 8144.28)" fill="#6F6F6F"/>
<circle cx="251.813" cy="9690.83" r="1.49117" transform="rotate(10.9139 251.813 9690.83)" fill="#6F6F6F"/>
<circle cx="706.991" cy="8640.21" r="1.49117" transform="rotate(-18.8579 706.991 8640.21)" fill="#6F6F6F"/>
<circle cx="4.05492" cy="7811.75" r="1.49117" transform="rotate(10.9139 4.05492 7811.75)" fill="#6F6F6F"/>
<circle cx="0.0549191" cy="9358.3" r="1.49117" transform="rotate(10.9139 0.0549191 9358.3)" fill="#6F6F6F"/>
<ellipse cx="1221" cy="8665.63" rx="1" ry="2" fill="#6F6F6F"/>
<ellipse cx="299" cy="8228.13" rx="1" ry="1.5" fill="#6F6F6F"/>
<ellipse cx="295" cy="9774.68" rx="1" ry="1.5" fill="#6F6F6F"/>
<circle cx="718.969" cy="8666.06" r="1.49117" transform="rotate(-18.8579 718.969 8666.06)" fill="#6F6F6F"/>
<circle cx="299.917" cy="8624.83" r="1.49117" transform="rotate(-18.8579 299.917 8624.83)" fill="#6F6F6F"/>
<circle cx="295.917" cy="10171.4" r="1.49117" transform="rotate(-18.8579 295.917 10171.4)" fill="#6F6F6F"/>
<ellipse cx="643.5" cy="8972.63" rx="1.5" ry="1" fill="#6F6F6F"/>
<circle cx="480.03" cy="8621.61" r="1.49117" transform="rotate(-18.8579 480.03 8621.61)" fill="#6F6F6F"/>
<circle cx="476.03" cy="10168.2" r="1.49117" transform="rotate(-18.8579 476.03 10168.2)" fill="#6F6F6F"/>
<circle cx="1504.5" cy="8849.13" r="1.5" fill="#6F6F6F"/>
<ellipse cx="107" cy="8532.63" rx="1" ry="2" fill="#6F6F6F"/>
<ellipse cx="103" cy="10079.2" rx="1" ry="2" fill="#6F6F6F"/>
<ellipse cx="471" cy="8992.63" rx="2" ry="1" fill="#6F6F6F"/>
<circle cx="263.5" cy="8762.13" r="1.5" fill="#6F6F6F"/>
<ellipse cx="627.5" cy="9221.63" rx="1.5" ry="2" fill="#6F6F6F"/>
<ellipse cx="754.67" cy="8551.44" rx="2.23676" ry="2.98234" transform="rotate(-18.8579 754.67 8551.44)" fill="#6F6F6F"/>
<ellipse cx="750.67" cy="10098" rx="2.23676" ry="2.98234" transform="rotate(-18.8579 750.67 10098)" fill="#6F6F6F"/>
<circle cx="1097.5" cy="9050.13" r="2.5" fill="#6F6F6F"/>
<ellipse cx="1318" cy="8697.13" rx="1" ry="1.5" fill="#6F6F6F"/>
<ellipse cx="231.022" cy="8048.38" rx="2.23676" ry="2.98234" transform="rotate(10.9139 231.022 8048.38)" fill="#6F6F6F"/>
<ellipse cx="227.022" cy="9594.93" rx="2.23676" ry="2.98234" transform="rotate(10.9139 227.022 9594.93)" fill="#6F6F6F"/>
<ellipse cx="637.854" cy="8569.28" rx="2.23676" ry="2.98234" transform="rotate(-18.8579 637.854 8569.28)" fill="#6F6F6F"/>
<ellipse cx="633.854" cy="10115.8" rx="2.23676" ry="2.98234" transform="rotate(-18.8579 633.854 10115.8)" fill="#6F6F6F"/>
<circle cx="1066.62" cy="8489.01" r="1.49117" transform="rotate(-18.8579 1066.62 8489.01)" fill="#6F6F6F"/>
<circle cx="1062.62" cy="10035.6" r="1.49117" transform="rotate(-18.8579 1062.62 10035.6)" fill="#6F6F6F"/>
<circle cx="194.776" cy="8114.29" r="1.49117" transform="rotate(10.9139 194.776 8114.29)" fill="#6F6F6F"/>
<circle cx="190.776" cy="9660.84" r="1.49117" transform="rotate(10.9139 190.776 9660.84)" fill="#6F6F6F"/>
<circle cx="639.116" cy="8644.48" r="1.49117" transform="rotate(-18.8579 639.116 8644.48)" fill="#6F6F6F"/>
<circle cx="1437.17" cy="8217.68" r="1.49117" transform="rotate(30 1437.17 8217.68)" fill="#6F6F6F"/>
<circle cx="1433.17" cy="9764.23" r="1.49117" transform="rotate(30 1433.17 9764.23)" fill="#6F6F6F"/>
<circle cx="357.5" cy="9268.13" r="1.5" fill="#6F6F6F"/>
<circle cx="745.184" cy="8032.11" r="1.49117" transform="rotate(10.9139 745.184 8032.11)" fill="#6F6F6F"/>
<circle cx="741.184" cy="9578.66" r="1.49117" transform="rotate(10.9139 741.184 9578.66)" fill="#6F6F6F"/>
<ellipse cx="1465.5" cy="8926.63" rx="1.5" ry="2" fill="#6F6F6F"/>
<circle cx="1076.07" cy="8299.85" r="1.49117" transform="rotate(-18.8579 1076.07 8299.85)" fill="#6F6F6F"/>
<circle cx="1072.07" cy="9846.4" r="1.49117" transform="rotate(-18.8579 1072.07 9846.4)" fill="#6F6F6F"/>
<ellipse cx="0.5" cy="8322.63" rx="2.5" ry="2" fill="#6F6F6F"/>
<ellipse cx="509.993" cy="8623.98" rx="2.23676" ry="1.49117" transform="rotate(-18.8579 509.993 8623.98)" fill="#6F6F6F"/>
<ellipse cx="505.993" cy="10170.5" rx="2.23676" ry="1.49117" transform="rotate(-18.8579 505.993 10170.5)" fill="#6F6F6F"/>
<ellipse cx="172.454" cy="8701.45" rx="2.23676" ry="1.49117" transform="rotate(-18.8579 172.454 8701.45)" fill="#6F6F6F"/>
<ellipse cx="498.5" cy="9004.13" rx="2.5" ry="1.5" fill="#6F6F6F"/>
<ellipse cx="542.218" cy="8517.64" rx="1.49117" ry="2.23676" transform="rotate(-18.8579 542.218 8517.64)" fill="#6F6F6F"/>
<ellipse cx="538.218" cy="10064.2" rx="1.49117" ry="2.23676" transform="rotate(-18.8579 538.218 10064.2)" fill="#6F6F6F"/>
<ellipse cx="907.5" cy="8949.13" rx="1.5" ry="2.5" fill="#6F6F6F"/>
<circle cx="200.422" cy="8085" r="1.49117" transform="rotate(10.9139 200.422 8085)" fill="#6F6F6F"/>
<circle cx="196.422" cy="9631.55" r="1.49117" transform="rotate(10.9139 196.422 9631.55)" fill="#6F6F6F"/>
<circle cx="629.477" cy="8616.26" r="1.49117" transform="rotate(-18.8579 629.477 8616.26)" fill="#6F6F6F"/>
<circle cx="625.477" cy="10162.8" r="1.49117" transform="rotate(-18.8579 625.477 10162.8)" fill="#6F6F6F"/>
<circle cx="1452.08" cy="8191.86" r="1.49117" transform="rotate(30 1452.08 8191.86)" fill="#6F6F6F"/>
<circle cx="1448.08" cy="9738.4" r="1.49117" transform="rotate(30 1448.08 9738.4)" fill="#6F6F6F"/>
<circle cx="751.395" cy="7999.89" r="1.49117" transform="rotate(10.9139 751.395 7999.89)" fill="#6F6F6F"/>
<circle cx="747.395" cy="9546.44" r="1.49117" transform="rotate(10.9139 747.395 9546.44)" fill="#6F6F6F"/>
<circle cx="1465.5" cy="8894.13" r="1.5" fill="#6F6F6F"/>
<circle cx="1065.47" cy="8268.8" r="1.49117" transform="rotate(-18.8579 1065.47 8268.8)" fill="#6F6F6F"/>
<circle cx="1061.47" cy="9815.35" r="1.49117" transform="rotate(-18.8579 1061.47 9815.35)" fill="#6F6F6F"/>
<circle cx="531.854" cy="8487.3" r="1.49117" transform="rotate(-18.8579 531.854 8487.3)" fill="#6F6F6F"/>
<circle cx="527.854" cy="10033.9" r="1.49117" transform="rotate(-18.8579 527.854 10033.9)" fill="#6F6F6F"/>
<circle cx="907.5" cy="8917.13" r="1.5" fill="#6F6F6F"/>
<ellipse cx="270.149" cy="8081.74" rx="2.23676" ry="2.98234" transform="rotate(10.9139 270.149 8081.74)" fill="#6F6F6F"/>
<ellipse cx="266.149" cy="9628.29" rx="2.23676" ry="2.98234" transform="rotate(10.9139 266.149 9628.29)" fill="#6F6F6F"/>
<ellipse cx="688.381" cy="8578.81" rx="2.23676" ry="2.98234" transform="rotate(-18.8579 688.381 8578.81)" fill="#6F6F6F"/>
<ellipse cx="684.381" cy="10125.4" rx="2.23676" ry="2.98234" transform="rotate(-18.8579 684.381 10125.4)" fill="#6F6F6F"/>
<circle cx="198.268" cy="8111.92" r="1.49117" transform="rotate(10.9139 198.268 8111.92)" fill="#6F6F6F"/>
<circle cx="194.268" cy="9658.47" r="1.49117" transform="rotate(10.9139 194.268 9658.47)" fill="#6F6F6F"/>
<circle cx="640.975" cy="8640.7" r="1.49117" transform="rotate(-18.8579 640.975 8640.7)" fill="#6F6F6F"/>
<circle cx="1441.24" cy="8216.59" r="1.49117" transform="rotate(30 1441.24 8216.59)" fill="#6F6F6F"/>
<circle cx="1437.24" cy="9763.14" r="1.49117" transform="rotate(30 1437.24 9763.14)" fill="#6F6F6F"/>
<circle cx="1093.98" cy="8490.7" r="1.49117" transform="rotate(-18.8579 1093.98 8490.7)" fill="#6F6F6F"/>
<circle cx="1089.98" cy="10037.2" r="1.49117" transform="rotate(-18.8579 1089.98 10037.2)" fill="#6F6F6F"/>
<circle cx="748.676" cy="8029.74" r="1.49117" transform="rotate(10.9139 748.676 8029.74)" fill="#6F6F6F"/>
<circle cx="744.676" cy="9576.29" r="1.49117" transform="rotate(10.9139 744.676 9576.29)" fill="#6F6F6F"/>
<circle cx="1468" cy="8923.63" r="1" fill="#6F6F6F"/>
<circle cx="543.835" cy="8513.15" r="1.49117" transform="rotate(-18.8579 543.835 8513.15)" fill="#6F6F6F"/>
<circle cx="539.835" cy="10059.7" r="1.49117" transform="rotate(-18.8579 539.835 10059.7)" fill="#6F6F6F"/>
<ellipse cx="910.5" cy="8945.63" rx="1.5" ry="1" fill="#6F6F6F"/>
<circle cx="487.36" cy="8006.69" r="1.49117" transform="rotate(10.9139 487.36 8006.69)" fill="#6F6F6F"/>
<circle cx="483.36" cy="9553.24" r="1.49117" transform="rotate(10.9139 483.36 9553.24)" fill="#6F6F6F"/>
<circle cx="1207" cy="8950.63" r="1" fill="#6F6F6F"/>
<circle cx="810.737" cy="8321.14" r="1.49117" transform="rotate(-18.8579 810.737 8321.14)" fill="#6F6F6F"/>
<circle cx="806.737" cy="9867.69" r="1.49117" transform="rotate(-18.8579 806.737 9867.69)" fill="#6F6F6F"/>
<circle cx="823.015" cy="8164.23" r="1.49117" transform="rotate(-21.4506 823.015 8164.23)" fill="#6F6F6F"/>
<circle cx="819.015" cy="9710.78" r="1.49117" transform="rotate(-21.4506 819.015 9710.78)" fill="#6F6F6F"/>
<circle cx="27.3498" cy="7966.59" r="1.49117" transform="rotate(10.9139 27.3498 7966.59)" fill="#6F6F6F"/>
<circle cx="23.3498" cy="9513.14" r="1.49117" transform="rotate(10.9139 23.3498 9513.14)" fill="#6F6F6F"/>
<circle cx="420.45" cy="8599.41" r="1.49117" transform="rotate(-18.8579 420.45 8599.41)" fill="#6F6F6F"/>
<circle cx="416.45" cy="10146" r="1.49117" transform="rotate(-18.8579 416.45 10146)" fill="#6F6F6F"/>
<circle cx="1455" cy="8808.63" r="2" fill="#6F6F6F"/>
<circle cx="811.017" cy="8133.69" r="1.49117" transform="rotate(-21.4506 811.017 8133.69)" fill="#6F6F6F"/>
<circle cx="807.017" cy="9680.24" r="1.49117" transform="rotate(-21.4506 807.017 9680.24)" fill="#6F6F6F"/>
<circle cx="713.109" cy="8267.63" r="1.49117" transform="rotate(-82.2839 713.109 8267.63)" fill="#6F6F6F"/>
<circle cx="709.109" cy="9814.17" r="1.49117" transform="rotate(-82.2839 709.109 9814.17)" fill="#6F6F6F"/>
<ellipse cx="1406" cy="9162.13" rx="2" ry="1.5" fill="#6F6F6F"/>
<ellipse cx="1292" cy="7821.63" rx="1" ry="2" fill="#6F6F6F"/>
<ellipse cx="1288" cy="9368.18" rx="1" ry="2" fill="#6F6F6F"/>
<circle cx="859.252" cy="8346.71" r="1.49117" transform="rotate(-70.2992 859.252 8346.71)" fill="#6F6F6F"/>
<circle cx="855.252" cy="9893.25" r="1.49117" transform="rotate(-70.2992 855.252 9893.25)" fill="#6F6F6F"/>
<ellipse cx="824.427" cy="8159.67" rx="1.49117" ry="2.23676" transform="rotate(-21.4506 824.427 8159.67)" fill="#6F6F6F"/>
<ellipse cx="820.427" cy="9706.22" rx="1.49117" ry="2.23676" transform="rotate(-21.4506 820.427 9706.22)" fill="#6F6F6F"/>
<circle cx="304.895" cy="8468.7" r="1.49117" transform="rotate(-18.8579 304.895 8468.7)" fill="#6F6F6F"/>
<circle cx="300.895" cy="10015.2" r="1.49117" transform="rotate(-18.8579 300.895 10015.2)" fill="#6F6F6F"/>
<ellipse cx="1045" cy="9296.13" rx="1" ry="1.5" fill="#6F6F6F"/>
<ellipse cx="699" cy="8826.13" rx="1" ry="1.5" fill="#6F6F6F"/>
<circle cx="1435.11" cy="8430.01" r="1.49117" transform="rotate(30 1435.11 8430.01)" fill="#6F6F6F"/>
<circle cx="1431.11" cy="9976.56" r="1.49117" transform="rotate(30 1431.11 9976.56)" fill="#6F6F6F"/>
<ellipse cx="56" cy="8459.63" rx="2" ry="1" fill="#6F6F6F"/>
<ellipse cx="52" cy="10006.2" rx="2" ry="1" fill="#6F6F6F"/>
<ellipse cx="420" cy="8919.13" rx="2" ry="1.5" fill="#6F6F6F"/>
<ellipse cx="354.5" cy="8790.63" rx="1.5" ry="1" fill="#6F6F6F"/>
<ellipse cx="718" cy="9250.13" rx="2" ry="1.5" fill="#6F6F6F"/>
<ellipse cx="45.5" cy="8656.63" rx="1.5" ry="1" fill="#6F6F6F"/>
<ellipse cx="414" cy="9282.63" rx="2" ry="1" fill="#6F6F6F"/>
<circle cx="1026.02" cy="8213.82" r="1.49117" transform="rotate(10.9139 1026.02 8213.82)" fill="#6F6F6F"/>
<circle cx="1022.02" cy="9760.37" r="1.49117" transform="rotate(10.9139 1022.02 9760.37)" fill="#6F6F6F"/>
<circle cx="331.229" cy="7800.42" r="1.49117" transform="rotate(10.9139 331.229 7800.42)" fill="#6F6F6F"/>
<circle cx="327.229" cy="9346.97" r="1.49117" transform="rotate(10.9139 327.229 9346.97)" fill="#6F6F6F"/>
<circle cx="82.1623" cy="8694.56" r="1.49117" transform="rotate(-46.9318 82.1623 8694.56)" fill="#6F6F6F"/>
<circle cx="447" cy="9297.63" r="1" fill="#6F6F6F"/>
<circle cx="819.343" cy="8085.56" r="1.49117" transform="rotate(-21.4506 819.343 8085.56)" fill="#6F6F6F"/>
<circle cx="815.343" cy="9632.11" r="1.49117" transform="rotate(-21.4506 815.343 9632.11)" fill="#6F6F6F"/>
<ellipse cx="603.592" cy="8399.77" rx="2.23676" ry="2.98234" transform="rotate(-18.8579 603.592 8399.77)" fill="#6F6F6F"/>
<ellipse cx="599.592" cy="9946.32" rx="2.23676" ry="2.98234" transform="rotate(-18.8579 599.592 9946.32)" fill="#6F6F6F"/>
<ellipse cx="1004.5" cy="8857.63" rx="2.5" ry="3" fill="#6F6F6F"/>
<ellipse cx="462.717" cy="8416.37" rx="2.23676" ry="2.98234" transform="rotate(-18.8579 462.717 8416.37)" fill="#6F6F6F"/>
<ellipse cx="458.717" cy="9962.92" rx="2.23676" ry="2.98234" transform="rotate(-18.8579 458.717 9962.92)" fill="#6F6F6F"/>
<ellipse cx="1210.5" cy="9298.13" rx="2.5" ry="3.5" fill="#6F6F6F"/>
<ellipse cx="865.5" cy="8828.13" rx="2.5" ry="3.5" fill="#6F6F6F"/>
<circle cx="684.532" cy="8240.38" r="1.49117" transform="rotate(-71.37 684.532 8240.38)" fill="#6F6F6F"/>
<circle cx="680.532" cy="9786.93" r="1.49117" transform="rotate(-71.37 680.532 9786.93)" fill="#6F6F6F"/>
<circle cx="1462.5" cy="9177.13" r="1.5" fill="#6F6F6F"/>
<circle cx="1349" cy="7836.63" r="2" fill="#6F6F6F"/>
<circle cx="1345" cy="9383.18" r="2" fill="#6F6F6F"/>
<circle cx="892.393" cy="8298.39" r="1.49117" transform="rotate(-70.2992 892.393 8298.39)" fill="#6F6F6F"/>
<circle cx="888.393" cy="9844.93" r="1.49117" transform="rotate(-70.2992 888.393 9844.93)" fill="#6F6F6F"/>
<circle cx="878.623" cy="8001.65" r="1.49117" transform="rotate(10.9139 878.623 8001.65)" fill="#6F6F6F"/>
<circle cx="874.623" cy="9548.2" r="1.49117" transform="rotate(10.9139 874.623 9548.2)" fill="#6F6F6F"/>
<circle cx="50.2659" cy="7981.64" r="1.49117" transform="rotate(10.9139 50.2659 7981.64)" fill="#6F6F6F"/>
<circle cx="46.2659" cy="9528.19" r="1.49117" transform="rotate(10.9139 46.2659 9528.19)" fill="#6F6F6F"/>
<circle cx="447.813" cy="8601.1" r="1.49117" transform="rotate(-18.8579 447.813 8601.1)" fill="#6F6F6F"/>
<circle cx="443.813" cy="10147.6" r="1.49117" transform="rotate(-18.8579 443.813 10147.6)" fill="#6F6F6F"/>
<circle cx="1480.5" cy="8819.13" r="1.5" fill="#6F6F6F"/>
<circle cx="726.858" cy="8243.91" r="1.49117" transform="rotate(-82.2839 726.858 8243.91)" fill="#6F6F6F"/>
<circle cx="722.858" cy="9790.46" r="1.49117" transform="rotate(-82.2839 722.858 9790.46)" fill="#6F6F6F"/>
<ellipse cx="1431" cy="9172.63" rx="1" ry="2" fill="#6F6F6F"/>
<ellipse cx="1318" cy="7832.13" rx="1" ry="1.5" fill="#6F6F6F"/>
<ellipse cx="1314" cy="9378.68" rx="1" ry="1.5" fill="#6F6F6F"/>
<circle cx="877.625" cy="8326.36" r="1.49117" transform="rotate(-70.2992 877.625 8326.36)" fill="#6F6F6F"/>
<circle cx="873.625" cy="9872.91" r="1.49117" transform="rotate(-70.2992 873.625 9872.91)" fill="#6F6F6F"/>
<ellipse cx="334.856" cy="8471.07" rx="2.23676" ry="1.49117" transform="rotate(-18.8579 334.856 8471.07)" fill="#6F6F6F"/>
<ellipse cx="330.856" cy="10017.6" rx="2.23676" ry="1.49117" transform="rotate(-18.8579 330.856 10017.6)" fill="#6F6F6F"/>
<ellipse cx="727" cy="8838.63" rx="2" ry="1" fill="#6F6F6F"/>
<ellipse cx="1453.04" cy="8454.13" rx="2.23676" ry="1.49117" transform="rotate(30 1453.04 8454.13)" fill="#6F6F6F"/>
<ellipse cx="1449.04" cy="10000.7" rx="2.23676" ry="1.49117" transform="rotate(30 1449.04 10000.7)" fill="#6F6F6F"/>
<circle cx="884.27" cy="7972.36" r="1.49117" transform="rotate(10.9139 884.27 7972.36)" fill="#6F6F6F"/>
<circle cx="880.27" cy="9518.91" r="1.49117" transform="rotate(10.9139 880.27 9518.91)" fill="#6F6F6F"/>
<circle cx="81.5" cy="8470.13" r="1.5" fill="#6F6F6F"/>
<circle cx="77.5" cy="10016.7" r="1.5" fill="#6F6F6F"/>
<ellipse cx="445.5" cy="8929.63" rx="1.5" ry="1" fill="#6F6F6F"/>
<circle cx="817.577" cy="8225.83" r="1.49117" transform="rotate(-18.8579 817.577 8225.83)" fill="#6F6F6F"/>
<circle cx="813.577" cy="9772.38" r="1.49117" transform="rotate(-18.8579 813.577 9772.38)" fill="#6F6F6F"/>
<ellipse cx="1495" cy="7891.63" rx="1" ry="2" fill="#6F6F6F"/>
<ellipse cx="1491" cy="9438.18" rx="1" ry="2" fill="#6F6F6F"/>
<ellipse cx="382" cy="8803.13" rx="2" ry="1.5" fill="#6F6F6F"/>
<ellipse cx="745.5" cy="9261.63" rx="2.5" ry="1" fill="#6F6F6F"/>
<circle cx="208.145" cy="8814.59" r="1.49117" transform="rotate(-65.7897 208.145 8814.59)" fill="#6F6F6F"/>
<ellipse cx="503.5" cy="9312.63" rx="1.5" ry="2" fill="#6F6F6F"/>
<circle cx="1108.23" cy="8260.05" r="1.49117" transform="rotate(10.9139 1108.23 8260.05)" fill="#6F6F6F"/>
<circle cx="1104.23" cy="9806.6" r="1.49117" transform="rotate(10.9139 1104.23 9806.6)" fill="#6F6F6F"/>
<circle cx="354.143" cy="7815.47" r="1.49117" transform="rotate(10.9139 354.143 7815.47)" fill="#6F6F6F"/>
<circle cx="350.143" cy="9362.02" r="1.49117" transform="rotate(10.9139 350.143 9362.02)" fill="#6F6F6F"/>
<circle cx="1040.5" cy="8788.13" r="1.5" fill="#6F6F6F"/>
<circle cx="107.1" cy="8683.17" r="1.49117" transform="rotate(-46.9318 107.1 8683.17)" fill="#6F6F6F"/>
<circle cx="472.5" cy="9308.13" r="1.5" fill="#6F6F6F"/>
<ellipse cx="634.743" cy="8403.31" rx="2.23676" ry="1.49117" transform="rotate(-18.8579 634.743 8403.31)" fill="#6F6F6F"/>
<ellipse cx="630.743" cy="9949.86" rx="2.23676" ry="1.49117" transform="rotate(-18.8579 630.743 9949.86)" fill="#6F6F6F"/>
<ellipse cx="1032.5" cy="8871.13" rx="2.5" ry="1.5" fill="#6F6F6F"/>
<circle cx="355.789" cy="9332.74" r="1.49117" transform="rotate(10.9139 355.789 9332.74)" fill="#6F6F6F"/>
<circle cx="1040.5" cy="8758.13" r="1.5" fill="#6F6F6F"/>
<circle cx="868.316" cy="8091.96" r="1.49117" transform="rotate(-21.4506 868.316 8091.96)" fill="#6F6F6F"/>
<circle cx="864.316" cy="9638.5" r="1.49117" transform="rotate(-21.4506 864.316 9638.5)" fill="#6F6F6F"/>
<circle cx="857.41" cy="8064.2" r="1.49117" transform="rotate(-21.4506 857.41 8064.2)" fill="#6F6F6F"/>
<circle cx="853.41" cy="9610.75" r="1.49117" transform="rotate(-21.4506 853.41 9610.75)" fill="#6F6F6F"/>
<ellipse cx="513.245" cy="8425.9" rx="2.23676" ry="2.98234" transform="rotate(-18.8579 513.245 8425.9)" fill="#6F6F6F"/>
<ellipse cx="509.245" cy="9972.45" rx="2.23676" ry="2.98234" transform="rotate(-18.8579 509.245 9972.45)" fill="#6F6F6F"/>
<ellipse cx="910" cy="8853.13" rx="2" ry="2.5" fill="#6F6F6F"/>
<circle cx="669.268" cy="7795.75" r="1.49117" transform="rotate(10.9139 669.268 7795.75)" fill="#6F6F6F"/>
<circle cx="665.268" cy="9342.29" r="1.49117" transform="rotate(10.9139 665.268 9342.29)" fill="#6F6F6F"/>
<ellipse cx="1346" cy="8708.63" rx="1" ry="2" fill="#6F6F6F"/>
<circle cx="871.004" cy="8327.16" r="1.49117" transform="rotate(-70.2992 871.004 8327.16)" fill="#6F6F6F"/>
<circle cx="867.004" cy="9873.71" r="1.49117" transform="rotate(-70.2992 867.004 9873.71)" fill="#6F6F6F"/>
<circle cx="592.481" cy="8067.96" r="1.49117" transform="rotate(10.9139 592.481 8067.96)" fill="#6F6F6F"/>
<circle cx="588.481" cy="9614.51" r="1.49117" transform="rotate(10.9139 588.481 9614.51)" fill="#6F6F6F"/>
<circle cx="1322" cy="8990.63" r="2" fill="#6F6F6F"/>
<circle cx="932.407" cy="8322.13" r="1.49117" transform="rotate(-18.8579 932.407 8322.13)" fill="#6F6F6F"/>
<circle cx="928.407" cy="9868.68" r="1.49117" transform="rotate(-18.8579 928.407 9868.68)" fill="#6F6F6F"/>
<ellipse cx="165" cy="8863.63" rx="1" ry="2" fill="#6F6F6F"/>
<circle cx="529" cy="9323.63" r="1" fill="#6F6F6F"/>
<ellipse cx="1181" cy="8163.13" rx="2" ry="1.5" fill="#6F6F6F"/>
<ellipse cx="1177" cy="9709.68" rx="2" ry="1.5" fill="#6F6F6F"/>
</g>
<defs>
<clipPath id="clip0_76_176">
<rect width="1512" height="10433" fill="white"/>
</clipPath>
</defs>
</svg>
