<svg width="65" height="84" viewBox="0 0 65 84" fill="none" xmlns="http://www.w3.org/2000/svg">
<path opacity="0.3" d="M61.0209 1.58718C60.5102 0.607758 59.3023 0.227775 58.3228 0.738465C57.3434 1.24916 56.9634 2.45713 57.4741 3.43655L61.0209 1.58718ZM40.9582 39.3693L40.5606 37.4092L40.9582 39.3693ZM0.753279 65.7393C-0.108642 66.43 -0.247383 67.6887 0.443391 68.5507L11.7002 82.5965C12.391 83.4584 13.6497 83.5971 14.5116 82.9063C15.3735 82.2156 15.5123 80.9569 14.8215 80.0949L4.81544 67.6098L17.3006 57.6037C18.1625 56.913 18.3012 55.6543 17.6105 54.7923C16.9197 53.9304 15.661 53.7917 14.7991 54.4825L0.753279 65.7393ZM57.4741 3.43655C59.9483 8.18168 61.9626 15.5019 60.2931 22.1353C59.4701 25.4051 57.7492 28.5352 54.6888 31.18C51.6138 33.8374 47.0931 36.0841 40.5606 37.4092L41.3558 41.3294C48.3913 39.9022 53.5919 37.4146 57.3042 34.2065C61.0311 30.9857 63.1635 27.1191 64.1721 23.1116C66.1658 15.1905 63.7569 6.83427 61.0209 1.58718L57.4741 3.43655ZM40.5606 37.4092C32.4256 39.0595 26.9185 37.8513 23.4729 35.6167C20.0381 33.3891 18.4047 29.9903 18.2441 26.6808C18.0814 23.3266 19.4277 20.2098 21.7859 18.4696C24.0575 16.7934 27.6612 16.1148 32.6628 18.4035L34.3272 14.7662C28.3151 12.0152 23.105 12.5251 19.4108 15.2511C15.8034 17.9132 14.0323 22.4126 14.2488 26.8746C14.4675 31.3812 16.71 35.9984 21.2964 38.9727C25.8718 41.94 32.531 43.1195 41.3558 41.3294L40.5606 37.4092ZM32.6628 18.4035C37.4935 20.6138 40.2252 24.6936 41.0955 29.6782C41.9758 34.72 40.9352 40.691 38.0858 46.3506C32.4031 57.6379 19.765 67.2455 2.22316 65.3119L1.78491 69.2879C21.2094 71.4289 35.3304 60.7186 41.6585 48.1494C44.8145 41.8809 46.092 35.0389 45.0359 28.9902C43.9697 22.8841 40.5102 17.5953 34.3272 14.7662L32.6628 18.4035Z" fill="#FF1100"/>
</svg>
