<svg width="66" height="84" viewBox="0 0 66 84" fill="none" xmlns="http://www.w3.org/2000/svg">
<path opacity="0.3" d="M4.28572 1.58718C4.79641 0.607758 6.00438 0.227775 6.98381 0.738465C7.96323 1.24916 8.34321 2.45713 7.83252 3.43655L4.28572 1.58718ZM24.3484 39.3693L24.746 37.4092L24.3484 39.3693ZM64.5534 65.7393C65.4153 66.43 65.554 67.6887 64.8632 68.5507L53.6064 82.5965C52.9157 83.4584 51.657 83.5971 50.795 82.9063C49.9331 82.2156 49.7944 80.9569 50.4852 80.0949L60.4912 67.6098L48.0061 57.6037C47.1441 56.913 47.0054 55.6543 47.6962 54.7923C48.3869 53.9304 49.6457 53.7917 50.5076 54.4825L64.5534 65.7393ZM7.83252 3.43655C5.35832 8.18168 3.344 15.5019 5.01356 22.1353C5.83654 25.4051 7.55745 28.5352 10.6179 31.18C13.6928 33.8374 18.2136 36.0841 24.746 37.4092L23.9508 41.3294C16.9154 39.9022 11.7147 37.4146 8.00241 34.2065C4.27552 30.9857 2.14319 27.1191 1.13454 23.1116C-0.859132 15.1905 1.54978 6.83427 4.28572 1.58718L7.83252 3.43655ZM24.746 37.4092C32.8811 39.0595 38.3881 37.8513 41.8338 35.6167C45.2685 33.3891 46.9019 29.9903 47.0625 26.6808C47.2253 23.3266 45.8789 20.2098 43.5207 18.4696C41.2492 16.7934 37.6455 16.1148 32.6438 18.4035L30.9795 14.7662C36.9915 12.0152 42.2017 12.5251 45.8958 15.2511C49.5033 17.9132 51.2743 22.4126 51.0578 26.8746C50.8392 31.3812 48.5966 35.9984 44.0103 38.9727C39.4348 41.94 32.7756 43.1196 23.9508 41.3294L24.746 37.4092ZM32.6438 18.4035C27.8132 20.6138 25.0815 24.6936 24.2111 29.6782C23.3308 34.72 24.3715 40.691 27.2209 46.3506C32.9036 57.6379 45.5417 67.2455 63.0835 65.3119L63.5217 69.2879C44.0972 71.4289 29.9762 60.7186 23.6481 48.1494C20.4922 41.8809 19.2146 35.0389 20.2707 28.9902C21.3369 22.8841 24.7965 17.5953 30.9795 14.7662L32.6438 18.4035Z" fill="#FF1100"/>
</svg>
