<svg width="542" height="874" viewBox="0 0 542 874" fill="none" xmlns="http://www.w3.org/2000/svg">
<g id="Frame 313382">
<g id="iPhone 16 Pro - 1">
<g clip-path="url(#clip0_87_151)">
<rect x="94" width="402" height="874" rx="32" fill="white"/>
<g id="Frame 313372">
<g id="arrow_back_ios">
<path id="Vector" d="M133.834 75.87L132.054 74.1L122.164 84L132.064 93.9L133.834 92.13L125.704 84L133.834 75.87Z" fill="black"/>
</g>
<path id="Today" d="M261.768 72.76V75.736H255.848V95H252.2V75.736H246.248V72.76H261.768ZM273.111 95.288C271.447 95.288 269.943 94.9147 268.599 94.168C267.255 93.4 266.199 92.3333 265.431 90.968C264.663 89.5813 264.279 87.9813 264.279 86.168C264.279 84.376 264.673 82.7867 265.463 81.4C266.252 80.0133 267.329 78.9467 268.695 78.2C270.06 77.4533 271.585 77.08 273.271 77.08C274.956 77.08 276.481 77.4533 277.847 78.2C279.212 78.9467 280.289 80.0133 281.079 81.4C281.868 82.7867 282.263 84.376 282.263 86.168C282.263 87.96 281.857 89.5493 281.047 90.936C280.236 92.3227 279.127 93.4 277.719 94.168C276.332 94.9147 274.796 95.288 273.111 95.288ZM273.111 92.12C274.049 92.12 274.924 91.896 275.735 91.448C276.567 91 277.239 90.328 277.751 89.432C278.263 88.536 278.519 87.448 278.519 86.168C278.519 84.888 278.273 83.8107 277.783 82.936C277.292 82.04 276.641 81.368 275.831 80.92C275.02 80.472 274.145 80.248 273.207 80.248C272.268 80.248 271.393 80.472 270.583 80.92C269.793 81.368 269.164 82.04 268.695 82.936C268.225 83.8107 267.991 84.888 267.991 86.168C267.991 88.0667 268.471 89.5387 269.431 90.584C270.412 91.608 271.639 92.12 273.111 92.12ZM284.653 86.104C284.653 84.3333 285.015 82.7653 285.741 81.4C286.487 80.0347 287.49 78.9787 288.749 78.232C290.029 77.464 291.447 77.08 293.005 77.08C294.157 77.08 295.287 77.336 296.397 77.848C297.527 78.3387 298.423 79 299.085 79.832V71.32H302.765V95H299.085V92.344C298.487 93.1973 297.655 93.9013 296.589 94.456C295.543 95.0107 294.338 95.288 292.973 95.288C291.437 95.288 290.029 94.904 288.749 94.136C287.49 93.3467 286.487 92.2587 285.741 90.872C285.015 89.464 284.653 87.8747 284.653 86.104ZM299.085 86.168C299.085 84.952 298.829 83.896 298.317 83C297.826 82.104 297.175 81.4213 296.365 80.952C295.554 80.4827 294.679 80.248 293.741 80.248C292.802 80.248 291.927 80.4827 291.117 80.952C290.306 81.4 289.645 82.072 289.133 82.968C288.642 83.8427 288.397 84.888 288.397 86.104C288.397 87.32 288.642 88.3867 289.133 89.304C289.645 90.2213 290.306 90.9253 291.117 91.416C291.949 91.8853 292.823 92.12 293.741 92.12C294.679 92.12 295.554 91.8853 296.365 91.416C297.175 90.9467 297.826 90.264 298.317 89.368C298.829 88.4507 299.085 87.384 299.085 86.168ZM306.34 86.104C306.34 84.3333 306.703 82.7653 307.428 81.4C308.175 80.0347 309.178 78.9787 310.436 78.232C311.716 77.464 313.124 77.08 314.66 77.08C316.047 77.08 317.252 77.3573 318.276 77.912C319.322 78.4453 320.154 79.1173 320.772 79.928V77.368H324.452V95H320.772V92.376C320.154 93.208 319.311 93.9013 318.244 94.456C317.178 95.0107 315.962 95.288 314.596 95.288C313.082 95.288 311.695 94.904 310.436 94.136C309.178 93.3467 308.175 92.2587 307.428 90.872C306.703 89.464 306.34 87.8747 306.34 86.104ZM320.772 86.168C320.772 84.952 320.516 83.896 320.004 83C319.514 82.104 318.863 81.4213 318.052 80.952C317.242 80.4827 316.367 80.248 315.428 80.248C314.49 80.248 313.615 80.4827 312.804 80.952C311.994 81.4 311.332 82.072 310.82 82.968C310.33 83.8427 310.084 84.888 310.084 86.104C310.084 87.32 310.33 88.3867 310.82 89.304C311.332 90.2213 311.994 90.9253 312.804 91.416C313.636 91.8853 314.511 92.12 315.428 92.12C316.367 92.12 317.242 91.8853 318.052 91.416C318.863 90.9467 319.514 90.264 320.004 89.368C320.516 88.4507 320.772 87.384 320.772 86.168ZM345.116 77.368L334.3 103.288H330.524L334.108 94.712L327.164 77.368H331.228L336.188 90.808L341.34 77.368H345.116Z" fill="black"/>
<g id="sync_alt">
<g id="Vector_2">
<path d="M464.41 88.59L463 90L467 94L471 90L469.59 88.59L468 90.17V75H466V90.17L464.41 88.59Z" fill="black"/>
<path d="M461.59 79.41L463 78L459 74L455 78L456.41 79.41L458 77.83V93H460V77.83L461.59 79.41Z" fill="black"/>
</g>
</g>
</g>
<path id="Schedule" d="M128.296 180.168C127.176 180.168 126.168 179.976 125.272 179.592C124.376 179.192 123.672 178.632 123.16 177.912C122.648 177.192 122.392 176.352 122.392 175.392H125.32C125.384 176.112 125.664 176.704 126.16 177.168C126.672 177.632 127.384 177.864 128.296 177.864C129.24 177.864 129.976 177.64 130.504 177.192C131.032 176.728 131.296 176.136 131.296 175.416C131.296 174.856 131.128 174.4 130.792 174.048C130.472 173.696 130.064 173.424 129.568 173.232C129.088 173.04 128.416 172.832 127.552 172.608C126.464 172.32 125.576 172.032 124.888 171.744C124.216 171.44 123.64 170.976 123.16 170.352C122.68 169.728 122.44 168.896 122.44 167.856C122.44 166.896 122.68 166.056 123.16 165.336C123.64 164.616 124.312 164.064 125.176 163.68C126.04 163.296 127.04 163.104 128.176 163.104C129.792 163.104 131.112 163.512 132.136 164.328C133.176 165.128 133.752 166.232 133.864 167.64H130.84C130.792 167.032 130.504 166.512 129.976 166.08C129.448 165.648 128.752 165.432 127.888 165.432C127.104 165.432 126.464 165.632 125.968 166.032C125.472 166.432 125.224 167.008 125.224 167.76C125.224 168.272 125.376 168.696 125.68 169.032C126 169.352 126.4 169.608 126.88 169.8C127.36 169.992 128.016 170.2 128.848 170.424C129.952 170.728 130.848 171.032 131.536 171.336C132.24 171.64 132.832 172.112 133.312 172.752C133.808 173.376 134.056 174.216 134.056 175.272C134.056 176.12 133.824 176.92 133.36 177.672C132.912 178.424 132.248 179.032 131.368 179.496C130.504 179.944 129.48 180.168 128.296 180.168ZM136.372 173.376C136.372 172.016 136.644 170.824 137.188 169.8C137.748 168.76 138.516 167.96 139.492 167.4C140.468 166.84 141.588 166.56 142.852 166.56C144.452 166.56 145.772 166.944 146.812 167.712C147.868 168.464 148.58 169.544 148.948 170.952H145.996C145.756 170.296 145.372 169.784 144.844 169.416C144.316 169.048 143.652 168.864 142.852 168.864C141.732 168.864 140.836 169.264 140.164 170.064C139.508 170.848 139.18 171.952 139.18 173.376C139.18 174.8 139.508 175.912 140.164 176.712C140.836 177.512 141.732 177.912 142.852 177.912C144.436 177.912 145.484 177.216 145.996 175.824H148.948C148.564 177.168 147.844 178.24 146.788 179.04C145.732 179.824 144.42 180.216 142.852 180.216C141.588 180.216 140.468 179.936 139.492 179.376C138.516 178.8 137.748 178 137.188 176.976C136.644 175.936 136.372 174.736 136.372 173.376ZM158.515 166.56C159.523 166.56 160.419 166.776 161.203 167.208C162.003 167.64 162.627 168.28 163.075 169.128C163.539 169.976 163.771 171 163.771 172.2V180H161.059V172.608C161.059 171.424 160.763 170.52 160.171 169.896C159.579 169.256 158.771 168.936 157.747 168.936C156.723 168.936 155.907 169.256 155.299 169.896C154.707 170.52 154.411 171.424 154.411 172.608V180H151.675V162.24H154.411V168.312C154.875 167.752 155.459 167.32 156.163 167.016C156.883 166.712 157.667 166.56 158.515 166.56ZM179.381 173.064C179.381 173.56 179.349 174.008 179.285 174.408H169.181C169.261 175.464 169.653 176.312 170.357 176.952C171.061 177.592 171.925 177.912 172.949 177.912C174.421 177.912 175.461 177.296 176.069 176.064H179.021C178.621 177.28 177.893 178.28 176.837 179.064C175.797 179.832 174.501 180.216 172.949 180.216C171.685 180.216 170.549 179.936 169.541 179.376C168.549 178.8 167.765 178 167.189 176.976C166.629 175.936 166.349 174.736 166.349 173.376C166.349 172.016 166.621 170.824 167.165 169.8C167.725 168.76 168.501 167.96 169.493 167.4C170.501 166.84 171.653 166.56 172.949 166.56C174.197 166.56 175.309 166.832 176.285 167.376C177.261 167.92 178.021 168.688 178.565 169.68C179.109 170.656 179.381 171.784 179.381 173.064ZM176.525 172.2C176.509 171.192 176.149 170.384 175.445 169.776C174.741 169.168 173.869 168.864 172.829 168.864C171.885 168.864 171.077 169.168 170.405 169.776C169.733 170.368 169.333 171.176 169.205 172.2H176.525ZM181.161 173.328C181.161 172 181.433 170.824 181.977 169.8C182.537 168.776 183.289 167.984 184.233 167.424C185.193 166.848 186.257 166.56 187.425 166.56C188.289 166.56 189.137 166.752 189.969 167.136C190.817 167.504 191.489 168 191.985 168.624V162.24H194.745V180H191.985V178.008C191.537 178.648 190.913 179.176 190.113 179.592C189.329 180.008 188.425 180.216 187.401 180.216C186.249 180.216 185.193 179.928 184.233 179.352C183.289 178.76 182.537 177.944 181.977 176.904C181.433 175.848 181.161 174.656 181.161 173.328ZM191.985 173.376C191.985 172.464 191.793 171.672 191.409 171C191.041 170.328 190.553 169.816 189.945 169.464C189.337 169.112 188.681 168.936 187.977 168.936C187.273 168.936 186.617 169.112 186.009 169.464C185.401 169.8 184.905 170.304 184.521 170.976C184.153 171.632 183.969 172.416 183.969 173.328C183.969 174.24 184.153 175.04 184.521 175.728C184.905 176.416 185.401 176.944 186.009 177.312C186.633 177.664 187.289 177.84 187.977 177.84C188.681 177.84 189.337 177.664 189.945 177.312C190.553 176.96 191.041 176.448 191.409 175.776C191.793 175.088 191.985 174.288 191.985 173.376ZM210.315 166.776V180H207.579V178.44C207.147 178.984 206.579 179.416 205.875 179.736C205.187 180.04 204.451 180.192 203.667 180.192C202.627 180.192 201.691 179.976 200.859 179.544C200.043 179.112 199.395 178.472 198.915 177.624C198.451 176.776 198.219 175.752 198.219 174.552V166.776H200.931V174.144C200.931 175.328 201.227 176.24 201.819 176.88C202.411 177.504 203.219 177.816 204.243 177.816C205.267 177.816 206.075 177.504 206.667 176.88C207.275 176.24 207.579 175.328 207.579 174.144V166.776H210.315ZM216.661 162.24V180H213.925V162.24H216.661ZM232.373 173.064C232.373 173.56 232.341 174.008 232.277 174.408H222.173C222.253 175.464 222.645 176.312 223.349 176.952C224.053 177.592 224.917 177.912 225.941 177.912C227.413 177.912 228.453 177.296 229.061 176.064H232.013C231.613 177.28 230.885 178.28 229.829 179.064C228.789 179.832 227.493 180.216 225.941 180.216C224.677 180.216 223.541 179.936 222.533 179.376C221.541 178.8 220.757 178 220.181 176.976C219.621 175.936 219.341 174.736 219.341 173.376C219.341 172.016 219.613 170.824 220.157 169.8C220.717 168.76 221.493 167.96 222.485 167.4C223.493 166.84 224.645 166.56 225.941 166.56C227.189 166.56 228.301 166.832 229.277 167.376C230.253 167.92 231.013 168.688 231.557 169.68C232.101 170.656 232.373 171.784 232.373 173.064ZM229.517 172.2C229.501 171.192 229.141 170.384 228.437 169.776C227.733 169.168 226.861 168.864 225.821 168.864C224.877 168.864 224.069 169.168 223.397 169.776C222.725 170.368 222.325 171.176 222.197 172.2H229.517Z" fill="black"/>
<g id="Group 5">
<g id="Frame 313373">
<rect x="122.5" y="218.5" width="22" height="22" rx="11" stroke="#D9D9D9" stroke-width="3"/>
</g>
<path id="Vector 8" d="M133 248L132.5 341" stroke="#D9D9D9" stroke-width="2"/>
</g>
<g id="Group 3">
<g id="Group 7">
<g id="Frame 313377">
<rect x="123.5" y="504.5" width="22" height="22" rx="11" stroke="#D9D9D9" stroke-width="3"/>
</g>
<path id="Vector 10" d="M135 534V662.5" stroke="#D9D9D9" stroke-width="2"/>
</g>
</g>
<g id="Group 4">
<g id="Group 8">
<g id="Frame 313377_2">
<rect x="127.5" y="689.5" width="22" height="22" rx="11" stroke="#D9D9D9" stroke-width="3"/>
</g>
<path id="Vector 10_2" d="M139 719V847.5" stroke="#D9D9D9" stroke-width="2"/>
</g>
</g>
<g id="Group 2">
<g id="Group 6">
<g id="Frame 313375">
<rect x="123.5" y="372.5" width="22" height="22" rx="11" stroke="#D9D9D9" stroke-width="3"/>
</g>
<path id="Vector 9" d="M135 467.004V408.995" stroke="#D9D9D9" stroke-width="2"/>
</g>
</g>
<g id="Frame 313374" filter="url(#filter0_d_87_151)">
<mask id="path-15-inside-1_87_151" fill="white">
<path d="M167 242C167 233.163 174.163 226 183 226H447C455.837 226 463 233.163 463 242V327C463 335.837 455.837 343 447 343H183C174.163 343 167 335.837 167 327V242Z"/>
</mask>
<path d="M156 242C156 232.611 163.611 225 173 225H447C456.389 225 464 232.611 464 242H462C462 233.716 455.284 227 447 227H183C180.239 227 178 233.716 178 242H156ZM464 327C464 336.389 456.389 344 447 344H173C163.611 344 156 336.389 156 327H178C178 335.284 180.239 342 183 342H447C455.284 342 462 335.284 462 327H464ZM173 344C163.611 344 156 336.389 156 327V242C156 232.611 163.611 225 173 225L183 227C180.239 227 178 233.716 178 242V327C178 335.284 180.239 342 183 342L173 344ZM447 225C456.389 225 464 232.611 464 242V327C464 336.389 456.389 344 447 344V342C455.284 342 462 335.284 462 327V242C462 233.716 455.284 227 447 227V225Z" fill="#FF1100" mask="url(#path-15-inside-1_87_151)"/>
<g id="Frame 313380">
<path id="Car Wash" d="M188.888 253.624C188.888 251.992 189.264 250.528 190.016 249.232C190.784 247.936 191.816 246.928 193.112 246.208C194.424 245.472 195.856 245.104 197.408 245.104C199.184 245.104 200.76 245.544 202.136 246.424C203.528 247.288 204.536 248.52 205.16 250.12H201.872C201.44 249.24 200.84 248.584 200.072 248.152C199.304 247.72 198.416 247.504 197.408 247.504C196.304 247.504 195.32 247.752 194.456 248.248C193.592 248.744 192.912 249.456 192.416 250.384C191.936 251.312 191.696 252.392 191.696 253.624C191.696 254.856 191.936 255.936 192.416 256.864C192.912 257.792 193.592 258.512 194.456 259.024C195.32 259.52 196.304 259.768 197.408 259.768C198.416 259.768 199.304 259.552 200.072 259.12C200.84 258.688 201.44 258.032 201.872 257.152H205.16C204.536 258.752 203.528 259.984 202.136 260.848C200.76 261.712 199.184 262.144 197.408 262.144C195.84 262.144 194.408 261.784 193.112 261.064C191.816 260.328 190.784 259.312 190.016 258.016C189.264 256.72 188.888 255.256 188.888 253.624ZM207.451 255.328C207.451 254 207.723 252.824 208.267 251.8C208.827 250.776 209.579 249.984 210.523 249.424C211.483 248.848 212.539 248.56 213.691 248.56C214.731 248.56 215.635 248.768 216.403 249.184C217.187 249.584 217.811 250.088 218.275 250.696V248.776H221.035V262H218.275V260.032C217.811 260.656 217.179 261.176 216.379 261.592C215.579 262.008 214.667 262.216 213.643 262.216C212.507 262.216 211.467 261.928 210.523 261.352C209.579 260.76 208.827 259.944 208.267 258.904C207.723 257.848 207.451 256.656 207.451 255.328ZM218.275 255.376C218.275 254.464 218.083 253.672 217.699 253C217.331 252.328 216.843 251.816 216.235 251.464C215.627 251.112 214.971 250.936 214.267 250.936C213.563 250.936 212.907 251.112 212.299 251.464C211.691 251.8 211.195 252.304 210.811 252.976C210.443 253.632 210.259 254.416 210.259 255.328C210.259 256.24 210.443 257.04 210.811 257.728C211.195 258.416 211.691 258.944 212.299 259.312C212.923 259.664 213.579 259.84 214.267 259.84C214.971 259.84 215.627 259.664 216.235 259.312C216.843 258.96 217.331 258.448 217.699 257.776C218.083 257.088 218.275 256.288 218.275 255.376ZM227.364 250.696C227.764 250.024 228.292 249.504 228.948 249.136C229.62 248.752 230.412 248.56 231.324 248.56V251.392H230.628C229.556 251.392 228.74 251.664 228.18 252.208C227.636 252.752 227.364 253.696 227.364 255.04V262H224.628V248.776H227.364V250.696ZM261.793 245.32L256.849 262H253.753L250.249 249.376L246.529 262L243.457 262.024L238.729 245.32H241.633L245.089 258.904L248.833 245.32H251.905L255.385 258.832L258.865 245.32H261.793ZM263.138 255.328C263.138 254 263.41 252.824 263.954 251.8C264.514 250.776 265.266 249.984 266.21 249.424C267.17 248.848 268.226 248.56 269.378 248.56C270.418 248.56 271.322 248.768 272.09 249.184C272.874 249.584 273.498 250.088 273.962 250.696V248.776H276.722V262H273.962V260.032C273.498 260.656 272.866 261.176 272.066 261.592C271.266 262.008 270.354 262.216 269.33 262.216C268.194 262.216 267.154 261.928 266.21 261.352C265.266 260.76 264.514 259.944 263.954 258.904C263.41 257.848 263.138 256.656 263.138 255.328ZM273.962 255.376C273.962 254.464 273.77 253.672 273.386 253C273.018 252.328 272.53 251.816 271.922 251.464C271.314 251.112 270.658 250.936 269.954 250.936C269.25 250.936 268.594 251.112 267.986 251.464C267.378 251.8 266.882 252.304 266.498 252.976C266.13 253.632 265.946 254.416 265.946 255.328C265.946 256.24 266.13 257.04 266.498 257.728C266.882 258.416 267.378 258.944 267.986 259.312C268.61 259.664 269.266 259.84 269.954 259.84C270.658 259.84 271.314 259.664 271.922 259.312C272.53 258.96 273.018 258.448 273.386 257.776C273.77 257.088 273.962 256.288 273.962 255.376ZM285.116 262.216C284.076 262.216 283.14 262.032 282.308 261.664C281.492 261.28 280.844 260.768 280.364 260.128C279.884 259.472 279.628 258.744 279.596 257.944H282.428C282.476 258.504 282.74 258.976 283.22 259.36C283.716 259.728 284.332 259.912 285.068 259.912C285.836 259.912 286.428 259.768 286.844 259.48C287.276 259.176 287.492 258.792 287.492 258.328C287.492 257.832 287.252 257.464 286.772 257.224C286.308 256.984 285.564 256.72 284.54 256.432C283.548 256.16 282.74 255.896 282.116 255.64C281.492 255.384 280.948 254.992 280.484 254.464C280.036 253.936 279.812 253.24 279.812 252.376C279.812 251.672 280.02 251.032 280.436 250.456C280.852 249.864 281.444 249.4 282.212 249.064C282.996 248.728 283.892 248.56 284.9 248.56C286.404 248.56 287.612 248.944 288.524 249.712C289.452 250.464 289.948 251.496 290.012 252.808H287.276C287.228 252.216 286.988 251.744 286.556 251.392C286.124 251.04 285.54 250.864 284.804 250.864C284.084 250.864 283.532 251 283.148 251.272C282.764 251.544 282.572 251.904 282.572 252.352C282.572 252.704 282.7 253 282.956 253.24C283.212 253.48 283.524 253.672 283.892 253.816C284.26 253.944 284.804 254.112 285.524 254.32C286.484 254.576 287.268 254.84 287.876 255.112C288.5 255.368 289.036 255.752 289.484 256.264C289.932 256.776 290.164 257.456 290.18 258.304C290.18 259.056 289.972 259.728 289.556 260.32C289.14 260.912 288.548 261.376 287.78 261.712C287.028 262.048 286.14 262.216 285.116 262.216ZM299.976 248.56C300.984 248.56 301.88 248.776 302.664 249.208C303.464 249.64 304.088 250.28 304.536 251.128C305 251.976 305.232 253 305.232 254.2V262H302.52V254.608C302.52 253.424 302.224 252.52 301.632 251.896C301.04 251.256 300.232 250.936 299.208 250.936C298.184 250.936 297.368 251.256 296.76 251.896C296.168 252.52 295.872 253.424 295.872 254.608V262H293.136V244.24H295.872V250.312C296.336 249.752 296.92 249.32 297.624 249.016C298.344 248.712 299.128 248.56 299.976 248.56Z" fill="black"/>
<path id="Today: 09:15 AM" d="M200.384 279.88V281.368H197.424V291H195.6V281.368H192.624V279.88H200.384ZM206.055 291.144C205.223 291.144 204.471 290.957 203.799 290.584C203.127 290.2 202.599 289.667 202.215 288.984C201.831 288.291 201.639 287.491 201.639 286.584C201.639 285.688 201.837 284.893 202.231 284.2C202.626 283.507 203.165 282.973 203.847 282.6C204.53 282.227 205.293 282.04 206.135 282.04C206.978 282.04 207.741 282.227 208.423 282.6C209.106 282.973 209.645 283.507 210.039 284.2C210.434 284.893 210.631 285.688 210.631 286.584C210.631 287.48 210.429 288.275 210.023 288.968C209.618 289.661 209.063 290.2 208.359 290.584C207.666 290.957 206.898 291.144 206.055 291.144ZM206.055 289.56C206.525 289.56 206.962 289.448 207.367 289.224C207.783 289 208.119 288.664 208.375 288.216C208.631 287.768 208.759 287.224 208.759 286.584C208.759 285.944 208.637 285.405 208.391 284.968C208.146 284.52 207.821 284.184 207.415 283.96C207.01 283.736 206.573 283.624 206.103 283.624C205.634 283.624 205.197 283.736 204.791 283.96C204.397 284.184 204.082 284.52 203.847 284.968C203.613 285.405 203.495 285.944 203.495 286.584C203.495 287.533 203.735 288.269 204.215 288.792C204.706 289.304 205.319 289.56 206.055 289.56ZM211.826 286.552C211.826 285.667 212.008 284.883 212.37 284.2C212.744 283.517 213.245 282.989 213.874 282.616C214.514 282.232 215.224 282.04 216.002 282.04C216.578 282.04 217.144 282.168 217.698 282.424C218.264 282.669 218.712 283 219.042 283.416V279.16H220.882V291H219.042V289.672C218.744 290.099 218.328 290.451 217.794 290.728C217.272 291.005 216.669 291.144 215.986 291.144C215.218 291.144 214.514 290.952 213.874 290.568C213.245 290.173 212.744 289.629 212.37 288.936C212.008 288.232 211.826 287.437 211.826 286.552ZM219.042 286.584C219.042 285.976 218.914 285.448 218.658 285C218.413 284.552 218.088 284.211 217.682 283.976C217.277 283.741 216.84 283.624 216.37 283.624C215.901 283.624 215.464 283.741 215.058 283.976C214.653 284.2 214.322 284.536 214.066 284.984C213.821 285.421 213.698 285.944 213.698 286.552C213.698 287.16 213.821 287.693 214.066 288.152C214.322 288.611 214.653 288.963 215.058 289.208C215.474 289.443 215.912 289.56 216.37 289.56C216.84 289.56 217.277 289.443 217.682 289.208C218.088 288.973 218.413 288.632 218.658 288.184C218.914 287.725 219.042 287.192 219.042 286.584ZM222.67 286.552C222.67 285.667 222.851 284.883 223.214 284.2C223.587 283.517 224.089 282.989 224.718 282.616C225.358 282.232 226.062 282.04 226.83 282.04C227.523 282.04 228.126 282.179 228.638 282.456C229.161 282.723 229.577 283.059 229.886 283.464V282.184H231.726V291H229.886V289.688C229.577 290.104 229.155 290.451 228.622 290.728C228.089 291.005 227.481 291.144 226.798 291.144C226.041 291.144 225.347 290.952 224.718 290.568C224.089 290.173 223.587 289.629 223.214 288.936C222.851 288.232 222.67 287.437 222.67 286.552ZM229.886 286.584C229.886 285.976 229.758 285.448 229.502 285C229.257 284.552 228.931 284.211 228.526 283.976C228.121 283.741 227.683 283.624 227.214 283.624C226.745 283.624 226.307 283.741 225.902 283.976C225.497 284.2 225.166 284.536 224.91 284.984C224.665 285.421 224.542 285.944 224.542 286.552C224.542 287.16 224.665 287.693 224.91 288.152C225.166 288.611 225.497 288.963 225.902 289.208C226.318 289.443 226.755 289.56 227.214 289.56C227.683 289.56 228.121 289.443 228.526 289.208C228.931 288.973 229.257 288.632 229.502 288.184C229.758 287.725 229.886 287.192 229.886 286.584ZM242.058 282.184L236.65 295.144H234.762L236.554 290.856L233.082 282.184H235.114L237.594 288.904L240.17 282.184H242.058ZM244.17 291.112C243.84 291.112 243.562 291 243.338 290.776C243.114 290.552 243.002 290.275 243.002 289.944C243.002 289.613 243.114 289.336 243.338 289.112C243.562 288.888 243.84 288.776 244.17 288.776C244.49 288.776 244.762 288.888 244.986 289.112C245.21 289.336 245.322 289.613 245.322 289.944C245.322 290.275 245.21 290.552 244.986 290.776C244.762 291 244.49 291.112 244.17 291.112ZM244.17 284.392C243.84 284.392 243.562 284.28 243.338 284.056C243.114 283.832 243.002 283.555 243.002 283.224C243.002 282.893 243.114 282.616 243.338 282.392C243.562 282.168 243.84 282.056 244.17 282.056C244.49 282.056 244.762 282.168 244.986 282.392C245.21 282.616 245.322 282.893 245.322 283.224C245.322 283.555 245.21 283.832 244.986 284.056C244.762 284.28 244.49 284.392 244.17 284.392ZM251.273 285.016C251.273 283.171 251.582 281.731 252.201 280.696C252.83 279.651 253.907 279.128 255.433 279.128C256.958 279.128 258.03 279.651 258.649 280.696C259.278 281.731 259.593 283.171 259.593 285.016C259.593 286.883 259.278 288.344 258.649 289.4C258.03 290.445 256.958 290.968 255.433 290.968C253.907 290.968 252.83 290.445 252.201 289.4C251.582 288.344 251.273 286.883 251.273 285.016ZM257.801 285.016C257.801 284.152 257.742 283.421 257.625 282.824C257.518 282.227 257.294 281.741 256.953 281.368C256.611 280.984 256.105 280.792 255.433 280.792C254.761 280.792 254.254 280.984 253.913 281.368C253.571 281.741 253.342 282.227 253.225 282.824C253.118 283.421 253.065 284.152 253.065 285.016C253.065 285.912 253.118 286.664 253.225 287.272C253.331 287.88 253.555 288.371 253.897 288.744C254.249 289.117 254.761 289.304 255.433 289.304C256.105 289.304 256.611 289.117 256.953 288.744C257.305 288.371 257.534 287.88 257.641 287.272C257.747 286.664 257.801 285.912 257.801 285.016ZM263.795 287.832C263.901 288.365 264.131 288.771 264.483 289.048C264.835 289.325 265.309 289.464 265.907 289.464C266.664 289.464 267.219 289.165 267.571 288.568C267.923 287.971 268.099 286.952 268.099 285.512C267.843 285.875 267.48 286.157 267.011 286.36C266.552 286.552 266.051 286.648 265.507 286.648C264.813 286.648 264.184 286.509 263.619 286.232C263.053 285.944 262.605 285.523 262.275 284.968C261.955 284.403 261.795 283.72 261.795 282.92C261.795 281.747 262.136 280.813 262.819 280.12C263.512 279.416 264.461 279.064 265.667 279.064C267.117 279.064 268.147 279.549 268.755 280.52C269.373 281.48 269.683 282.957 269.683 284.952C269.683 286.328 269.565 287.453 269.331 288.328C269.107 289.203 268.712 289.864 268.147 290.312C267.581 290.76 266.797 290.984 265.795 290.984C264.653 290.984 263.773 290.685 263.155 290.088C262.536 289.491 262.189 288.739 262.115 287.832H263.795ZM265.827 285.112C266.467 285.112 266.968 284.915 267.331 284.52C267.704 284.115 267.891 283.581 267.891 282.92C267.891 282.184 267.693 281.613 267.299 281.208C266.915 280.792 266.387 280.584 265.715 280.584C265.043 280.584 264.509 280.797 264.115 281.224C263.731 281.64 263.539 282.189 263.539 282.872C263.539 283.523 263.725 284.061 264.099 284.488C264.483 284.904 265.059 285.112 265.827 285.112ZM272.655 291.112C272.324 291.112 272.047 291 271.823 290.776C271.599 290.552 271.487 290.275 271.487 289.944C271.487 289.613 271.599 289.336 271.823 289.112C272.047 288.888 272.324 288.776 272.655 288.776C272.975 288.776 273.247 288.888 273.471 289.112C273.695 289.336 273.807 289.613 273.807 289.944C273.807 290.275 273.695 290.552 273.471 290.776C273.247 291 272.975 291.112 272.655 291.112ZM272.655 284.392C272.324 284.392 272.047 284.28 271.823 284.056C271.599 283.832 271.487 283.555 271.487 283.224C271.487 282.893 271.599 282.616 271.823 282.392C272.047 282.168 272.324 282.056 272.655 282.056C272.975 282.056 273.247 282.168 273.471 282.392C273.695 282.616 273.807 282.893 273.807 283.224C273.807 283.555 273.695 283.832 273.471 284.056C273.247 284.28 272.975 284.392 272.655 284.392ZM275.361 281V279.336H278.689V291H276.849V281H275.361ZM288.714 280.904H283.354V284.088C283.578 283.789 283.909 283.539 284.346 283.336C284.794 283.133 285.269 283.032 285.77 283.032C286.666 283.032 287.392 283.224 287.946 283.608C288.512 283.992 288.912 284.477 289.146 285.064C289.392 285.651 289.514 286.269 289.514 286.92C289.514 287.709 289.36 288.413 289.05 289.032C288.752 289.64 288.298 290.12 287.69 290.472C287.093 290.824 286.357 291 285.482 291C284.32 291 283.386 290.712 282.682 290.136C281.978 289.56 281.557 288.797 281.418 287.848H283.194C283.312 288.349 283.573 288.749 283.978 289.048C284.384 289.336 284.89 289.48 285.498 289.48C286.256 289.48 286.821 289.251 287.194 288.792C287.578 288.333 287.77 287.725 287.77 286.968C287.77 286.2 287.578 285.613 287.194 285.208C286.81 284.792 286.245 284.584 285.498 284.584C284.976 284.584 284.533 284.717 284.17 284.984C283.818 285.24 283.562 285.592 283.402 286.04H281.674V279.304H288.714V280.904ZM302.513 288.728H297.857L297.057 291H295.153L299.137 279.864H301.249L305.233 291H303.313L302.513 288.728ZM302.001 287.24L300.193 282.072L298.369 287.24H302.001ZM318.678 279.88V291H316.854V283.384L313.462 291H312.198L308.79 283.384V291H306.966V279.88H308.934L312.838 288.6L316.726 279.88H318.678Z" fill="#787878"/>
</g>
</g>
<g id="Frame 313376" filter="url(#filter1_d_87_151)">
<mask id="path-19-inside-2_87_151" fill="white">
<path d="M172 395C172 386.163 179.163 379 188 379H452C460.837 379 468 386.163 468 395V455C468 463.837 460.837 471 452 471H188C179.163 471 172 463.837 172 455V395Z"/>
</mask>
<path d="M161 395C161 385.611 168.611 378 178 378H452C461.389 378 469 385.611 469 395H467C467 386.716 460.284 380 452 380H188C185.239 380 183 386.716 183 395H161ZM469 455C469 464.389 461.389 472 452 472H178C168.611 472 161 464.389 161 455H183C183 463.284 185.239 470 188 470H452C460.284 470 467 463.284 467 455H469ZM178 472C168.611 472 161 464.389 161 455V395C161 385.611 168.611 378 178 378L188 380C185.239 380 183 386.716 183 395V455C183 463.284 185.239 470 188 470L178 472ZM452 378C461.389 378 469 385.611 469 395V455C469 464.389 461.389 472 452 472V470C460.284 470 467 463.284 467 455V395C467 386.716 460.284 380 452 380V378Z" fill="#FF1100" mask="url(#path-19-inside-2_87_151)"/>
<g id="Frame 313380_2">
<path id="Internal Cleaning" d="M198.032 396.272V413H195.848V396.272H198.032ZM208.162 399.608C209.762 399.608 211.058 400.096 212.05 401.072C213.042 402.032 213.538 403.424 213.538 405.248V413H211.378V405.56C211.378 404.248 211.05 403.248 210.394 402.56C209.738 401.856 208.842 401.504 207.706 401.504C206.554 401.504 205.634 401.864 204.946 402.584C204.274 403.304 203.938 404.352 203.938 405.728V413H201.754V399.848H203.938V401.72C204.37 401.048 204.954 400.528 205.69 400.16C206.442 399.792 207.266 399.608 208.162 399.608ZM219.77 401.648V409.4C219.77 410.04 219.906 410.496 220.178 410.768C220.45 411.024 220.922 411.152 221.594 411.152H223.202V413H221.234C220.018 413 219.106 412.72 218.498 412.16C217.89 411.6 217.586 410.68 217.586 409.4V401.648H215.882V399.848H217.586V396.536H219.77V399.848H223.202V401.648H219.77ZM237.848 405.92C237.848 406.336 237.824 406.776 237.776 407.24H227.264C227.344 408.536 227.784 409.552 228.584 410.288C229.4 411.008 230.384 411.368 231.536 411.368C232.48 411.368 233.264 411.152 233.888 410.72C234.528 410.272 234.976 409.68 235.232 408.944H237.584C237.232 410.208 236.528 411.24 235.472 412.04C234.416 412.824 233.104 413.216 231.536 413.216C230.288 413.216 229.168 412.936 228.176 412.376C227.2 411.816 226.432 411.024 225.872 410C225.312 408.96 225.032 407.76 225.032 406.4C225.032 405.04 225.304 403.848 225.848 402.824C226.392 401.8 227.152 401.016 228.128 400.472C229.12 399.912 230.256 399.632 231.536 399.632C232.784 399.632 233.888 399.904 234.848 400.448C235.808 400.992 236.544 401.744 237.056 402.704C237.584 403.648 237.848 404.72 237.848 405.92ZM235.592 405.464C235.592 404.632 235.408 403.92 235.04 403.328C234.672 402.72 234.168 402.264 233.528 401.96C232.904 401.64 232.208 401.48 231.44 401.48C230.336 401.48 229.392 401.832 228.608 402.536C227.84 403.24 227.4 404.216 227.288 405.464H235.592ZM242.915 401.984C243.299 401.232 243.843 400.648 244.547 400.232C245.267 399.816 246.139 399.608 247.163 399.608V401.864H246.587C244.139 401.864 242.915 403.192 242.915 405.848V413H240.731V399.848H242.915V401.984ZM256.092 399.608C257.692 399.608 258.988 400.096 259.98 401.072C260.972 402.032 261.468 403.424 261.468 405.248V413H259.308V405.56C259.308 404.248 258.98 403.248 258.324 402.56C257.668 401.856 256.772 401.504 255.636 401.504C254.484 401.504 253.564 401.864 252.876 402.584C252.204 403.304 251.868 404.352 251.868 405.728V413H249.684V399.848H251.868V401.72C252.3 401.048 252.884 400.528 253.62 400.16C254.372 399.792 255.196 399.608 256.092 399.608ZM264.22 406.376C264.22 405.032 264.492 403.856 265.036 402.848C265.58 401.824 266.324 401.032 267.268 400.472C268.228 399.912 269.292 399.632 270.46 399.632C271.612 399.632 272.612 399.88 273.46 400.376C274.308 400.872 274.94 401.496 275.356 402.248V399.848H277.564V413H275.356V410.552C274.924 411.32 274.276 411.96 273.412 412.472C272.564 412.968 271.572 413.216 270.436 413.216C269.268 413.216 268.212 412.928 267.268 412.352C266.324 411.776 265.58 410.968 265.036 409.928C264.492 408.888 264.22 407.704 264.22 406.376ZM275.356 406.4C275.356 405.408 275.156 404.544 274.756 403.808C274.356 403.072 273.812 402.512 273.124 402.128C272.452 401.728 271.708 401.528 270.892 401.528C270.076 401.528 269.332 401.72 268.66 402.104C267.988 402.488 267.452 403.048 267.052 403.784C266.652 404.52 266.452 405.384 266.452 406.376C266.452 407.384 266.652 408.264 267.052 409.016C267.452 409.752 267.988 410.32 268.66 410.72C269.332 411.104 270.076 411.296 270.892 411.296C271.708 411.296 272.452 411.104 273.124 410.72C273.812 410.32 274.356 409.752 274.756 409.016C275.156 408.264 275.356 407.392 275.356 406.4ZM283.438 395.24V413H281.254V395.24H283.438ZM292.743 404.624C292.743 402.992 293.111 401.528 293.847 400.232C294.583 398.92 295.583 397.896 296.847 397.16C298.127 396.424 299.543 396.056 301.095 396.056C302.919 396.056 304.511 396.496 305.871 397.376C307.231 398.256 308.223 399.504 308.847 401.12H306.231C305.767 400.112 305.095 399.336 304.215 398.792C303.351 398.248 302.311 397.976 301.095 397.976C299.927 397.976 298.879 398.248 297.951 398.792C297.023 399.336 296.295 400.112 295.767 401.12C295.239 402.112 294.975 403.28 294.975 404.624C294.975 405.952 295.239 407.12 295.767 408.128C296.295 409.12 297.023 409.888 297.951 410.432C298.879 410.976 299.927 411.248 301.095 411.248C302.311 411.248 303.351 410.984 304.215 410.456C305.095 409.912 305.767 409.136 306.231 408.128H308.847C308.223 409.728 307.231 410.968 305.871 411.848C304.511 412.712 302.919 413.144 301.095 413.144C299.543 413.144 298.127 412.784 296.847 412.064C295.583 411.328 294.583 410.312 293.847 409.016C293.111 407.72 292.743 406.256 292.743 404.624ZM314.282 395.24V413H312.098V395.24H314.282ZM330.004 405.92C330.004 406.336 329.98 406.776 329.932 407.24H319.42C319.5 408.536 319.94 409.552 320.74 410.288C321.556 411.008 322.54 411.368 323.692 411.368C324.636 411.368 325.42 411.152 326.044 410.72C326.684 410.272 327.132 409.68 327.388 408.944H329.74C329.388 410.208 328.684 411.24 327.628 412.04C326.572 412.824 325.26 413.216 323.692 413.216C322.444 413.216 321.324 412.936 320.332 412.376C319.356 411.816 318.588 411.024 318.028 410C317.468 408.96 317.188 407.76 317.188 406.4C317.188 405.04 317.46 403.848 318.004 402.824C318.548 401.8 319.308 401.016 320.284 400.472C321.276 399.912 322.412 399.632 323.692 399.632C324.94 399.632 326.044 399.904 327.004 400.448C327.964 400.992 328.7 401.744 329.212 402.704C329.74 403.648 330.004 404.72 330.004 405.92ZM327.748 405.464C327.748 404.632 327.564 403.92 327.196 403.328C326.828 402.72 326.324 402.264 325.684 401.96C325.06 401.64 324.364 401.48 323.596 401.48C322.492 401.48 321.548 401.832 320.764 402.536C319.996 403.24 319.556 404.216 319.444 405.464H327.748ZM332.071 406.376C332.071 405.032 332.343 403.856 332.887 402.848C333.431 401.824 334.175 401.032 335.119 400.472C336.079 399.912 337.143 399.632 338.311 399.632C339.463 399.632 340.463 399.88 341.311 400.376C342.159 400.872 342.791 401.496 343.207 402.248V399.848H345.415V413H343.207V410.552C342.775 411.32 342.127 411.96 341.263 412.472C340.415 412.968 339.423 413.216 338.287 413.216C337.119 413.216 336.063 412.928 335.119 412.352C334.175 411.776 333.431 410.968 332.887 409.928C332.343 408.888 332.071 407.704 332.071 406.376ZM343.207 406.4C343.207 405.408 343.007 404.544 342.607 403.808C342.207 403.072 341.663 402.512 340.975 402.128C340.303 401.728 339.559 401.528 338.743 401.528C337.927 401.528 337.183 401.72 336.511 402.104C335.839 402.488 335.303 403.048 334.903 403.784C334.503 404.52 334.303 405.384 334.303 406.376C334.303 407.384 334.503 408.264 334.903 409.016C335.303 409.752 335.839 410.32 336.511 410.72C337.183 411.104 337.927 411.296 338.743 411.296C339.559 411.296 340.303 411.104 340.975 410.72C341.663 410.32 342.207 409.752 342.607 409.016C343.007 408.264 343.207 407.392 343.207 406.4ZM355.514 399.608C357.114 399.608 358.41 400.096 359.402 401.072C360.394 402.032 360.89 403.424 360.89 405.248V413H358.73V405.56C358.73 404.248 358.402 403.248 357.746 402.56C357.09 401.856 356.194 401.504 355.058 401.504C353.906 401.504 352.986 401.864 352.298 402.584C351.626 403.304 351.29 404.352 351.29 405.728V413H349.106V399.848H351.29V401.72C351.722 401.048 352.306 400.528 353.042 400.16C353.794 399.792 354.618 399.608 355.514 399.608ZM365.585 397.712C365.169 397.712 364.817 397.568 364.529 397.28C364.241 396.992 364.097 396.64 364.097 396.224C364.097 395.808 364.241 395.456 364.529 395.168C364.817 394.88 365.169 394.736 365.585 394.736C365.985 394.736 366.321 394.88 366.593 395.168C366.881 395.456 367.025 395.808 367.025 396.224C367.025 396.64 366.881 396.992 366.593 397.28C366.321 397.568 365.985 397.712 365.585 397.712ZM366.641 399.848V413H364.457V399.848H366.641ZM376.772 399.608C378.372 399.608 379.668 400.096 380.66 401.072C381.652 402.032 382.148 403.424 382.148 405.248V413H379.988V405.56C379.988 404.248 379.66 403.248 379.004 402.56C378.348 401.856 377.452 401.504 376.316 401.504C375.164 401.504 374.244 401.864 373.556 402.584C372.884 403.304 372.548 404.352 372.548 405.728V413H370.364V399.848H372.548V401.72C372.98 401.048 373.564 400.528 374.3 400.16C375.052 399.792 375.876 399.608 376.772 399.608ZM391.139 399.632C392.275 399.632 393.267 399.88 394.115 400.376C394.979 400.872 395.619 401.496 396.035 402.248V399.848H398.243V413.288C398.243 414.488 397.987 415.552 397.475 416.48C396.963 417.424 396.227 418.16 395.267 418.688C394.323 419.216 393.219 419.48 391.955 419.48C390.227 419.48 388.787 419.072 387.635 418.256C386.483 417.44 385.803 416.328 385.595 414.92H387.755C387.995 415.72 388.491 416.36 389.243 416.84C389.995 417.336 390.899 417.584 391.955 417.584C393.155 417.584 394.131 417.208 394.883 416.456C395.651 415.704 396.035 414.648 396.035 413.288V410.528C395.603 411.296 394.963 411.936 394.115 412.448C393.267 412.96 392.275 413.216 391.139 413.216C389.971 413.216 388.907 412.928 387.947 412.352C387.003 411.776 386.259 410.968 385.715 409.928C385.171 408.888 384.899 407.704 384.899 406.376C384.899 405.032 385.171 403.856 385.715 402.848C386.259 401.824 387.003 401.032 387.947 400.472C388.907 399.912 389.971 399.632 391.139 399.632ZM396.035 406.4C396.035 405.408 395.835 404.544 395.435 403.808C395.035 403.072 394.491 402.512 393.803 402.128C393.131 401.728 392.387 401.528 391.571 401.528C390.755 401.528 390.011 401.72 389.339 402.104C388.667 402.488 388.131 403.048 387.731 403.784C387.331 404.52 387.131 405.384 387.131 406.376C387.131 407.384 387.331 408.264 387.731 409.016C388.131 409.752 388.667 410.32 389.339 410.72C390.011 411.104 390.755 411.296 391.571 411.296C392.387 411.296 393.131 411.104 393.803 410.72C394.491 410.32 395.035 409.752 395.435 409.016C395.835 408.264 396.035 407.392 396.035 406.4Z" fill="black"/>
<path id="Today: 09:45 AM" d="M206.384 430.88V432.368H203.424V442H201.6V432.368H198.624V430.88H206.384ZM212.055 442.144C211.223 442.144 210.471 441.957 209.799 441.584C209.127 441.2 208.599 440.667 208.215 439.984C207.831 439.291 207.639 438.491 207.639 437.584C207.639 436.688 207.837 435.893 208.231 435.2C208.626 434.507 209.165 433.973 209.847 433.6C210.53 433.227 211.293 433.04 212.135 433.04C212.978 433.04 213.741 433.227 214.423 433.6C215.106 433.973 215.645 434.507 216.039 435.2C216.434 435.893 216.631 436.688 216.631 437.584C216.631 438.48 216.429 439.275 216.023 439.968C215.618 440.661 215.063 441.2 214.359 441.584C213.666 441.957 212.898 442.144 212.055 442.144ZM212.055 440.56C212.525 440.56 212.962 440.448 213.367 440.224C213.783 440 214.119 439.664 214.375 439.216C214.631 438.768 214.759 438.224 214.759 437.584C214.759 436.944 214.637 436.405 214.391 435.968C214.146 435.52 213.821 435.184 213.415 434.96C213.01 434.736 212.573 434.624 212.103 434.624C211.634 434.624 211.197 434.736 210.791 434.96C210.397 435.184 210.082 435.52 209.847 435.968C209.613 436.405 209.495 436.944 209.495 437.584C209.495 438.533 209.735 439.269 210.215 439.792C210.706 440.304 211.319 440.56 212.055 440.56ZM217.826 437.552C217.826 436.667 218.008 435.883 218.37 435.2C218.744 434.517 219.245 433.989 219.874 433.616C220.514 433.232 221.224 433.04 222.002 433.04C222.578 433.04 223.144 433.168 223.698 433.424C224.264 433.669 224.712 434 225.042 434.416V430.16H226.882V442H225.042V440.672C224.744 441.099 224.328 441.451 223.794 441.728C223.272 442.005 222.669 442.144 221.986 442.144C221.218 442.144 220.514 441.952 219.874 441.568C219.245 441.173 218.744 440.629 218.37 439.936C218.008 439.232 217.826 438.437 217.826 437.552ZM225.042 437.584C225.042 436.976 224.914 436.448 224.658 436C224.413 435.552 224.088 435.211 223.682 434.976C223.277 434.741 222.84 434.624 222.37 434.624C221.901 434.624 221.464 434.741 221.058 434.976C220.653 435.2 220.322 435.536 220.066 435.984C219.821 436.421 219.698 436.944 219.698 437.552C219.698 438.16 219.821 438.693 220.066 439.152C220.322 439.611 220.653 439.963 221.058 440.208C221.474 440.443 221.912 440.56 222.37 440.56C222.84 440.56 223.277 440.443 223.682 440.208C224.088 439.973 224.413 439.632 224.658 439.184C224.914 438.725 225.042 438.192 225.042 437.584ZM228.67 437.552C228.67 436.667 228.851 435.883 229.214 435.2C229.587 434.517 230.089 433.989 230.718 433.616C231.358 433.232 232.062 433.04 232.83 433.04C233.523 433.04 234.126 433.179 234.638 433.456C235.161 433.723 235.577 434.059 235.886 434.464V433.184H237.726V442H235.886V440.688C235.577 441.104 235.155 441.451 234.622 441.728C234.089 442.005 233.481 442.144 232.798 442.144C232.041 442.144 231.347 441.952 230.718 441.568C230.089 441.173 229.587 440.629 229.214 439.936C228.851 439.232 228.67 438.437 228.67 437.552ZM235.886 437.584C235.886 436.976 235.758 436.448 235.502 436C235.257 435.552 234.931 435.211 234.526 434.976C234.121 434.741 233.683 434.624 233.214 434.624C232.745 434.624 232.307 434.741 231.902 434.976C231.497 435.2 231.166 435.536 230.91 435.984C230.665 436.421 230.542 436.944 230.542 437.552C230.542 438.16 230.665 438.693 230.91 439.152C231.166 439.611 231.497 439.963 231.902 440.208C232.318 440.443 232.755 440.56 233.214 440.56C233.683 440.56 234.121 440.443 234.526 440.208C234.931 439.973 235.257 439.632 235.502 439.184C235.758 438.725 235.886 438.192 235.886 437.584ZM248.058 433.184L242.65 446.144H240.762L242.554 441.856L239.082 433.184H241.114L243.594 439.904L246.17 433.184H248.058ZM250.17 442.112C249.84 442.112 249.562 442 249.338 441.776C249.114 441.552 249.002 441.275 249.002 440.944C249.002 440.613 249.114 440.336 249.338 440.112C249.562 439.888 249.84 439.776 250.17 439.776C250.49 439.776 250.762 439.888 250.986 440.112C251.21 440.336 251.322 440.613 251.322 440.944C251.322 441.275 251.21 441.552 250.986 441.776C250.762 442 250.49 442.112 250.17 442.112ZM250.17 435.392C249.84 435.392 249.562 435.28 249.338 435.056C249.114 434.832 249.002 434.555 249.002 434.224C249.002 433.893 249.114 433.616 249.338 433.392C249.562 433.168 249.84 433.056 250.17 433.056C250.49 433.056 250.762 433.168 250.986 433.392C251.21 433.616 251.322 433.893 251.322 434.224C251.322 434.555 251.21 434.832 250.986 435.056C250.762 435.28 250.49 435.392 250.17 435.392ZM257.273 436.016C257.273 434.171 257.582 432.731 258.201 431.696C258.83 430.651 259.907 430.128 261.433 430.128C262.958 430.128 264.03 430.651 264.649 431.696C265.278 432.731 265.593 434.171 265.593 436.016C265.593 437.883 265.278 439.344 264.649 440.4C264.03 441.445 262.958 441.968 261.433 441.968C259.907 441.968 258.83 441.445 258.201 440.4C257.582 439.344 257.273 437.883 257.273 436.016ZM263.801 436.016C263.801 435.152 263.742 434.421 263.625 433.824C263.518 433.227 263.294 432.741 262.953 432.368C262.611 431.984 262.105 431.792 261.433 431.792C260.761 431.792 260.254 431.984 259.913 432.368C259.571 432.741 259.342 433.227 259.225 433.824C259.118 434.421 259.065 435.152 259.065 436.016C259.065 436.912 259.118 437.664 259.225 438.272C259.331 438.88 259.555 439.371 259.897 439.744C260.249 440.117 260.761 440.304 261.433 440.304C262.105 440.304 262.611 440.117 262.953 439.744C263.305 439.371 263.534 438.88 263.641 438.272C263.747 437.664 263.801 436.912 263.801 436.016ZM269.795 438.832C269.901 439.365 270.131 439.771 270.483 440.048C270.835 440.325 271.309 440.464 271.907 440.464C272.664 440.464 273.219 440.165 273.571 439.568C273.923 438.971 274.099 437.952 274.099 436.512C273.843 436.875 273.48 437.157 273.011 437.36C272.552 437.552 272.051 437.648 271.507 437.648C270.813 437.648 270.184 437.509 269.619 437.232C269.053 436.944 268.605 436.523 268.275 435.968C267.955 435.403 267.795 434.72 267.795 433.92C267.795 432.747 268.136 431.813 268.819 431.12C269.512 430.416 270.461 430.064 271.667 430.064C273.117 430.064 274.147 430.549 274.755 431.52C275.373 432.48 275.683 433.957 275.683 435.952C275.683 437.328 275.565 438.453 275.331 439.328C275.107 440.203 274.712 440.864 274.147 441.312C273.581 441.76 272.797 441.984 271.795 441.984C270.653 441.984 269.773 441.685 269.155 441.088C268.536 440.491 268.189 439.739 268.115 438.832H269.795ZM271.827 436.112C272.467 436.112 272.968 435.915 273.331 435.52C273.704 435.115 273.891 434.581 273.891 433.92C273.891 433.184 273.693 432.613 273.299 432.208C272.915 431.792 272.387 431.584 271.715 431.584C271.043 431.584 270.509 431.797 270.115 432.224C269.731 432.64 269.539 433.189 269.539 433.872C269.539 434.523 269.725 435.061 270.099 435.488C270.483 435.904 271.059 436.112 271.827 436.112ZM278.655 442.112C278.324 442.112 278.047 442 277.823 441.776C277.599 441.552 277.487 441.275 277.487 440.944C277.487 440.613 277.599 440.336 277.823 440.112C278.047 439.888 278.324 439.776 278.655 439.776C278.975 439.776 279.247 439.888 279.471 440.112C279.695 440.336 279.807 440.613 279.807 440.944C279.807 441.275 279.695 441.552 279.471 441.776C279.247 442 278.975 442.112 278.655 442.112ZM278.655 435.392C278.324 435.392 278.047 435.28 277.823 435.056C277.599 434.832 277.487 434.555 277.487 434.224C277.487 433.893 277.599 433.616 277.823 433.392C278.047 433.168 278.324 433.056 278.655 433.056C278.975 433.056 279.247 433.168 279.471 433.392C279.695 433.616 279.807 433.893 279.807 434.224C279.807 434.555 279.695 434.832 279.471 435.056C279.247 435.28 278.975 435.392 278.655 435.392ZM281.377 439.568V438.192L286.753 430.48H288.961V437.984H290.449V439.568H288.961V442H287.169V439.568H281.377ZM287.249 432.336L283.473 437.984H287.249V432.336ZM299.48 431.904H294.12V435.088C294.344 434.789 294.675 434.539 295.112 434.336C295.56 434.133 296.035 434.032 296.536 434.032C297.432 434.032 298.157 434.224 298.712 434.608C299.277 434.992 299.677 435.477 299.912 436.064C300.157 436.651 300.28 437.269 300.28 437.92C300.28 438.709 300.125 439.413 299.816 440.032C299.517 440.64 299.064 441.12 298.456 441.472C297.859 441.824 297.123 442 296.248 442C295.085 442 294.152 441.712 293.448 441.136C292.744 440.56 292.323 439.797 292.184 438.848H293.96C294.077 439.349 294.339 439.749 294.744 440.048C295.149 440.336 295.656 440.48 296.264 440.48C297.021 440.48 297.587 440.251 297.96 439.792C298.344 439.333 298.536 438.725 298.536 437.968C298.536 437.2 298.344 436.613 297.96 436.208C297.576 435.792 297.011 435.584 296.264 435.584C295.741 435.584 295.299 435.717 294.936 435.984C294.584 436.24 294.328 436.592 294.168 437.04H292.44V430.304H299.48V431.904ZM313.279 439.728H308.623L307.823 442H305.919L309.903 430.864H312.015L315.999 442H314.079L313.279 439.728ZM312.767 438.24L310.959 433.072L309.135 438.24H312.767ZM329.443 430.88V442H327.619V434.384L324.227 442H322.963L319.555 434.384V442H317.731V430.88H319.699L323.603 439.6L327.491 430.88H329.443Z" fill="#787878"/>
</g>
</g>
<path id="Vector 11" d="M239 865.5H352" stroke="#070707" stroke-width="8" stroke-linecap="round"/>
<g id="Frame 313371">
<g id="iPhone X (or newer)">
<g id="Right Side">
<g id="Battery">
<path id="Rectangle" opacity="0.35" d="M450.667 17.8311H467.333C468.53 17.8311 469.5 18.8011 469.5 19.9977V25.9977C469.5 27.1943 468.53 28.1644 467.333 28.1644H450.667C449.47 28.1644 448.5 27.1943 448.5 25.9977V19.9977C448.5 18.8011 449.47 17.8311 450.667 17.8311Z" stroke="black"/>
<path id="Combined Shape" opacity="0.4" d="M471 20.998V24.998C471.805 24.6593 472.328 23.8712 472.328 22.998C472.328 22.1249 471.805 21.3368 471 20.998" fill="black"/>
<path id="Rectangle_2" d="M450 20.6644C450 19.928 450.597 19.3311 451.333 19.3311H466.667C467.403 19.3311 468 19.928 468 20.6644V25.3311C468 26.0674 467.403 26.6644 466.667 26.6644H451.333C450.597 26.6644 450 26.0674 450 25.3311V20.6644Z" fill="black"/>
</g>
<path id="Wifi" fill-rule="evenodd" clip-rule="evenodd" d="M435.332 19.6055C437.548 19.6055 439.679 20.457 441.285 21.9838C441.406 22.1017 441.599 22.1002 441.718 21.9805L442.874 20.8138C442.935 20.7531 442.968 20.6708 442.968 20.5852C442.967 20.4997 442.933 20.4178 442.872 20.3578C438.656 16.3182 432.007 16.3182 427.792 20.3578C427.731 20.4178 427.696 20.4996 427.695 20.5852C427.695 20.6707 427.728 20.753 427.789 20.8138L428.945 21.9805C429.064 22.1004 429.257 22.1018 429.378 21.9838C430.984 20.4569 433.116 19.6054 435.332 19.6055ZM435.333 23.401C436.55 23.4009 437.724 23.8535 438.627 24.6707C438.749 24.7867 438.941 24.7842 439.06 24.665L440.215 23.4984C440.276 23.4372 440.309 23.3541 440.308 23.2679C440.307 23.1816 440.272 23.0993 440.21 23.0394C437.462 20.483 433.206 20.483 430.458 23.0394C430.396 23.0993 430.36 23.1817 430.359 23.2679C430.359 23.3542 430.392 23.4373 430.453 23.4984L431.608 24.665C431.727 24.7842 431.919 24.7867 432.041 24.6707C432.943 23.854 434.116 23.4015 435.333 23.401ZM437.646 25.9546C437.648 26.0411 437.614 26.1245 437.552 26.1851L435.554 28.2008C435.496 28.26 435.416 28.2934 435.333 28.2934C435.249 28.2934 435.17 28.26 435.111 28.2008L433.113 26.1851C433.052 26.1245 433.018 26.041 433.02 25.9545C433.021 25.868 433.059 25.7861 433.123 25.7281C434.399 24.6492 436.267 24.6492 437.542 25.7281C437.607 25.7861 437.644 25.8681 437.646 25.9546Z" fill="black"/>
<path id="Mobile Signal" fill-rule="evenodd" clip-rule="evenodd" d="M421.668 17.6641H420.668C420.116 17.6641 419.668 18.1118 419.668 18.6641V27.3307C419.668 27.883 420.116 28.3307 420.668 28.3307H421.668C422.22 28.3307 422.668 27.883 422.668 27.3307V18.6641C422.668 18.1118 422.22 17.6641 421.668 17.6641ZM416 19.9971H417C417.552 19.9971 418 20.4448 418 20.9971V27.3304C418 27.8827 417.552 28.3304 417 28.3304H416C415.448 28.3304 415 27.8827 415 27.3304V20.9971C415 20.4448 415.448 19.9971 416 19.9971ZM412.336 22.3311H411.336C410.784 22.3311 410.336 22.7788 410.336 23.3311V27.3311C410.336 27.8833 410.784 28.3311 411.336 28.3311H412.336C412.888 28.3311 413.336 27.8833 413.336 27.3311V23.3311C413.336 22.7788 412.888 22.3311 412.336 22.3311ZM407.668 24.3311H406.668C406.116 24.3311 405.668 24.7788 405.668 25.3311V27.3311C405.668 27.8833 406.116 28.3311 406.668 28.3311H407.668C408.22 28.3311 408.668 27.8833 408.668 27.3311V25.3311C408.668 24.7788 408.22 24.3311 407.668 24.3311Z" fill="black"/>
</g>
<g id="Left Side">
<g id="Time">
<g id="9:41">
<path d="M125.32 28.2568C128.008 28.2568 129.605 26.1548 129.605 22.5952C129.605 21.2549 129.349 20.127 128.858 19.2554C128.147 17.9004 126.924 17.168 125.379 17.168C123.079 17.168 121.453 18.7134 121.453 20.8813C121.453 22.9175 122.918 24.397 124.932 24.397C126.17 24.397 127.173 23.8184 127.671 22.8149H127.693C127.693 22.8149 127.723 22.8149 127.73 22.8149C127.745 22.8149 127.796 22.8149 127.796 22.8149C127.796 25.2319 126.88 26.6748 125.335 26.6748C124.427 26.6748 123.724 26.1768 123.482 25.3784H121.6C121.915 27.1143 123.387 28.2568 125.32 28.2568ZM125.386 22.8955C124.17 22.8955 123.306 22.0312 123.306 20.8228C123.306 19.6436 124.214 18.7427 125.394 18.7427C126.573 18.7427 127.481 19.6582 127.481 20.8521C127.481 22.0312 126.595 22.8955 125.386 22.8955Z" fill="black"/>
<path d="M132.696 28.1543C133.392 28.1543 133.868 27.6562 133.868 26.9971C133.868 26.3306 133.392 25.8398 132.696 25.8398C132.008 25.8398 131.524 26.3306 131.524 26.9971C131.524 27.6562 132.008 28.1543 132.696 28.1543ZM132.696 22.6611C133.392 22.6611 133.868 22.1704 133.868 21.5112C133.868 20.8447 133.392 20.354 132.696 20.354C132.008 20.354 131.524 20.8447 131.524 21.5112C131.524 22.1704 132.008 22.6611 132.696 22.6611Z" fill="black"/>
<path d="M140.724 28.0005H142.533V26.0303H143.961V24.4336H142.533V17.4316H139.867C137.999 20.2441 136.512 22.5952 135.56 24.3457V26.0303H140.724V28.0005ZM137.311 24.3677C138.541 22.1997 139.64 20.4639 140.65 18.9697H140.753V24.4775H137.311V24.3677Z" fill="black"/>
<path d="M147.99 28.0005H149.879V17.4316H147.997L145.236 19.3652V21.1816L147.865 19.3359H147.99V28.0005Z" fill="black"/>
</g>
</g>
</g>
</g>
</g>
</g>
<rect x="94.5" y="0.5" width="401" height="873" rx="31.5" stroke="#A8A8A8"/>
</g>
<g id="Frame 313378" filter="url(#filter2_d_87_151)">
<mask id="path-31-inside-3_87_151" fill="white">
<path d="M246 527C246 518.163 253.163 511 262 511H526C534.837 511 542 518.163 542 527V648C542 656.837 534.837 664 526 664H262C253.163 664 246 656.837 246 648V527Z"/>
</mask>
<path d="M246 527C246 518.163 253.163 511 262 511H526C534.837 511 542 518.163 542 527V648C542 656.837 534.837 664 526 664H262C253.163 664 246 656.837 246 648V527Z" fill="white"/>
<path d="M235 527C235 517.611 242.611 510 252 510H526C535.389 510 543 517.611 543 527H541C541 518.716 534.284 512 526 512H262C259.239 512 257 518.716 257 527H235ZM543 648C543 657.389 535.389 665 526 665H252C242.611 665 235 657.389 235 648H257C257 656.284 259.239 663 262 663H526C534.284 663 541 656.284 541 648H543ZM252 665C242.611 665 235 657.389 235 648V527C235 517.611 242.611 510 252 510L262 512C259.239 512 257 518.716 257 527V648C257 656.284 259.239 663 262 663L252 665ZM526 510C535.389 510 543 517.611 543 527V648C543 657.389 535.389 665 526 665V663C534.284 663 541 656.284 541 648V527C541 518.716 534.284 512 526 512V510Z" fill="#FF1100" mask="url(#path-31-inside-3_87_151)"/>
<g id="Frame 313381">
<path id="Today: 10:05 AM" d="M277.384 617.88V619.368H274.424V629H272.6V619.368H269.624V617.88H277.384ZM283.055 629.144C282.223 629.144 281.471 628.957 280.799 628.584C280.127 628.2 279.599 627.667 279.215 626.984C278.831 626.291 278.639 625.491 278.639 624.584C278.639 623.688 278.837 622.893 279.231 622.2C279.626 621.507 280.165 620.973 280.847 620.6C281.53 620.227 282.293 620.04 283.135 620.04C283.978 620.04 284.741 620.227 285.423 620.6C286.106 620.973 286.645 621.507 287.039 622.2C287.434 622.893 287.631 623.688 287.631 624.584C287.631 625.48 287.429 626.275 287.023 626.968C286.618 627.661 286.063 628.2 285.359 628.584C284.666 628.957 283.898 629.144 283.055 629.144ZM283.055 627.56C283.525 627.56 283.962 627.448 284.367 627.224C284.783 627 285.119 626.664 285.375 626.216C285.631 625.768 285.759 625.224 285.759 624.584C285.759 623.944 285.637 623.405 285.391 622.968C285.146 622.52 284.821 622.184 284.415 621.96C284.01 621.736 283.573 621.624 283.103 621.624C282.634 621.624 282.197 621.736 281.791 621.96C281.397 622.184 281.082 622.52 280.847 622.968C280.613 623.405 280.495 623.944 280.495 624.584C280.495 625.533 280.735 626.269 281.215 626.792C281.706 627.304 282.319 627.56 283.055 627.56ZM288.826 624.552C288.826 623.667 289.008 622.883 289.37 622.2C289.744 621.517 290.245 620.989 290.874 620.616C291.514 620.232 292.224 620.04 293.002 620.04C293.578 620.04 294.144 620.168 294.698 620.424C295.264 620.669 295.712 621 296.042 621.416V617.16H297.882V629H296.042V627.672C295.744 628.099 295.328 628.451 294.794 628.728C294.272 629.005 293.669 629.144 292.986 629.144C292.218 629.144 291.514 628.952 290.874 628.568C290.245 628.173 289.744 627.629 289.37 626.936C289.008 626.232 288.826 625.437 288.826 624.552ZM296.042 624.584C296.042 623.976 295.914 623.448 295.658 623C295.413 622.552 295.088 622.211 294.682 621.976C294.277 621.741 293.84 621.624 293.37 621.624C292.901 621.624 292.464 621.741 292.058 621.976C291.653 622.2 291.322 622.536 291.066 622.984C290.821 623.421 290.698 623.944 290.698 624.552C290.698 625.16 290.821 625.693 291.066 626.152C291.322 626.611 291.653 626.963 292.058 627.208C292.474 627.443 292.912 627.56 293.37 627.56C293.84 627.56 294.277 627.443 294.682 627.208C295.088 626.973 295.413 626.632 295.658 626.184C295.914 625.725 296.042 625.192 296.042 624.584ZM299.67 624.552C299.67 623.667 299.851 622.883 300.214 622.2C300.587 621.517 301.089 620.989 301.718 620.616C302.358 620.232 303.062 620.04 303.83 620.04C304.523 620.04 305.126 620.179 305.638 620.456C306.161 620.723 306.577 621.059 306.886 621.464V620.184H308.726V629H306.886V627.688C306.577 628.104 306.155 628.451 305.622 628.728C305.089 629.005 304.481 629.144 303.798 629.144C303.041 629.144 302.347 628.952 301.718 628.568C301.089 628.173 300.587 627.629 300.214 626.936C299.851 626.232 299.67 625.437 299.67 624.552ZM306.886 624.584C306.886 623.976 306.758 623.448 306.502 623C306.257 622.552 305.931 622.211 305.526 621.976C305.121 621.741 304.683 621.624 304.214 621.624C303.745 621.624 303.307 621.741 302.902 621.976C302.497 622.2 302.166 622.536 301.91 622.984C301.665 623.421 301.542 623.944 301.542 624.552C301.542 625.16 301.665 625.693 301.91 626.152C302.166 626.611 302.497 626.963 302.902 627.208C303.318 627.443 303.755 627.56 304.214 627.56C304.683 627.56 305.121 627.443 305.526 627.208C305.931 626.973 306.257 626.632 306.502 626.184C306.758 625.725 306.886 625.192 306.886 624.584ZM319.058 620.184L313.65 633.144H311.762L313.554 628.856L310.082 620.184H312.114L314.594 626.904L317.17 620.184H319.058ZM321.17 629.112C320.84 629.112 320.562 629 320.338 628.776C320.114 628.552 320.002 628.275 320.002 627.944C320.002 627.613 320.114 627.336 320.338 627.112C320.562 626.888 320.84 626.776 321.17 626.776C321.49 626.776 321.762 626.888 321.986 627.112C322.21 627.336 322.322 627.613 322.322 627.944C322.322 628.275 322.21 628.552 321.986 628.776C321.762 629 321.49 629.112 321.17 629.112ZM321.17 622.392C320.84 622.392 320.562 622.28 320.338 622.056C320.114 621.832 320.002 621.555 320.002 621.224C320.002 620.893 320.114 620.616 320.338 620.392C320.562 620.168 320.84 620.056 321.17 620.056C321.49 620.056 321.762 620.168 321.986 620.392C322.21 620.616 322.322 620.893 322.322 621.224C322.322 621.555 322.21 621.832 321.986 622.056C321.762 622.28 321.49 622.392 321.17 622.392ZM328.033 619V617.336H331.361V629H329.521V619H328.033ZM333.866 623.016C333.866 621.171 334.176 619.731 334.794 618.696C335.424 617.651 336.501 617.128 338.026 617.128C339.552 617.128 340.624 617.651 341.242 618.696C341.872 619.731 342.186 621.171 342.186 623.016C342.186 624.883 341.872 626.344 341.242 627.4C340.624 628.445 339.552 628.968 338.026 628.968C336.501 628.968 335.424 628.445 334.794 627.4C334.176 626.344 333.866 624.883 333.866 623.016ZM340.394 623.016C340.394 622.152 340.336 621.421 340.218 620.824C340.112 620.227 339.888 619.741 339.546 619.368C339.205 618.984 338.698 618.792 338.026 618.792C337.354 618.792 336.848 618.984 336.506 619.368C336.165 619.741 335.936 620.227 335.818 620.824C335.712 621.421 335.658 622.152 335.658 623.016C335.658 623.912 335.712 624.664 335.818 625.272C335.925 625.88 336.149 626.371 336.49 626.744C336.842 627.117 337.354 627.304 338.026 627.304C338.698 627.304 339.205 627.117 339.546 626.744C339.898 626.371 340.128 625.88 340.234 625.272C340.341 624.664 340.394 623.912 340.394 623.016ZM345.092 629.112C344.762 629.112 344.484 629 344.26 628.776C344.036 628.552 343.924 628.275 343.924 627.944C343.924 627.613 344.036 627.336 344.26 627.112C344.484 626.888 344.762 626.776 345.092 626.776C345.412 626.776 345.684 626.888 345.908 627.112C346.132 627.336 346.244 627.613 346.244 627.944C346.244 628.275 346.132 628.552 345.908 628.776C345.684 629 345.412 629.112 345.092 629.112ZM345.092 622.392C344.762 622.392 344.484 622.28 344.26 622.056C344.036 621.832 343.924 621.555 343.924 621.224C343.924 620.893 344.036 620.616 344.26 620.392C344.484 620.168 344.762 620.056 345.092 620.056C345.412 620.056 345.684 620.168 345.908 620.392C346.132 620.616 346.244 620.893 346.244 621.224C346.244 621.555 346.132 621.832 345.908 622.056C345.684 622.28 345.412 622.392 345.092 622.392ZM348.038 623.016C348.038 621.171 348.347 619.731 348.966 618.696C349.595 617.651 350.673 617.128 352.198 617.128C353.723 617.128 354.795 617.651 355.414 618.696C356.043 619.731 356.358 621.171 356.358 623.016C356.358 624.883 356.043 626.344 355.414 627.4C354.795 628.445 353.723 628.968 352.198 628.968C350.673 628.968 349.595 628.445 348.966 627.4C348.347 626.344 348.038 624.883 348.038 623.016ZM354.566 623.016C354.566 622.152 354.507 621.421 354.39 620.824C354.283 620.227 354.059 619.741 353.718 619.368C353.377 618.984 352.87 618.792 352.198 618.792C351.526 618.792 351.019 618.984 350.678 619.368C350.337 619.741 350.107 620.227 349.99 620.824C349.883 621.421 349.83 622.152 349.83 623.016C349.83 623.912 349.883 624.664 349.99 625.272C350.097 625.88 350.321 626.371 350.662 626.744C351.014 627.117 351.526 627.304 352.198 627.304C352.87 627.304 353.377 627.117 353.718 626.744C354.07 626.371 354.299 625.88 354.406 625.272C354.513 624.664 354.566 623.912 354.566 623.016ZM365.808 618.904H360.448V622.088C360.672 621.789 361.003 621.539 361.44 621.336C361.888 621.133 362.363 621.032 362.864 621.032C363.76 621.032 364.485 621.224 365.04 621.608C365.605 621.992 366.005 622.477 366.24 623.064C366.485 623.651 366.608 624.269 366.608 624.92C366.608 625.709 366.453 626.413 366.144 627.032C365.845 627.64 365.392 628.12 364.784 628.472C364.187 628.824 363.451 629 362.576 629C361.413 629 360.48 628.712 359.776 628.136C359.072 627.56 358.651 626.797 358.512 625.848H360.288C360.405 626.349 360.667 626.749 361.072 627.048C361.477 627.336 361.984 627.48 362.592 627.48C363.349 627.48 363.915 627.251 364.288 626.792C364.672 626.333 364.864 625.725 364.864 624.968C364.864 624.2 364.672 623.613 364.288 623.208C363.904 622.792 363.339 622.584 362.592 622.584C362.069 622.584 361.627 622.717 361.264 622.984C360.912 623.24 360.656 623.592 360.496 624.04H358.768V617.304H365.808V618.904ZM379.607 626.728H374.951L374.151 629H372.247L376.231 617.864H378.343L382.327 629H380.407L379.607 626.728ZM379.095 625.24L377.287 620.072L375.463 625.24H379.095ZM395.771 617.88V629H393.947V621.384L390.555 629H389.291L385.883 621.384V629H384.059V617.88H386.027L389.931 626.6L393.819 617.88H395.771Z" fill="#787878"/>
</g>
<path id="Car Rubbing &#38; Waxing" d="M266.032 550.624C266.032 548.992 266.4 547.528 267.136 546.232C267.872 544.92 268.872 543.896 270.136 543.16C271.416 542.424 272.832 542.056 274.384 542.056C276.208 542.056 277.8 542.496 279.16 543.376C280.52 544.256 281.512 545.504 282.136 547.12H279.52C279.056 546.112 278.384 545.336 277.504 544.792C276.64 544.248 275.6 543.976 274.384 543.976C273.216 543.976 272.168 544.248 271.24 544.792C270.312 545.336 269.584 546.112 269.056 547.12C268.528 548.112 268.264 549.28 268.264 550.624C268.264 551.952 268.528 553.12 269.056 554.128C269.584 555.12 270.312 555.888 271.24 556.432C272.168 556.976 273.216 557.248 274.384 557.248C275.6 557.248 276.64 556.984 277.504 556.456C278.384 555.912 279.056 555.136 279.52 554.128H282.136C281.512 555.728 280.52 556.968 279.16 557.848C277.8 558.712 276.208 559.144 274.384 559.144C272.832 559.144 271.416 558.784 270.136 558.064C268.872 557.328 267.872 556.312 267.136 555.016C266.4 553.72 266.032 552.256 266.032 550.624ZM284.571 552.376C284.571 551.032 284.843 549.856 285.387 548.848C285.931 547.824 286.675 547.032 287.619 546.472C288.579 545.912 289.643 545.632 290.811 545.632C291.963 545.632 292.963 545.88 293.811 546.376C294.659 546.872 295.291 547.496 295.707 548.248V545.848H297.915V559H295.707V556.552C295.275 557.32 294.627 557.96 293.763 558.472C292.915 558.968 291.923 559.216 290.787 559.216C289.619 559.216 288.563 558.928 287.619 558.352C286.675 557.776 285.931 556.968 285.387 555.928C284.843 554.888 284.571 553.704 284.571 552.376ZM295.707 552.4C295.707 551.408 295.507 550.544 295.107 549.808C294.707 549.072 294.163 548.512 293.475 548.128C292.803 547.728 292.059 547.528 291.243 547.528C290.427 547.528 289.683 547.72 289.011 548.104C288.339 548.488 287.803 549.048 287.403 549.784C287.003 550.52 286.803 551.384 286.803 552.376C286.803 553.384 287.003 554.264 287.403 555.016C287.803 555.752 288.339 556.32 289.011 556.72C289.683 557.104 290.427 557.296 291.243 557.296C292.059 557.296 292.803 557.104 293.475 556.72C294.163 556.32 294.707 555.752 295.107 555.016C295.507 554.264 295.707 553.392 295.707 552.4ZM303.79 547.984C304.174 547.232 304.718 546.648 305.422 546.232C306.142 545.816 307.014 545.608 308.038 545.608V547.864H307.462C305.014 547.864 303.79 549.192 303.79 551.848V559H301.606V545.848H303.79V547.984ZM325.765 559L321.781 552.16H319.141V559H316.957V542.272H322.357C323.621 542.272 324.685 542.488 325.549 542.92C326.429 543.352 327.085 543.936 327.517 544.672C327.949 545.408 328.165 546.248 328.165 547.192C328.165 548.344 327.829 549.36 327.157 550.24C326.501 551.12 325.509 551.704 324.181 551.992L328.381 559H325.765ZM319.141 550.408H322.357C323.541 550.408 324.429 550.12 325.021 549.544C325.613 548.952 325.909 548.168 325.909 547.192C325.909 546.2 325.613 545.432 325.021 544.888C324.445 544.344 323.557 544.072 322.357 544.072H319.141V550.408ZM343.223 545.848V559H341.039V557.056C340.623 557.728 340.039 558.256 339.287 558.64C338.551 559.008 337.735 559.192 336.839 559.192C335.815 559.192 334.895 558.984 334.079 558.568C333.263 558.136 332.615 557.496 332.135 556.648C331.671 555.8 331.439 554.768 331.439 553.552V545.848H333.599V553.264C333.599 554.56 333.927 555.56 334.583 556.264C335.239 556.952 336.135 557.296 337.271 557.296C338.439 557.296 339.359 556.936 340.031 556.216C340.703 555.496 341.039 554.448 341.039 553.072V545.848H343.223ZM349.095 548.296C349.543 547.512 350.199 546.872 351.062 546.376C351.927 545.88 352.911 545.632 354.015 545.632C355.199 545.632 356.263 545.912 357.207 546.472C358.151 547.032 358.895 547.824 359.439 548.848C359.983 549.856 360.255 551.032 360.255 552.376C360.255 553.704 359.983 554.888 359.439 555.928C358.895 556.968 358.142 557.776 357.182 558.352C356.239 558.928 355.183 559.216 354.015 559.216C352.879 559.216 351.879 558.968 351.015 558.472C350.167 557.976 349.527 557.344 349.095 556.576V559H346.911V541.24H349.095V548.296ZM358.023 552.376C358.023 551.384 357.823 550.52 357.423 549.784C357.023 549.048 356.479 548.488 355.791 548.104C355.119 547.72 354.375 547.528 353.559 547.528C352.759 547.528 352.015 547.728 351.327 548.128C350.655 548.512 350.111 549.08 349.695 549.832C349.295 550.568 349.095 551.424 349.095 552.4C349.095 553.392 349.295 554.264 349.695 555.016C350.111 555.752 350.655 556.32 351.327 556.72C352.015 557.104 352.759 557.296 353.559 557.296C354.375 557.296 355.119 557.104 355.791 556.72C356.479 556.32 357.023 555.752 357.423 555.016C357.823 554.264 358.023 553.384 358.023 552.376ZM365.313 548.296C365.761 547.512 366.417 546.872 367.281 546.376C368.145 545.88 369.129 545.632 370.233 545.632C371.417 545.632 372.481 545.912 373.425 546.472C374.369 547.032 375.113 547.824 375.657 548.848C376.201 549.856 376.473 551.032 376.473 552.376C376.473 553.704 376.201 554.888 375.657 555.928C375.113 556.968 374.361 557.776 373.401 558.352C372.457 558.928 371.401 559.216 370.233 559.216C369.097 559.216 368.097 558.968 367.233 558.472C366.385 557.976 365.745 557.344 365.313 556.576V559H363.129V541.24H365.313V548.296ZM374.241 552.376C374.241 551.384 374.041 550.52 373.641 549.784C373.241 549.048 372.697 548.488 372.009 548.104C371.337 547.72 370.593 547.528 369.777 547.528C368.977 547.528 368.233 547.728 367.545 548.128C366.873 548.512 366.329 549.08 365.913 549.832C365.513 550.568 365.313 551.424 365.313 552.4C365.313 553.392 365.513 554.264 365.913 555.016C366.329 555.752 366.873 556.32 367.545 556.72C368.233 557.104 368.977 557.296 369.777 557.296C370.593 557.296 371.337 557.104 372.009 556.72C372.697 556.32 373.241 555.752 373.641 555.016C374.041 554.264 374.241 553.384 374.241 552.376ZM380.476 543.712C380.06 543.712 379.708 543.568 379.42 543.28C379.132 542.992 378.988 542.64 378.988 542.224C378.988 541.808 379.132 541.456 379.42 541.168C379.708 540.88 380.06 540.736 380.476 540.736C380.876 540.736 381.212 540.88 381.484 541.168C381.772 541.456 381.916 541.808 381.916 542.224C381.916 542.64 381.772 542.992 381.484 543.28C381.212 543.568 380.876 543.712 380.476 543.712ZM381.532 545.848V559H379.348V545.848H381.532ZM391.662 545.608C393.262 545.608 394.558 546.096 395.55 547.072C396.542 548.032 397.038 549.424 397.038 551.248V559H394.878V551.56C394.878 550.248 394.55 549.248 393.894 548.56C393.238 547.856 392.342 547.504 391.206 547.504C390.054 547.504 389.134 547.864 388.446 548.584C387.774 549.304 387.438 550.352 387.438 551.728V559H385.254V545.848H387.438V547.72C387.87 547.048 388.454 546.528 389.19 546.16C389.942 545.792 390.766 545.608 391.662 545.608ZM406.03 545.632C407.166 545.632 408.158 545.88 409.006 546.376C409.87 546.872 410.51 547.496 410.926 548.248V545.848H413.134V559.288C413.134 560.488 412.878 561.552 412.366 562.48C411.854 563.424 411.118 564.16 410.158 564.688C409.214 565.216 408.11 565.48 406.846 565.48C405.118 565.48 403.678 565.072 402.526 564.256C401.374 563.44 400.694 562.328 400.486 560.92H402.646C402.886 561.72 403.382 562.36 404.134 562.84C404.886 563.336 405.79 563.584 406.846 563.584C408.046 563.584 409.022 563.208 409.774 562.456C410.542 561.704 410.926 560.648 410.926 559.288V556.528C410.494 557.296 409.854 557.936 409.006 558.448C408.158 558.96 407.166 559.216 406.03 559.216C404.862 559.216 403.798 558.928 402.838 558.352C401.894 557.776 401.15 556.968 400.606 555.928C400.062 554.888 399.79 553.704 399.79 552.376C399.79 551.032 400.062 549.856 400.606 548.848C401.15 547.824 401.894 547.032 402.838 546.472C403.798 545.912 404.862 545.632 406.03 545.632ZM410.926 552.4C410.926 551.408 410.726 550.544 410.326 549.808C409.926 549.072 409.382 548.512 408.694 548.128C408.022 547.728 407.278 547.528 406.462 547.528C405.646 547.528 404.902 547.72 404.23 548.104C403.558 548.488 403.022 549.048 402.622 549.784C402.222 550.52 402.022 551.384 402.022 552.376C402.022 553.384 402.222 554.264 402.622 555.016C403.022 555.752 403.558 556.32 404.23 556.72C404.902 557.104 405.646 557.296 406.462 557.296C407.278 557.296 408.022 557.104 408.694 556.72C409.382 556.32 409.926 555.752 410.326 555.016C410.726 554.264 410.926 553.392 410.926 552.4ZM286.086 595L283.902 592.792C283.086 593.64 282.214 594.272 281.286 594.688C280.358 595.088 279.31 595.288 278.142 595.288C276.99 595.288 275.966 595.08 275.07 594.664C274.19 594.248 273.502 593.656 273.006 592.888C272.526 592.12 272.286 591.224 272.286 590.2C272.286 589.032 272.614 588.008 273.27 587.128C273.942 586.232 274.926 585.528 276.222 585.016C275.71 584.408 275.342 583.848 275.118 583.336C274.894 582.824 274.782 582.264 274.782 581.656C274.782 580.952 274.958 580.32 275.31 579.76C275.678 579.184 276.198 578.736 276.87 578.416C277.542 578.096 278.318 577.936 279.198 577.936C280.062 577.936 280.814 578.104 281.454 578.44C282.094 578.776 282.574 579.248 282.894 579.856C283.214 580.448 283.358 581.112 283.326 581.848H281.142C281.158 581.192 280.974 580.68 280.59 580.312C280.206 579.928 279.71 579.736 279.102 579.736C278.462 579.736 277.942 579.92 277.542 580.288C277.158 580.64 276.966 581.096 276.966 581.656C276.966 582.136 277.094 582.6 277.35 583.048C277.622 583.496 278.07 584.048 278.694 584.704L283.686 589.72L284.118 589.048L285.75 586.312H288.102L286.134 589.72C285.862 590.2 285.542 590.704 285.174 591.232L288.942 595H286.086ZM278.142 593.416C279.006 593.416 279.782 593.248 280.47 592.912C281.174 592.576 281.838 592.056 282.462 591.352L277.542 586.408C275.494 587.192 274.47 588.432 274.47 590.128C274.47 591.072 274.806 591.856 275.478 592.48C276.166 593.104 277.054 593.416 278.142 593.416ZM318.411 578.272L313.563 595H311.115L307.227 581.536L303.195 595L300.771 595.024L296.091 578.272H298.419L302.067 592.456L306.099 578.272H308.547L312.387 592.408L316.059 578.272H318.411ZM319.985 588.376C319.985 587.032 320.257 585.856 320.801 584.848C321.345 583.824 322.089 583.032 323.033 582.472C323.993 581.912 325.057 581.632 326.225 581.632C327.377 581.632 328.377 581.88 329.225 582.376C330.073 582.872 330.705 583.496 331.121 584.248V581.848H333.329V595H331.121V592.552C330.689 593.32 330.041 593.96 329.177 594.472C328.329 594.968 327.337 595.216 326.201 595.216C325.033 595.216 323.977 594.928 323.033 594.352C322.089 593.776 321.345 592.968 320.801 591.928C320.257 590.888 319.985 589.704 319.985 588.376ZM331.121 588.4C331.121 587.408 330.921 586.544 330.521 585.808C330.121 585.072 329.577 584.512 328.889 584.128C328.217 583.728 327.473 583.528 326.657 583.528C325.841 583.528 325.097 583.72 324.425 584.104C323.753 584.488 323.217 585.048 322.817 585.784C322.417 586.52 322.217 587.384 322.217 588.376C322.217 589.384 322.417 590.264 322.817 591.016C323.217 591.752 323.753 592.32 324.425 592.72C325.097 593.104 325.841 593.296 326.657 593.296C327.473 593.296 328.217 593.104 328.889 592.72C329.577 592.32 330.121 591.752 330.521 591.016C330.921 590.264 331.121 589.392 331.121 588.4ZM343.884 595L340.764 590.104L337.764 595H335.484L339.732 588.472L335.484 581.848H337.956L341.076 586.72L344.052 581.848H346.332L342.108 588.352L346.356 595H343.884ZM349.632 579.712C349.216 579.712 348.864 579.568 348.576 579.28C348.288 578.992 348.144 578.64 348.144 578.224C348.144 577.808 348.288 577.456 348.576 577.168C348.864 576.88 349.216 576.736 349.632 576.736C350.032 576.736 350.368 576.88 350.64 577.168C350.928 577.456 351.072 577.808 351.072 578.224C351.072 578.64 350.928 578.992 350.64 579.28C350.368 579.568 350.032 579.712 349.632 579.712ZM350.688 581.848V595H348.504V581.848H350.688ZM360.819 581.608C362.419 581.608 363.715 582.096 364.707 583.072C365.699 584.032 366.195 585.424 366.195 587.248V595H364.035V587.56C364.035 586.248 363.707 585.248 363.051 584.56C362.395 583.856 361.499 583.504 360.363 583.504C359.211 583.504 358.291 583.864 357.603 584.584C356.931 585.304 356.595 586.352 356.595 587.728V595H354.411V581.848H356.595V583.72C357.027 583.048 357.611 582.528 358.347 582.16C359.099 581.792 359.923 581.608 360.819 581.608ZM375.186 581.632C376.322 581.632 377.314 581.88 378.162 582.376C379.026 582.872 379.666 583.496 380.082 584.248V581.848H382.29V595.288C382.29 596.488 382.034 597.552 381.522 598.48C381.01 599.424 380.274 600.16 379.314 600.688C378.37 601.216 377.266 601.48 376.002 601.48C374.274 601.48 372.834 601.072 371.682 600.256C370.53 599.44 369.85 598.328 369.642 596.92H371.802C372.042 597.72 372.538 598.36 373.29 598.84C374.042 599.336 374.946 599.584 376.002 599.584C377.202 599.584 378.178 599.208 378.93 598.456C379.698 597.704 380.082 596.648 380.082 595.288V592.528C379.65 593.296 379.01 593.936 378.162 594.448C377.314 594.96 376.322 595.216 375.186 595.216C374.018 595.216 372.954 594.928 371.994 594.352C371.05 593.776 370.306 592.968 369.762 591.928C369.218 590.888 368.946 589.704 368.946 588.376C368.946 587.032 369.218 585.856 369.762 584.848C370.306 583.824 371.05 583.032 371.994 582.472C372.954 581.912 374.018 581.632 375.186 581.632ZM380.082 588.4C380.082 587.408 379.882 586.544 379.482 585.808C379.082 585.072 378.538 584.512 377.85 584.128C377.178 583.728 376.434 583.528 375.618 583.528C374.802 583.528 374.058 583.72 373.386 584.104C372.714 584.488 372.178 585.048 371.778 585.784C371.378 586.52 371.178 587.384 371.178 588.376C371.178 589.384 371.378 590.264 371.778 591.016C372.178 591.752 372.714 592.32 373.386 592.72C374.058 593.104 374.802 593.296 375.618 593.296C376.434 593.296 377.178 593.104 377.85 592.72C378.538 592.32 379.082 591.752 379.482 591.016C379.882 590.264 380.082 589.392 380.082 588.4Z" fill="black"/>
</g>
<g id="Frame 313379" filter="url(#filter3_d_87_151)">
<mask id="path-35-inside-4_87_151" fill="white">
<path d="M24 746C24 737.163 31.1634 730 40 730H304C312.837 730 320 737.163 320 746V824C320 832.837 312.837 840 304 840H40C31.1635 840 24 832.837 24 824V746Z"/>
</mask>
<path d="M24 746C24 737.163 31.1634 730 40 730H304C312.837 730 320 737.163 320 746V824C320 832.837 312.837 840 304 840H40C31.1635 840 24 832.837 24 824V746Z" fill="white"/>
<path d="M13 746C13 736.611 20.6112 729 30 729H304C313.389 729 321 736.611 321 746H319C319 737.716 312.284 731 304 731H40C37.2386 731 35 737.716 35 746H13ZM321 824C321 833.389 313.389 841 304 841H30C20.6112 841 13 833.389 13 824H35C35 832.284 37.2386 839 40 839H304C312.284 839 319 832.284 319 824H321ZM30 841C20.6112 841 13 833.389 13 824V746C13 736.611 20.6112 729 30 729L40 731C37.2386 731 35 737.716 35 746V824C35 832.284 37.2386 839 40 839L30 841ZM304 729C313.389 729 321 736.611 321 746V824C321 833.389 313.389 841 304 841V839C312.284 839 319 832.284 319 824V746C319 737.716 312.284 731 304 731V729Z" fill="#FF1100" mask="url(#path-35-inside-4_87_151)"/>
<g id="Frame 313380_3">
<path id="Car Wash_2" d="M45.888 757.624C45.888 755.992 46.264 754.528 47.016 753.232C47.784 751.936 48.816 750.928 50.112 750.208C51.424 749.472 52.856 749.104 54.408 749.104C56.184 749.104 57.76 749.544 59.136 750.424C60.528 751.288 61.536 752.52 62.16 754.12H58.872C58.44 753.24 57.84 752.584 57.072 752.152C56.304 751.72 55.416 751.504 54.408 751.504C53.304 751.504 52.32 751.752 51.456 752.248C50.592 752.744 49.912 753.456 49.416 754.384C48.936 755.312 48.696 756.392 48.696 757.624C48.696 758.856 48.936 759.936 49.416 760.864C49.912 761.792 50.592 762.512 51.456 763.024C52.32 763.52 53.304 763.768 54.408 763.768C55.416 763.768 56.304 763.552 57.072 763.12C57.84 762.688 58.44 762.032 58.872 761.152H62.16C61.536 762.752 60.528 763.984 59.136 764.848C57.76 765.712 56.184 766.144 54.408 766.144C52.84 766.144 51.408 765.784 50.112 765.064C48.816 764.328 47.784 763.312 47.016 762.016C46.264 760.72 45.888 759.256 45.888 757.624ZM64.4505 759.328C64.4505 758 64.7225 756.824 65.2665 755.8C65.8265 754.776 66.5785 753.984 67.5225 753.424C68.4825 752.848 69.5385 752.56 70.6905 752.56C71.7305 752.56 72.6345 752.768 73.4025 753.184C74.1865 753.584 74.8105 754.088 75.2745 754.696V752.776H78.0345V766H75.2745V764.032C74.8105 764.656 74.1785 765.176 73.3785 765.592C72.5785 766.008 71.6665 766.216 70.6425 766.216C69.5065 766.216 68.4665 765.928 67.5225 765.352C66.5785 764.76 65.8265 763.944 65.2665 762.904C64.7225 761.848 64.4505 760.656 64.4505 759.328ZM75.2745 759.376C75.2745 758.464 75.0825 757.672 74.6985 757C74.3305 756.328 73.8425 755.816 73.2345 755.464C72.6265 755.112 71.9705 754.936 71.2665 754.936C70.5625 754.936 69.9065 755.112 69.2985 755.464C68.6905 755.8 68.1945 756.304 67.8105 756.976C67.4425 757.632 67.2585 758.416 67.2585 759.328C67.2585 760.24 67.4425 761.04 67.8105 761.728C68.1945 762.416 68.6905 762.944 69.2985 763.312C69.9225 763.664 70.5785 763.84 71.2665 763.84C71.9705 763.84 72.6265 763.664 73.2345 763.312C73.8425 762.96 74.3305 762.448 74.6985 761.776C75.0825 761.088 75.2745 760.288 75.2745 759.376ZM84.3641 754.696C84.7641 754.024 85.2921 753.504 85.9481 753.136C86.6201 752.752 87.4121 752.56 88.3241 752.56V755.392H87.6281C86.5561 755.392 85.7401 755.664 85.1801 756.208C84.6361 756.752 84.3641 757.696 84.3641 759.04V766H81.6281V752.776H84.3641V754.696ZM118.793 749.32L113.849 766H110.753L107.249 753.376L103.529 766L100.457 766.024L95.7294 749.32H98.6334L102.089 762.904L105.833 749.32H108.905L112.385 762.832L115.865 749.32H118.793ZM120.138 759.328C120.138 758 120.41 756.824 120.954 755.8C121.514 754.776 122.266 753.984 123.21 753.424C124.17 752.848 125.226 752.56 126.378 752.56C127.418 752.56 128.322 752.768 129.09 753.184C129.874 753.584 130.498 754.088 130.962 754.696V752.776H133.722V766H130.962V764.032C130.498 764.656 129.866 765.176 129.066 765.592C128.266 766.008 127.354 766.216 126.33 766.216C125.194 766.216 124.154 765.928 123.21 765.352C122.266 764.76 121.514 763.944 120.954 762.904C120.41 761.848 120.138 760.656 120.138 759.328ZM130.962 759.376C130.962 758.464 130.77 757.672 130.386 757C130.018 756.328 129.53 755.816 128.922 755.464C128.314 755.112 127.658 754.936 126.954 754.936C126.25 754.936 125.594 755.112 124.986 755.464C124.378 755.8 123.882 756.304 123.498 756.976C123.13 757.632 122.946 758.416 122.946 759.328C122.946 760.24 123.13 761.04 123.498 761.728C123.882 762.416 124.378 762.944 124.986 763.312C125.61 763.664 126.266 763.84 126.954 763.84C127.658 763.84 128.314 763.664 128.922 763.312C129.53 762.96 130.018 762.448 130.386 761.776C130.77 761.088 130.962 760.288 130.962 759.376ZM142.116 766.216C141.076 766.216 140.14 766.032 139.308 765.664C138.492 765.28 137.844 764.768 137.364 764.128C136.884 763.472 136.628 762.744 136.596 761.944H139.428C139.476 762.504 139.74 762.976 140.22 763.36C140.716 763.728 141.332 763.912 142.068 763.912C142.836 763.912 143.428 763.768 143.844 763.48C144.276 763.176 144.492 762.792 144.492 762.328C144.492 761.832 144.252 761.464 143.772 761.224C143.308 760.984 142.564 760.72 141.54 760.432C140.548 760.16 139.74 759.896 139.116 759.64C138.492 759.384 137.948 758.992 137.484 758.464C137.036 757.936 136.812 757.24 136.812 756.376C136.812 755.672 137.02 755.032 137.436 754.456C137.852 753.864 138.444 753.4 139.212 753.064C139.996 752.728 140.892 752.56 141.9 752.56C143.404 752.56 144.612 752.944 145.524 753.712C146.452 754.464 146.948 755.496 147.012 756.808H144.276C144.228 756.216 143.988 755.744 143.556 755.392C143.124 755.04 142.54 754.864 141.804 754.864C141.084 754.864 140.532 755 140.148 755.272C139.764 755.544 139.572 755.904 139.572 756.352C139.572 756.704 139.7 757 139.956 757.24C140.212 757.48 140.524 757.672 140.892 757.816C141.26 757.944 141.804 758.112 142.524 758.32C143.484 758.576 144.268 758.84 144.876 759.112C145.5 759.368 146.036 759.752 146.484 760.264C146.932 760.776 147.164 761.456 147.18 762.304C147.18 763.056 146.972 763.728 146.556 764.32C146.14 764.912 145.548 765.376 144.78 765.712C144.028 766.048 143.14 766.216 142.116 766.216ZM156.976 752.56C157.984 752.56 158.88 752.776 159.664 753.208C160.464 753.64 161.088 754.28 161.536 755.128C162 755.976 162.232 757 162.232 758.2V766H159.52V758.608C159.52 757.424 159.224 756.52 158.632 755.896C158.04 755.256 157.232 754.936 156.208 754.936C155.184 754.936 154.368 755.256 153.76 755.896C153.168 756.52 152.872 757.424 152.872 758.608V766H150.136V748.24H152.872V754.312C153.336 753.752 153.92 753.32 154.624 753.016C155.344 752.712 156.128 752.56 156.976 752.56Z" fill="black"/>
<path id="Today: 09:15 AM_2" d="M57.384 783.88V785.368H54.424V795H52.6V785.368H49.624V783.88H57.384ZM63.0553 795.144C62.2233 795.144 61.4713 794.957 60.7993 794.584C60.1273 794.2 59.5993 793.667 59.2153 792.984C58.8313 792.291 58.6393 791.491 58.6393 790.584C58.6393 789.688 58.8366 788.893 59.2313 788.2C59.6259 787.507 60.1646 786.973 60.8473 786.6C61.5299 786.227 62.2926 786.04 63.1353 786.04C63.9779 786.04 64.7406 786.227 65.4233 786.6C66.1059 786.973 66.6446 787.507 67.0393 788.2C67.4339 788.893 67.6313 789.688 67.6313 790.584C67.6313 791.48 67.4286 792.275 67.0233 792.968C66.6179 793.661 66.0633 794.2 65.3593 794.584C64.6659 794.957 63.8979 795.144 63.0553 795.144ZM63.0553 793.56C63.5246 793.56 63.9619 793.448 64.3673 793.224C64.7833 793 65.1193 792.664 65.3753 792.216C65.6313 791.768 65.7593 791.224 65.7593 790.584C65.7593 789.944 65.6366 789.405 65.3913 788.968C65.1459 788.52 64.8206 788.184 64.4153 787.96C64.0099 787.736 63.5726 787.624 63.1033 787.624C62.6339 787.624 62.1966 787.736 61.7913 787.96C61.3966 788.184 61.0819 788.52 60.8473 788.968C60.6126 789.405 60.4953 789.944 60.4953 790.584C60.4953 791.533 60.7353 792.269 61.2153 792.792C61.7059 793.304 62.3193 793.56 63.0553 793.56ZM68.8264 790.552C68.8264 789.667 69.0077 788.883 69.3704 788.2C69.7437 787.517 70.245 786.989 70.8744 786.616C71.5144 786.232 72.2237 786.04 73.0024 786.04C73.5784 786.04 74.1437 786.168 74.6984 786.424C75.2637 786.669 75.7117 787 76.0424 787.416V783.16H77.8824V795H76.0424V793.672C75.7437 794.099 75.3277 794.451 74.7944 794.728C74.2717 795.005 73.669 795.144 72.9864 795.144C72.2184 795.144 71.5144 794.952 70.8744 794.568C70.245 794.173 69.7437 793.629 69.3704 792.936C69.0077 792.232 68.8264 791.437 68.8264 790.552ZM76.0424 790.584C76.0424 789.976 75.9144 789.448 75.6584 789C75.413 788.552 75.0877 788.211 74.6824 787.976C74.277 787.741 73.8397 787.624 73.3704 787.624C72.901 787.624 72.4637 787.741 72.0584 787.976C71.653 788.2 71.3224 788.536 71.0664 788.984C70.821 789.421 70.6984 789.944 70.6984 790.552C70.6984 791.16 70.821 791.693 71.0664 792.152C71.3224 792.611 71.653 792.963 72.0584 793.208C72.4744 793.443 72.9117 793.56 73.3704 793.56C73.8397 793.56 74.277 793.443 74.6824 793.208C75.0877 792.973 75.413 792.632 75.6584 792.184C75.9144 791.725 76.0424 791.192 76.0424 790.584ZM79.6701 790.552C79.6701 789.667 79.8515 788.883 80.2141 788.2C80.5875 787.517 81.0888 786.989 81.7181 786.616C82.3581 786.232 83.0621 786.04 83.8301 786.04C84.5235 786.04 85.1261 786.179 85.6381 786.456C86.1608 786.723 86.5768 787.059 86.8861 787.464V786.184H88.7261V795H86.8861V793.688C86.5768 794.104 86.1555 794.451 85.6221 794.728C85.0888 795.005 84.4808 795.144 83.7981 795.144C83.0408 795.144 82.3475 794.952 81.7181 794.568C81.0888 794.173 80.5875 793.629 80.2141 792.936C79.8515 792.232 79.6701 791.437 79.6701 790.552ZM86.8861 790.584C86.8861 789.976 86.7581 789.448 86.5021 789C86.2568 788.552 85.9315 788.211 85.5261 787.976C85.1208 787.741 84.6835 787.624 84.2141 787.624C83.7448 787.624 83.3075 787.741 82.9021 787.976C82.4968 788.2 82.1661 788.536 81.9101 788.984C81.6648 789.421 81.5421 789.944 81.5421 790.552C81.5421 791.16 81.6648 791.693 81.9101 792.152C82.1661 792.611 82.4968 792.963 82.9021 793.208C83.3181 793.443 83.7555 793.56 84.2141 793.56C84.6835 793.56 85.1208 793.443 85.5261 793.208C85.9315 792.973 86.2568 792.632 86.5021 792.184C86.7581 791.725 86.8861 791.192 86.8861 790.584ZM99.0579 786.184L93.6499 799.144H91.7619L93.5539 794.856L90.0819 786.184H92.1139L94.5939 792.904L97.1699 786.184H99.0579ZM101.17 795.112C100.84 795.112 100.562 795 100.338 794.776C100.114 794.552 100.002 794.275 100.002 793.944C100.002 793.613 100.114 793.336 100.338 793.112C100.562 792.888 100.84 792.776 101.17 792.776C101.49 792.776 101.762 792.888 101.986 793.112C102.21 793.336 102.322 793.613 102.322 793.944C102.322 794.275 102.21 794.552 101.986 794.776C101.762 795 101.49 795.112 101.17 795.112ZM101.17 788.392C100.84 788.392 100.562 788.28 100.338 788.056C100.114 787.832 100.002 787.555 100.002 787.224C100.002 786.893 100.114 786.616 100.338 786.392C100.562 786.168 100.84 786.056 101.17 786.056C101.49 786.056 101.762 786.168 101.986 786.392C102.21 786.616 102.322 786.893 102.322 787.224C102.322 787.555 102.21 787.832 101.986 788.056C101.762 788.28 101.49 788.392 101.17 788.392ZM108.273 789.016C108.273 787.171 108.582 785.731 109.201 784.696C109.83 783.651 110.907 783.128 112.433 783.128C113.958 783.128 115.03 783.651 115.649 784.696C116.278 785.731 116.593 787.171 116.593 789.016C116.593 790.883 116.278 792.344 115.649 793.4C115.03 794.445 113.958 794.968 112.433 794.968C110.907 794.968 109.83 794.445 109.201 793.4C108.582 792.344 108.273 790.883 108.273 789.016ZM114.801 789.016C114.801 788.152 114.742 787.421 114.625 786.824C114.518 786.227 114.294 785.741 113.953 785.368C113.611 784.984 113.105 784.792 112.433 784.792C111.761 784.792 111.254 784.984 110.913 785.368C110.571 785.741 110.342 786.227 110.225 786.824C110.118 787.421 110.065 788.152 110.065 789.016C110.065 789.912 110.118 790.664 110.225 791.272C110.331 791.88 110.555 792.371 110.897 792.744C111.249 793.117 111.761 793.304 112.433 793.304C113.105 793.304 113.611 793.117 113.953 792.744C114.305 792.371 114.534 791.88 114.641 791.272C114.747 790.664 114.801 789.912 114.801 789.016ZM120.795 791.832C120.901 792.365 121.131 792.771 121.483 793.048C121.835 793.325 122.309 793.464 122.907 793.464C123.664 793.464 124.219 793.165 124.571 792.568C124.923 791.971 125.099 790.952 125.099 789.512C124.843 789.875 124.48 790.157 124.011 790.36C123.552 790.552 123.051 790.648 122.507 790.648C121.813 790.648 121.184 790.509 120.619 790.232C120.053 789.944 119.605 789.523 119.275 788.968C118.955 788.403 118.795 787.72 118.795 786.92C118.795 785.747 119.136 784.813 119.819 784.12C120.512 783.416 121.461 783.064 122.667 783.064C124.117 783.064 125.147 783.549 125.755 784.52C126.373 785.48 126.683 786.957 126.683 788.952C126.683 790.328 126.565 791.453 126.331 792.328C126.107 793.203 125.712 793.864 125.147 794.312C124.581 794.76 123.797 794.984 122.795 794.984C121.653 794.984 120.773 794.685 120.155 794.088C119.536 793.491 119.189 792.739 119.115 791.832H120.795ZM122.827 789.112C123.467 789.112 123.968 788.915 124.331 788.52C124.704 788.115 124.891 787.581 124.891 786.92C124.891 786.184 124.693 785.613 124.299 785.208C123.915 784.792 123.387 784.584 122.715 784.584C122.043 784.584 121.509 784.797 121.115 785.224C120.731 785.64 120.539 786.189 120.539 786.872C120.539 787.523 120.725 788.061 121.099 788.488C121.483 788.904 122.059 789.112 122.827 789.112ZM129.655 795.112C129.324 795.112 129.047 795 128.823 794.776C128.599 794.552 128.487 794.275 128.487 793.944C128.487 793.613 128.599 793.336 128.823 793.112C129.047 792.888 129.324 792.776 129.655 792.776C129.975 792.776 130.247 792.888 130.471 793.112C130.695 793.336 130.807 793.613 130.807 793.944C130.807 794.275 130.695 794.552 130.471 794.776C130.247 795 129.975 795.112 129.655 795.112ZM129.655 788.392C129.324 788.392 129.047 788.28 128.823 788.056C128.599 787.832 128.487 787.555 128.487 787.224C128.487 786.893 128.599 786.616 128.823 786.392C129.047 786.168 129.324 786.056 129.655 786.056C129.975 786.056 130.247 786.168 130.471 786.392C130.695 786.616 130.807 786.893 130.807 787.224C130.807 787.555 130.695 787.832 130.471 788.056C130.247 788.28 129.975 788.392 129.655 788.392ZM132.361 785V783.336H135.689V795H133.849V785H132.361ZM145.714 784.904H140.354V788.088C140.578 787.789 140.909 787.539 141.346 787.336C141.794 787.133 142.269 787.032 142.77 787.032C143.666 787.032 144.392 787.224 144.946 787.608C145.512 787.992 145.912 788.477 146.146 789.064C146.392 789.651 146.514 790.269 146.514 790.92C146.514 791.709 146.36 792.413 146.05 793.032C145.752 793.64 145.298 794.12 144.69 794.472C144.093 794.824 143.357 795 142.482 795C141.32 795 140.386 794.712 139.682 794.136C138.978 793.56 138.557 792.797 138.418 791.848H140.194C140.312 792.349 140.573 792.749 140.978 793.048C141.384 793.336 141.89 793.48 142.498 793.48C143.256 793.48 143.821 793.251 144.194 792.792C144.578 792.333 144.77 791.725 144.77 790.968C144.77 790.2 144.578 789.613 144.194 789.208C143.81 788.792 143.245 788.584 142.498 788.584C141.976 788.584 141.533 788.717 141.17 788.984C140.818 789.24 140.562 789.592 140.402 790.04H138.674V783.304H145.714V784.904ZM159.513 792.728H154.857L154.057 795H152.153L156.137 783.864H158.249L162.233 795H160.313L159.513 792.728ZM159.001 791.24L157.193 786.072L155.369 791.24H159.001ZM175.678 783.88V795H173.854V787.384L170.462 795H169.198L165.79 787.384V795H163.966V783.88H165.934L169.838 792.6L173.726 783.88H175.678Z" fill="#787878"/>
</g>
</g>
</g>
<defs>
<filter id="filter0_d_87_151" x="160" y="223" width="310" height="131" filterUnits="userSpaceOnUse" color-interpolation-filters="sRGB">
<feFlood flood-opacity="0" result="BackgroundImageFix"/>
<feColorMatrix in="SourceAlpha" type="matrix" values="0 0 0 0 0 0 0 0 0 0 0 0 0 0 0 0 0 0 127 0" result="hardAlpha"/>
<feOffset dy="4"/>
<feGaussianBlur stdDeviation="3.5"/>
<feComposite in2="hardAlpha" operator="out"/>
<feColorMatrix type="matrix" values="0 0 0 0 0 0 0 0 0 0 0 0 0 0 0 0 0 0 0.43 0"/>
<feBlend mode="normal" in2="BackgroundImageFix" result="effect1_dropShadow_87_151"/>
<feBlend mode="normal" in="SourceGraphic" in2="effect1_dropShadow_87_151" result="shape"/>
</filter>
<filter id="filter1_d_87_151" x="165" y="376" width="310" height="106" filterUnits="userSpaceOnUse" color-interpolation-filters="sRGB">
<feFlood flood-opacity="0" result="BackgroundImageFix"/>
<feColorMatrix in="SourceAlpha" type="matrix" values="0 0 0 0 0 0 0 0 0 0 0 0 0 0 0 0 0 0 127 0" result="hardAlpha"/>
<feOffset dy="4"/>
<feGaussianBlur stdDeviation="3.5"/>
<feComposite in2="hardAlpha" operator="out"/>
<feColorMatrix type="matrix" values="0 0 0 0 0 0 0 0 0 0 0 0 0 0 0 0 0 0 0.43 0"/>
<feBlend mode="normal" in2="BackgroundImageFix" result="effect1_dropShadow_87_151"/>
<feBlend mode="normal" in="SourceGraphic" in2="effect1_dropShadow_87_151" result="shape"/>
</filter>
<filter id="filter2_d_87_151" x="239" y="508" width="310" height="167" filterUnits="userSpaceOnUse" color-interpolation-filters="sRGB">
<feFlood flood-opacity="0" result="BackgroundImageFix"/>
<feColorMatrix in="SourceAlpha" type="matrix" values="0 0 0 0 0 0 0 0 0 0 0 0 0 0 0 0 0 0 127 0" result="hardAlpha"/>
<feOffset dy="4"/>
<feGaussianBlur stdDeviation="3.5"/>
<feComposite in2="hardAlpha" operator="out"/>
<feColorMatrix type="matrix" values="0 0 0 0 0 0 0 0 0 0 0 0 0 0 0 0 0 0 0.43 0"/>
<feBlend mode="normal" in2="BackgroundImageFix" result="effect1_dropShadow_87_151"/>
<feBlend mode="normal" in="SourceGraphic" in2="effect1_dropShadow_87_151" result="shape"/>
</filter>
<filter id="filter3_d_87_151" x="17" y="727" width="310" height="124" filterUnits="userSpaceOnUse" color-interpolation-filters="sRGB">
<feFlood flood-opacity="0" result="BackgroundImageFix"/>
<feColorMatrix in="SourceAlpha" type="matrix" values="0 0 0 0 0 0 0 0 0 0 0 0 0 0 0 0 0 0 127 0" result="hardAlpha"/>
<feOffset dy="4"/>
<feGaussianBlur stdDeviation="3.5"/>
<feComposite in2="hardAlpha" operator="out"/>
<feColorMatrix type="matrix" values="0 0 0 0 0 0 0 0 0 0 0 0 0 0 0 0 0 0 0.43 0"/>
<feBlend mode="normal" in2="BackgroundImageFix" result="effect1_dropShadow_87_151"/>
<feBlend mode="normal" in="SourceGraphic" in2="effect1_dropShadow_87_151" result="shape"/>
</filter>
<clipPath id="clip0_87_151">
<rect x="94" width="402" height="874" rx="32" fill="white"/>
</clipPath>
</defs>
</svg>
